<svg id="carusel2" xmlns="http://www.w3.org/2000/svg" xmlns:xlink="http://www.w3.org/1999/xlink" width="301.832" height="256" viewBox="0 0 301.832 256">
  <defs>
    <clipPath id="clip-path">
      <path id="Path_1052" data-name="Path 1052" d="M0,0H109V111H0Z" fill="none"/>
    </clipPath>
    <clipPath id="clip-path-2">
      <rect id="Rectangle_965" data-name="Rectangle 965" width="17.403" height="4.298" fill="none"/>
    </clipPath>
  </defs>
  <g id="Group_1125" data-name="Group 1125" transform="translate(-1533.66 -2665)" opacity="0">
    <rect id="Rectangle_343" data-name="Rectangle 343" width="5" height="256" transform="translate(1830.492 2665)" fill="#f38181"/>
  </g>
  <g id="shareData" transform="translate(0 11.5)">
    <g id="Mask_Group_600" data-name="Mask Group 600" transform="translate(0 59)" clip-path="url(#clip-path)">
      <g id="Group_1126" data-name="Group 1126" transform="translate(-511 -845)">
        <g id="Group_1129" data-name="Group 1129" transform="translate(511 845)" opacity="0.219">
          <g id="Group_674" data-name="Group 674">
            <circle id="Ellipse_68" data-name="Ellipse 68" cx="1.5" cy="1.5" r="1.5" fill="#fff"/>
          </g>
          <g id="Group_674-2" data-name="Group 674" transform="translate(7)">
            <circle id="Ellipse_68-2" data-name="Ellipse 68" cx="1.5" cy="1.5" r="1.5" fill="#fff"/>
          </g>
          <g id="Group_674-3" data-name="Group 674" transform="translate(14)">
            <circle id="Ellipse_68-3" data-name="Ellipse 68" cx="1.5" cy="1.5" r="1.5" fill="#fff"/>
          </g>
          <g id="Group_674-4" data-name="Group 674" transform="translate(21)">
            <circle id="Ellipse_68-4" data-name="Ellipse 68" cx="1.5" cy="1.5" r="1.5" fill="#fff"/>
          </g>
          <g id="Group_674-5" data-name="Group 674" transform="translate(28)">
            <circle id="Ellipse_68-5" data-name="Ellipse 68" cx="1.5" cy="1.5" r="1.5" fill="#fff"/>
          </g>
          <g id="Group_674-6" data-name="Group 674" transform="translate(35)">
            <circle id="Ellipse_68-6" data-name="Ellipse 68" cx="1.5" cy="1.5" r="1.5" fill="#fff"/>
          </g>
          <g id="Group_674-7" data-name="Group 674" transform="translate(42)">
            <circle id="Ellipse_68-7" data-name="Ellipse 68" cx="1.5" cy="1.5" r="1.5" fill="#fff"/>
          </g>
          <g id="Group_674-8" data-name="Group 674" transform="translate(49)">
            <circle id="Ellipse_68-8" data-name="Ellipse 68" cx="1.5" cy="1.5" r="1.5" fill="#fff"/>
          </g>
          <g id="Group_674-9" data-name="Group 674" transform="translate(56)">
            <circle id="Ellipse_68-9" data-name="Ellipse 68" cx="1.5" cy="1.5" r="1.5" fill="#fff"/>
          </g>
          <g id="Group_674-10" data-name="Group 674" transform="translate(63)">
            <circle id="Ellipse_68-10" data-name="Ellipse 68" cx="1.5" cy="1.5" r="1.5" fill="#fff"/>
          </g>
          <g id="Group_674-11" data-name="Group 674" transform="translate(70)">
            <circle id="Ellipse_68-11" data-name="Ellipse 68" cx="1.5" cy="1.5" r="1.5" fill="#fff"/>
          </g>
          <g id="Group_674-12" data-name="Group 674" transform="translate(77)">
            <circle id="Ellipse_68-12" data-name="Ellipse 68" cx="1.5" cy="1.5" r="1.5" fill="#fff"/>
          </g>
          <g id="Group_674-13" data-name="Group 674" transform="translate(0 7)">
            <circle id="Ellipse_68-13" data-name="Ellipse 68" cx="1.5" cy="1.5" r="1.5" fill="#fff"/>
          </g>
          <g id="Group_674-14" data-name="Group 674" transform="translate(7 7)">
            <circle id="Ellipse_68-14" data-name="Ellipse 68" cx="1.5" cy="1.5" r="1.5" fill="#fff"/>
          </g>
          <g id="Group_674-15" data-name="Group 674" transform="translate(14 7)">
            <circle id="Ellipse_68-15" data-name="Ellipse 68" cx="1.5" cy="1.5" r="1.5" fill="#fff"/>
          </g>
          <g id="Group_674-16" data-name="Group 674" transform="translate(21 7)">
            <circle id="Ellipse_68-16" data-name="Ellipse 68" cx="1.5" cy="1.5" r="1.5" fill="#fff"/>
          </g>
          <g id="Group_674-17" data-name="Group 674" transform="translate(28 7)">
            <circle id="Ellipse_68-17" data-name="Ellipse 68" cx="1.5" cy="1.5" r="1.5" fill="#fff"/>
          </g>
          <g id="Group_674-18" data-name="Group 674" transform="translate(35 7)">
            <circle id="Ellipse_68-18" data-name="Ellipse 68" cx="1.5" cy="1.5" r="1.5" fill="#fff"/>
          </g>
          <g id="Group_674-19" data-name="Group 674" transform="translate(42 7)">
            <circle id="Ellipse_68-19" data-name="Ellipse 68" cx="1.5" cy="1.5" r="1.5" fill="#fff"/>
          </g>
          <g id="Group_674-20" data-name="Group 674" transform="translate(49 7)">
            <circle id="Ellipse_68-20" data-name="Ellipse 68" cx="1.5" cy="1.5" r="1.5" fill="#fff"/>
          </g>
          <g id="Group_674-21" data-name="Group 674" transform="translate(56 7)">
            <circle id="Ellipse_68-21" data-name="Ellipse 68" cx="1.5" cy="1.5" r="1.5" fill="#fff"/>
          </g>
          <g id="Group_674-22" data-name="Group 674" transform="translate(63 7)">
            <circle id="Ellipse_68-22" data-name="Ellipse 68" cx="1.5" cy="1.5" r="1.5" fill="#fff"/>
          </g>
          <g id="Group_674-23" data-name="Group 674" transform="translate(70 7)">
            <circle id="Ellipse_68-23" data-name="Ellipse 68" cx="1.5" cy="1.5" r="1.5" fill="#fff"/>
          </g>
          <g id="Group_674-24" data-name="Group 674" transform="translate(77 7)">
            <circle id="Ellipse_68-24" data-name="Ellipse 68" cx="1.5" cy="1.5" r="1.5" fill="#fff"/>
          </g>
          <g id="Group_674-25" data-name="Group 674" transform="translate(0 14)">
            <circle id="Ellipse_68-25" data-name="Ellipse 68" cx="1.5" cy="1.5" r="1.5" fill="#fff"/>
          </g>
          <g id="Group_674-26" data-name="Group 674" transform="translate(7 14)">
            <circle id="Ellipse_68-26" data-name="Ellipse 68" cx="1.5" cy="1.5" r="1.5" fill="#fff"/>
          </g>
          <g id="Group_674-27" data-name="Group 674" transform="translate(14 14)">
            <circle id="Ellipse_68-27" data-name="Ellipse 68" cx="1.5" cy="1.5" r="1.5" fill="#fff"/>
          </g>
          <g id="Group_674-28" data-name="Group 674" transform="translate(21 14)">
            <circle id="Ellipse_68-28" data-name="Ellipse 68" cx="1.5" cy="1.5" r="1.5" fill="#fff"/>
          </g>
          <g id="Group_674-29" data-name="Group 674" transform="translate(28 14)">
            <circle id="Ellipse_68-29" data-name="Ellipse 68" cx="1.5" cy="1.5" r="1.5" fill="#fff"/>
          </g>
          <g id="Group_674-30" data-name="Group 674" transform="translate(35 14)">
            <circle id="Ellipse_68-30" data-name="Ellipse 68" cx="1.5" cy="1.5" r="1.5" fill="#fff"/>
          </g>
          <g id="Group_674-31" data-name="Group 674" transform="translate(42 14)">
            <circle id="Ellipse_68-31" data-name="Ellipse 68" cx="1.5" cy="1.5" r="1.5" fill="#fff"/>
          </g>
          <g id="Group_674-32" data-name="Group 674" transform="translate(49 14)">
            <circle id="Ellipse_68-32" data-name="Ellipse 68" cx="1.5" cy="1.5" r="1.5" fill="#fff"/>
          </g>
          <g id="Group_674-33" data-name="Group 674" transform="translate(56 14)">
            <circle id="Ellipse_68-33" data-name="Ellipse 68" cx="1.5" cy="1.5" r="1.5" fill="#fff"/>
          </g>
          <g id="Group_674-34" data-name="Group 674" transform="translate(63 14)">
            <circle id="Ellipse_68-34" data-name="Ellipse 68" cx="1.5" cy="1.5" r="1.5" fill="#fff"/>
          </g>
          <g id="Group_674-35" data-name="Group 674" transform="translate(70 14)">
            <circle id="Ellipse_68-35" data-name="Ellipse 68" cx="1.5" cy="1.5" r="1.5" fill="#fff"/>
          </g>
          <g id="Group_674-36" data-name="Group 674" transform="translate(77 14)">
            <circle id="Ellipse_68-36" data-name="Ellipse 68" cx="1.5" cy="1.5" r="1.5" fill="#fff"/>
          </g>
          <g id="Group_674-37" data-name="Group 674" transform="translate(0 21)">
            <circle id="Ellipse_68-37" data-name="Ellipse 68" cx="1.5" cy="1.5" r="1.5" fill="#fff"/>
          </g>
          <g id="Group_674-38" data-name="Group 674" transform="translate(7 21)">
            <circle id="Ellipse_68-38" data-name="Ellipse 68" cx="1.5" cy="1.5" r="1.5" fill="#fff"/>
          </g>
          <g id="Group_674-39" data-name="Group 674" transform="translate(0 28)">
            <circle id="Ellipse_68-39" data-name="Ellipse 68" cx="1.5" cy="1.5" r="1.5" fill="#fff"/>
          </g>
          <g id="Group_674-40" data-name="Group 674" transform="translate(7 28)">
            <circle id="Ellipse_68-40" data-name="Ellipse 68" cx="1.5" cy="1.5" r="1.5" fill="#fff"/>
          </g>
          <g id="Group_674-41" data-name="Group 674" transform="translate(0 35)">
            <circle id="Ellipse_68-41" data-name="Ellipse 68" cx="1.5" cy="1.5" r="1.5" fill="#fff"/>
          </g>
          <g id="Group_674-42" data-name="Group 674" transform="translate(7 35)">
            <circle id="Ellipse_68-42" data-name="Ellipse 68" cx="1.5" cy="1.5" r="1.5" fill="#fff"/>
          </g>
          <g id="Group_674-43" data-name="Group 674" transform="translate(0 42)">
            <circle id="Ellipse_68-43" data-name="Ellipse 68" cx="1.5" cy="1.5" r="1.5" fill="#fff"/>
          </g>
          <g id="Group_674-44" data-name="Group 674" transform="translate(7 42)">
            <circle id="Ellipse_68-44" data-name="Ellipse 68" cx="1.5" cy="1.5" r="1.5" fill="#fff"/>
          </g>
          <g id="Group_674-45" data-name="Group 674" transform="translate(0 49)">
            <circle id="Ellipse_68-45" data-name="Ellipse 68" cx="1.5" cy="1.5" r="1.5" fill="#fff"/>
          </g>
          <g id="Group_674-46" data-name="Group 674" transform="translate(7 49)">
            <circle id="Ellipse_68-46" data-name="Ellipse 68" cx="1.5" cy="1.5" r="1.5" fill="#fff"/>
          </g>
          <g id="Group_674-47" data-name="Group 674" transform="translate(0 56)">
            <circle id="Ellipse_68-47" data-name="Ellipse 68" cx="1.5" cy="1.5" r="1.5" fill="#fff"/>
          </g>
          <g id="Group_674-48" data-name="Group 674" transform="translate(7 56)">
            <circle id="Ellipse_68-48" data-name="Ellipse 68" cx="1.5" cy="1.5" r="1.5" fill="#fff"/>
          </g>
          <g id="Group_674-49" data-name="Group 674" transform="translate(0 63)">
            <circle id="Ellipse_68-49" data-name="Ellipse 68" cx="1.5" cy="1.5" r="1.5" fill="#fff"/>
          </g>
          <g id="Group_674-50" data-name="Group 674" transform="translate(7 63)">
            <circle id="Ellipse_68-50" data-name="Ellipse 68" cx="1.5" cy="1.5" r="1.5" fill="#fff"/>
          </g>
          <g id="Group_674-51" data-name="Group 674" transform="translate(0 70)">
            <circle id="Ellipse_68-51" data-name="Ellipse 68" cx="1.5" cy="1.5" r="1.5" fill="#fff"/>
          </g>
          <g id="Group_674-52" data-name="Group 674" transform="translate(7 70)">
            <circle id="Ellipse_68-52" data-name="Ellipse 68" cx="1.5" cy="1.5" r="1.5" fill="#fff"/>
          </g>
          <g id="Group_674-53" data-name="Group 674" transform="translate(0 77)">
            <circle id="Ellipse_68-53" data-name="Ellipse 68" cx="1.5" cy="1.5" r="1.5" fill="#fff"/>
          </g>
          <g id="Group_674-54" data-name="Group 674" transform="translate(7 77)">
            <circle id="Ellipse_68-54" data-name="Ellipse 68" cx="1.5" cy="1.5" r="1.5" fill="#fff"/>
          </g>
          <g id="Group_674-55" data-name="Group 674" transform="translate(0 84)">
            <circle id="Ellipse_68-55" data-name="Ellipse 68" cx="1.5" cy="1.5" r="1.5" fill="#fff"/>
          </g>
          <g id="Group_674-56" data-name="Group 674" transform="translate(7 84)">
            <circle id="Ellipse_68-56" data-name="Ellipse 68" cx="1.5" cy="1.5" r="1.5" fill="#fff"/>
          </g>
          <g id="Group_674-57" data-name="Group 674" transform="translate(0 91)">
            <circle id="Ellipse_68-57" data-name="Ellipse 68" cx="1.5" cy="1.5" r="1.5" fill="#fff"/>
          </g>
          <g id="Group_674-58" data-name="Group 674" transform="translate(7 91)">
            <circle id="Ellipse_68-58" data-name="Ellipse 68" cx="1.5" cy="1.5" r="1.5" fill="#fff"/>
          </g>
          <g id="Group_674-59" data-name="Group 674" transform="translate(0 98)">
            <circle id="Ellipse_68-59" data-name="Ellipse 68" cx="1.5" cy="1.5" r="1.5" fill="#fff"/>
          </g>
          <g id="Group_674-60" data-name="Group 674" transform="translate(7 98)">
            <circle id="Ellipse_68-60" data-name="Ellipse 68" cx="1.5" cy="1.5" r="1.5" fill="#fff"/>
          </g>
          <g id="Group_674-61" data-name="Group 674" transform="translate(14 98)">
            <circle id="Ellipse_68-61" data-name="Ellipse 68" cx="1.5" cy="1.5" r="1.5" fill="#fff"/>
          </g>
          <g id="Group_674-62" data-name="Group 674" transform="translate(21 98)">
            <circle id="Ellipse_68-62" data-name="Ellipse 68" cx="1.5" cy="1.5" r="1.5" fill="#fff"/>
          </g>
          <g id="Group_674-63" data-name="Group 674" transform="translate(28 98)">
            <circle id="Ellipse_68-63" data-name="Ellipse 68" cx="1.5" cy="1.5" r="1.5" fill="#fff"/>
          </g>
          <g id="Group_674-64" data-name="Group 674" transform="translate(35 98)">
            <circle id="Ellipse_68-64" data-name="Ellipse 68" cx="1.5" cy="1.5" r="1.5" fill="#fff"/>
          </g>
          <g id="Group_674-65" data-name="Group 674" transform="translate(42 98)">
            <circle id="Ellipse_68-65" data-name="Ellipse 68" cx="1.5" cy="1.5" r="1.5" fill="#fff"/>
          </g>
          <g id="Group_674-66" data-name="Group 674" transform="translate(49 98)">
            <circle id="Ellipse_68-66" data-name="Ellipse 68" cx="1.5" cy="1.5" r="1.5" fill="#fff"/>
          </g>
          <g id="Group_674-67" data-name="Group 674" transform="translate(56 98)">
            <circle id="Ellipse_68-67" data-name="Ellipse 68" cx="1.5" cy="1.5" r="1.5" fill="#fff"/>
          </g>
          <g id="Group_674-68" data-name="Group 674" transform="translate(63 98)">
            <circle id="Ellipse_68-68" data-name="Ellipse 68" cx="1.5" cy="1.5" r="1.5" fill="#fff"/>
          </g>
          <g id="Group_674-69" data-name="Group 674" transform="translate(70 98)">
            <circle id="Ellipse_68-69" data-name="Ellipse 68" cx="1.5" cy="1.5" r="1.5" fill="#fff"/>
          </g>
          <g id="Group_674-70" data-name="Group 674" transform="translate(77 98)">
            <circle id="Ellipse_68-70" data-name="Ellipse 68" cx="1.5" cy="1.5" r="1.5" fill="#fff"/>
          </g>
          <g id="Group_674-71" data-name="Group 674" transform="translate(0 105)">
            <circle id="Ellipse_68-71" data-name="Ellipse 68" cx="1.5" cy="1.5" r="1.5" fill="#fff"/>
          </g>
          <g id="Group_674-72" data-name="Group 674" transform="translate(7 105)">
            <circle id="Ellipse_68-72" data-name="Ellipse 68" cx="1.5" cy="1.5" r="1.5" fill="#fff"/>
          </g>
          <g id="Group_674-73" data-name="Group 674" transform="translate(14 105)">
            <circle id="Ellipse_68-73" data-name="Ellipse 68" cx="1.5" cy="1.5" r="1.5" fill="#fff"/>
          </g>
          <g id="Group_674-74" data-name="Group 674" transform="translate(21 105)">
            <circle id="Ellipse_68-74" data-name="Ellipse 68" cx="1.5" cy="1.5" r="1.5" fill="#fff"/>
          </g>
          <g id="Group_674-75" data-name="Group 674" transform="translate(28 105)">
            <circle id="Ellipse_68-75" data-name="Ellipse 68" cx="1.5" cy="1.5" r="1.5" fill="#fff"/>
          </g>
          <g id="Group_674-76" data-name="Group 674" transform="translate(35 105)">
            <circle id="Ellipse_68-76" data-name="Ellipse 68" cx="1.5" cy="1.5" r="1.5" fill="#fff"/>
          </g>
          <g id="Group_674-77" data-name="Group 674" transform="translate(42 105)">
            <circle id="Ellipse_68-77" data-name="Ellipse 68" cx="1.5" cy="1.5" r="1.5" fill="#fff"/>
          </g>
          <g id="Group_674-78" data-name="Group 674" transform="translate(49 105)">
            <circle id="Ellipse_68-78" data-name="Ellipse 68" cx="1.5" cy="1.5" r="1.5" fill="#fff"/>
          </g>
          <g id="Group_674-79" data-name="Group 674" transform="translate(56 105)">
            <circle id="Ellipse_68-79" data-name="Ellipse 68" cx="1.5" cy="1.5" r="1.5" fill="#fff"/>
          </g>
          <g id="Group_674-80" data-name="Group 674" transform="translate(63 105)">
            <circle id="Ellipse_68-80" data-name="Ellipse 68" cx="1.5" cy="1.5" r="1.5" fill="#fff"/>
          </g>
          <g id="Group_674-81" data-name="Group 674" transform="translate(70 105)">
            <circle id="Ellipse_68-81" data-name="Ellipse 68" cx="1.5" cy="1.5" r="1.5" fill="#fff"/>
          </g>
          <g id="Group_674-82" data-name="Group 674" transform="translate(77 105)">
            <circle id="Ellipse_68-82" data-name="Ellipse 68" cx="1.5" cy="1.5" r="1.5" fill="#fff"/>
          </g>
        </g>
      </g>
      <g id="Group_1127" data-name="Group 1127" transform="translate(-426 -845)">
        <g id="Group_1131" data-name="Group 1131" transform="translate(511 845)" opacity="0.219">
          <g id="Group_674-83" data-name="Group 674">
            <circle id="Ellipse_68-83" data-name="Ellipse 68" cx="1.5" cy="1.5" r="1.5" fill="#fff"/>
          </g>
          <g id="Group_674-84" data-name="Group 674" transform="translate(7)">
            <circle id="Ellipse_68-84" data-name="Ellipse 68" cx="1.5" cy="1.5" r="1.5" fill="#fff"/>
          </g>
          <g id="Group_674-85" data-name="Group 674" transform="translate(14)">
            <circle id="Ellipse_68-85" data-name="Ellipse 68" cx="1.5" cy="1.5" r="1.5" fill="#fff"/>
          </g>
          <g id="Group_674-86" data-name="Group 674" transform="translate(21)">
            <circle id="Ellipse_68-86" data-name="Ellipse 68" cx="1.5" cy="1.5" r="1.5" fill="#fff"/>
          </g>
          <g id="Group_674-87" data-name="Group 674" transform="translate(28)">
            <circle id="Ellipse_68-87" data-name="Ellipse 68" cx="1.5" cy="1.5" r="1.5" fill="#fff"/>
          </g>
          <g id="Group_674-88" data-name="Group 674" transform="translate(35)">
            <circle id="Ellipse_68-88" data-name="Ellipse 68" cx="1.5" cy="1.5" r="1.5" fill="#fff"/>
          </g>
          <g id="Group_674-89" data-name="Group 674" transform="translate(0 7)">
            <circle id="Ellipse_68-89" data-name="Ellipse 68" cx="1.5" cy="1.5" r="1.5" fill="#fff"/>
          </g>
          <g id="Group_674-90" data-name="Group 674" transform="translate(7 7)">
            <circle id="Ellipse_68-90" data-name="Ellipse 68" cx="1.5" cy="1.5" r="1.5" fill="#fff"/>
          </g>
          <g id="Group_674-91" data-name="Group 674" transform="translate(14 7)">
            <circle id="Ellipse_68-91" data-name="Ellipse 68" cx="1.5" cy="1.5" r="1.5" fill="#fff"/>
          </g>
          <g id="Group_674-92" data-name="Group 674" transform="translate(21 7)">
            <circle id="Ellipse_68-92" data-name="Ellipse 68" cx="1.5" cy="1.5" r="1.5" fill="#fff"/>
          </g>
          <g id="Group_674-93" data-name="Group 674" transform="translate(28 7)">
            <circle id="Ellipse_68-93" data-name="Ellipse 68" cx="1.5" cy="1.5" r="1.5" fill="#fff"/>
          </g>
          <g id="Group_674-94" data-name="Group 674" transform="translate(35 7)">
            <circle id="Ellipse_68-94" data-name="Ellipse 68" cx="1.5" cy="1.5" r="1.5" fill="#fff"/>
          </g>
          <g id="Group_674-95" data-name="Group 674" transform="translate(0 14)">
            <circle id="Ellipse_68-95" data-name="Ellipse 68" cx="1.5" cy="1.5" r="1.5" fill="#fff"/>
          </g>
          <g id="Group_674-96" data-name="Group 674" transform="translate(7 14)">
            <circle id="Ellipse_68-96" data-name="Ellipse 68" cx="1.5" cy="1.5" r="1.5" fill="#fff"/>
          </g>
          <g id="Group_674-97" data-name="Group 674" transform="translate(14 14)">
            <circle id="Ellipse_68-97" data-name="Ellipse 68" cx="1.5" cy="1.5" r="1.5" fill="#fff"/>
          </g>
          <g id="Group_674-98" data-name="Group 674" transform="translate(21 14)">
            <circle id="Ellipse_68-98" data-name="Ellipse 68" cx="1.5" cy="1.5" r="1.5" fill="#fff"/>
          </g>
          <g id="Group_674-99" data-name="Group 674" transform="translate(28 14)">
            <circle id="Ellipse_68-99" data-name="Ellipse 68" cx="1.5" cy="1.5" r="1.5" fill="#fff"/>
          </g>
          <g id="Group_674-100" data-name="Group 674" transform="translate(35 14)">
            <circle id="Ellipse_68-100" data-name="Ellipse 68" cx="1.5" cy="1.5" r="1.5" fill="#fff"/>
          </g>
          <g id="Group_674-101" data-name="Group 674" transform="translate(0 98)">
            <circle id="Ellipse_68-101" data-name="Ellipse 68" cx="1.5" cy="1.5" r="1.5" fill="#fff"/>
          </g>
          <g id="Group_674-102" data-name="Group 674" transform="translate(7 98)">
            <circle id="Ellipse_68-102" data-name="Ellipse 68" cx="1.5" cy="1.5" r="1.5" fill="#fff"/>
          </g>
          <g id="Group_674-103" data-name="Group 674" transform="translate(14 98)">
            <circle id="Ellipse_68-103" data-name="Ellipse 68" cx="1.5" cy="1.5" r="1.5" fill="#fff"/>
          </g>
          <g id="Group_674-104" data-name="Group 674" transform="translate(21 98)">
            <circle id="Ellipse_68-104" data-name="Ellipse 68" cx="1.5" cy="1.5" r="1.5" fill="#fff"/>
          </g>
          <g id="Group_674-105" data-name="Group 674" transform="translate(28 98)">
            <circle id="Ellipse_68-105" data-name="Ellipse 68" cx="1.5" cy="1.5" r="1.5" fill="#fff"/>
          </g>
          <g id="Group_674-106" data-name="Group 674" transform="translate(35 98)">
            <circle id="Ellipse_68-106" data-name="Ellipse 68" cx="1.5" cy="1.5" r="1.5" fill="#fff"/>
          </g>
          <g id="Group_674-107" data-name="Group 674" transform="translate(0 105)">
            <circle id="Ellipse_68-107" data-name="Ellipse 68" cx="1.5" cy="1.5" r="1.5" fill="#fff"/>
          </g>
          <g id="Group_674-108" data-name="Group 674" transform="translate(7 105)">
            <circle id="Ellipse_68-108" data-name="Ellipse 68" cx="1.5" cy="1.5" r="1.5" fill="#fff"/>
          </g>
          <g id="Group_674-109" data-name="Group 674" transform="translate(14 105)">
            <circle id="Ellipse_68-109" data-name="Ellipse 68" cx="1.5" cy="1.5" r="1.5" fill="#fff"/>
          </g>
          <g id="Group_674-110" data-name="Group 674" transform="translate(21 105)">
            <circle id="Ellipse_68-110" data-name="Ellipse 68" cx="1.5" cy="1.5" r="1.5" fill="#fff"/>
          </g>
          <g id="Group_674-111" data-name="Group 674" transform="translate(28 105)">
            <circle id="Ellipse_68-111" data-name="Ellipse 68" cx="1.5" cy="1.5" r="1.5" fill="#fff"/>
          </g>
          <g id="Group_674-112" data-name="Group 674" transform="translate(35 105)">
            <circle id="Ellipse_68-112" data-name="Ellipse 68" cx="1.5" cy="1.5" r="1.5" fill="#fff"/>
          </g>
        </g>
      </g>
    </g>
  </g>
  <g id="Component_70_2" data-name="Component 70 – 2" transform="translate(14 91)">
    <rect id="Rectangle_219" data-name="Rectangle 219" width="98.928" height="72.823" rx="7" fill="#fdf1dd"/>
    <path id="Path_1050" data-name="Path 1050" d="M5,0H71.139a5,5,0,0,1,5,5V50.262a5,5,0,0,1-5,5H5a5,5,0,0,1-5-5V5A5,5,0,0,1,5,0Z" transform="translate(11.895 9.895)" fill="#ffb43b"/>
    <path id="Rectangle_221" data-name="Rectangle 221" d="M0,0H1.754a5,5,0,0,1,5,5V50.262a5,5,0,0,1-5,5H0Z" transform="translate(1 9.895)" fill="#ffb43b" opacity="0.703"/>
    <path id="Rectangle_222" data-name="Rectangle 222" d="M5,0h.526V52.648H5a5,5,0,0,1-5-5V5A5,5,0,0,1,5,0Z" transform="translate(92.401 9.895)" fill="#ffb43b" opacity="0.73"/>
    <g id="Repeat_Grid_42" data-name="Repeat Grid 42" transform="translate(40.525 54.04)" clip-path="url(#clip-path-2)">
      <g id="Group_1162" data-name="Group 1162" transform="translate(-1950 -1698)">
        <circle id="Ellipse_203" data-name="Ellipse 203" cx="2" cy="2" r="2" transform="translate(1950 1698)" fill="#fff"/>
      </g>
      <g id="Group_1163" data-name="Group 1163" transform="translate(-1941 -1698)">
        <circle id="Ellipse_203-2" data-name="Ellipse 203" cx="2" cy="2" r="2" transform="translate(1950 1698)" fill="#fff"/>
      </g>
    </g>
    <g id="baseline-aspect_ratio-24px" transform="translate(76.633 14.752)">
      <path id="Path_148" data-name="Path 148" d="M7.362,6.181H6.655v1.06H5.6v.707H7.362ZM3.121,5.121h1.06V4.414H2.414V6.181h.707ZM8.069,3H1.707A.709.709,0,0,0,1,3.707V8.655a.709.709,0,0,0,.707.707H8.069a.709.709,0,0,0,.707-.707V3.707A.709.709,0,0,0,8.069,3Zm0,5.659H1.707V3.7H8.069Z" transform="translate(-0.647 -1.94)" fill="#fff"/>
      <path id="Path_149" data-name="Path 149" d="M0,0H8.483V8.483H0Z" fill="none"/>
      <path id="Path_150" data-name="Path 150" d="M7.362,6.181H6.655v1.06H5.6v.707H7.362ZM3.121,5.121h1.06V4.414H2.414V6.181h.707ZM8.069,3H1.707A.709.709,0,0,0,1,3.707V8.655a.709.709,0,0,0,.707.707H8.069a.709.709,0,0,0,.707-.707V3.707A.709.709,0,0,0,8.069,3Zm0,5.659H1.707V3.7H8.069Z" transform="translate(-0.647 -1.94)" fill="#fff"/>
    </g>
  </g>
</svg>
