<svg id="Component_55_1" data-name="Component 55 – 1" xmlns="http://www.w3.org/2000/svg" xmlns:xlink="http://www.w3.org/1999/xlink" width="314" height="264" viewBox="0 0 314 264">
  <defs>
    <clipPath id="clip-path">
      <rect width="107" height="126" fill="none"/>
    </clipPath>
  </defs>
  <g id="Repeat_Grid_53" data-name="Repeat Grid 53" transform="translate(0 72)" opacity="0.505" clip-path="url(#clip-path)">
    <g id="Group_674" data-name="Group 674">
      <circle id="Ellipse_68" data-name="Ellipse 68" cx="1.5" cy="1.5" r="1.5" fill="#fff"/>
    </g>
    <g id="Group_674-2" data-name="Group 674" transform="translate(10)">
      <circle id="Ellipse_68-2" data-name="Ellipse 68" cx="1.5" cy="1.5" r="1.5" fill="#fff"/>
    </g>
    <g id="Group_674-3" data-name="Group 674" transform="translate(20)">
      <circle id="Ellipse_68-3" data-name="Ellipse 68" cx="1.5" cy="1.5" r="1.5" fill="#fff"/>
    </g>
    <g id="Group_674-4" data-name="Group 674" transform="translate(30)">
      <circle id="Ellipse_68-4" data-name="Ellipse 68" cx="1.5" cy="1.5" r="1.5" fill="#fff"/>
    </g>
    <g id="Group_674-5" data-name="Group 674" transform="translate(40)">
      <circle id="Ellipse_68-5" data-name="Ellipse 68" cx="1.5" cy="1.5" r="1.5" fill="#fff"/>
    </g>
    <g id="Group_674-6" data-name="Group 674" transform="translate(50)">
      <circle id="Ellipse_68-6" data-name="Ellipse 68" cx="1.5" cy="1.5" r="1.5" fill="#fff"/>
    </g>
    <g id="Group_674-7" data-name="Group 674" transform="translate(60)">
      <circle id="Ellipse_68-7" data-name="Ellipse 68" cx="1.5" cy="1.5" r="1.5" fill="#fff"/>
    </g>
    <g id="Group_674-8" data-name="Group 674" transform="translate(70)">
      <circle id="Ellipse_68-8" data-name="Ellipse 68" cx="1.5" cy="1.5" r="1.5" fill="#fff"/>
    </g>
    <g id="Group_674-9" data-name="Group 674" transform="translate(80)">
      <circle id="Ellipse_68-9" data-name="Ellipse 68" cx="1.5" cy="1.5" r="1.5" fill="#fff"/>
    </g>
    <g id="Group_674-10" data-name="Group 674" transform="translate(90)">
      <circle id="Ellipse_68-10" data-name="Ellipse 68" cx="1.5" cy="1.5" r="1.5" fill="#fff"/>
    </g>
    <g id="Group_674-11" data-name="Group 674" transform="translate(100)">
      <circle id="Ellipse_68-11" data-name="Ellipse 68" cx="1.5" cy="1.5" r="1.5" fill="#fff"/>
    </g>
    <g id="Group_674-12" data-name="Group 674" transform="translate(0 10)">
      <circle id="Ellipse_68-12" data-name="Ellipse 68" cx="1.5" cy="1.5" r="1.5" fill="#fff"/>
    </g>
    <g id="Group_674-13" data-name="Group 674" transform="translate(10 10)">
      <circle id="Ellipse_68-13" data-name="Ellipse 68" cx="1.5" cy="1.5" r="1.5" fill="#fff"/>
    </g>
    <g id="Group_674-14" data-name="Group 674" transform="translate(20 10)">
      <circle id="Ellipse_68-14" data-name="Ellipse 68" cx="1.5" cy="1.5" r="1.5" fill="#fff"/>
    </g>
    <g id="Group_674-15" data-name="Group 674" transform="translate(30 10)">
      <circle id="Ellipse_68-15" data-name="Ellipse 68" cx="1.5" cy="1.5" r="1.5" fill="#fff"/>
    </g>
    <g id="Group_674-16" data-name="Group 674" transform="translate(40 10)">
      <circle id="Ellipse_68-16" data-name="Ellipse 68" cx="1.5" cy="1.5" r="1.5" fill="#fff"/>
    </g>
    <g id="Group_674-17" data-name="Group 674" transform="translate(50 10)">
      <circle id="Ellipse_68-17" data-name="Ellipse 68" cx="1.5" cy="1.5" r="1.5" fill="#fff"/>
    </g>
    <g id="Group_674-18" data-name="Group 674" transform="translate(60 10)">
      <circle id="Ellipse_68-18" data-name="Ellipse 68" cx="1.5" cy="1.5" r="1.5" fill="#fff"/>
    </g>
    <g id="Group_674-19" data-name="Group 674" transform="translate(70 10)">
      <circle id="Ellipse_68-19" data-name="Ellipse 68" cx="1.5" cy="1.5" r="1.5" fill="#fff"/>
    </g>
    <g id="Group_674-20" data-name="Group 674" transform="translate(80 10)">
      <circle id="Ellipse_68-20" data-name="Ellipse 68" cx="1.5" cy="1.5" r="1.5" fill="#fff"/>
    </g>
    <g id="Group_674-21" data-name="Group 674" transform="translate(90 10)">
      <circle id="Ellipse_68-21" data-name="Ellipse 68" cx="1.5" cy="1.5" r="1.5" fill="#fff"/>
    </g>
    <g id="Group_674-22" data-name="Group 674" transform="translate(100 10)">
      <circle id="Ellipse_68-22" data-name="Ellipse 68" cx="1.5" cy="1.5" r="1.5" fill="#fff"/>
    </g>
    <g id="Group_674-23" data-name="Group 674" transform="translate(0 20)">
      <circle id="Ellipse_68-23" data-name="Ellipse 68" cx="1.5" cy="1.5" r="1.5" fill="#fff"/>
    </g>
    <g id="Group_674-24" data-name="Group 674" transform="translate(10 20)">
      <circle id="Ellipse_68-24" data-name="Ellipse 68" cx="1.5" cy="1.5" r="1.5" fill="#fff"/>
    </g>
    <g id="Group_674-25" data-name="Group 674" transform="translate(20 20)">
      <circle id="Ellipse_68-25" data-name="Ellipse 68" cx="1.5" cy="1.5" r="1.5" fill="#fff"/>
    </g>
    <g id="Group_674-26" data-name="Group 674" transform="translate(30 20)">
      <circle id="Ellipse_68-26" data-name="Ellipse 68" cx="1.5" cy="1.5" r="1.5" fill="#fff"/>
    </g>
    <g id="Group_674-27" data-name="Group 674" transform="translate(40 20)">
      <circle id="Ellipse_68-27" data-name="Ellipse 68" cx="1.5" cy="1.5" r="1.5" fill="#fff"/>
    </g>
    <g id="Group_674-28" data-name="Group 674" transform="translate(50 20)">
      <circle id="Ellipse_68-28" data-name="Ellipse 68" cx="1.5" cy="1.5" r="1.5" fill="#fff"/>
    </g>
    <g id="Group_674-29" data-name="Group 674" transform="translate(60 20)">
      <circle id="Ellipse_68-29" data-name="Ellipse 68" cx="1.5" cy="1.5" r="1.5" fill="#fff"/>
    </g>
    <g id="Group_674-30" data-name="Group 674" transform="translate(70 20)">
      <circle id="Ellipse_68-30" data-name="Ellipse 68" cx="1.5" cy="1.5" r="1.5" fill="#fff"/>
    </g>
    <g id="Group_674-31" data-name="Group 674" transform="translate(80 20)">
      <circle id="Ellipse_68-31" data-name="Ellipse 68" cx="1.5" cy="1.5" r="1.5" fill="#fff"/>
    </g>
    <g id="Group_674-32" data-name="Group 674" transform="translate(90 20)">
      <circle id="Ellipse_68-32" data-name="Ellipse 68" cx="1.5" cy="1.5" r="1.5" fill="#fff"/>
    </g>
    <g id="Group_674-33" data-name="Group 674" transform="translate(100 20)">
      <circle id="Ellipse_68-33" data-name="Ellipse 68" cx="1.5" cy="1.5" r="1.5" fill="#fff"/>
    </g>
    <g id="Group_674-34" data-name="Group 674" transform="translate(0 30)">
      <circle id="Ellipse_68-34" data-name="Ellipse 68" cx="1.5" cy="1.5" r="1.5" fill="#fff"/>
    </g>
    <g id="Group_674-35" data-name="Group 674" transform="translate(10 30)">
      <circle id="Ellipse_68-35" data-name="Ellipse 68" cx="1.5" cy="1.5" r="1.5" fill="#fff"/>
    </g>
    <g id="Group_674-36" data-name="Group 674" transform="translate(20 30)">
      <circle id="Ellipse_68-36" data-name="Ellipse 68" cx="1.5" cy="1.5" r="1.5" fill="#fff"/>
    </g>
    <g id="Group_674-37" data-name="Group 674" transform="translate(30 30)">
      <circle id="Ellipse_68-37" data-name="Ellipse 68" cx="1.5" cy="1.5" r="1.5" fill="#fff"/>
    </g>
    <g id="Group_674-38" data-name="Group 674" transform="translate(40 30)">
      <circle id="Ellipse_68-38" data-name="Ellipse 68" cx="1.5" cy="1.5" r="1.5" fill="#fff"/>
    </g>
    <g id="Group_674-39" data-name="Group 674" transform="translate(50 30)">
      <circle id="Ellipse_68-39" data-name="Ellipse 68" cx="1.5" cy="1.5" r="1.5" fill="#fff"/>
    </g>
    <g id="Group_674-40" data-name="Group 674" transform="translate(60 30)">
      <circle id="Ellipse_68-40" data-name="Ellipse 68" cx="1.5" cy="1.5" r="1.5" fill="#fff"/>
    </g>
    <g id="Group_674-41" data-name="Group 674" transform="translate(70 30)">
      <circle id="Ellipse_68-41" data-name="Ellipse 68" cx="1.5" cy="1.5" r="1.5" fill="#fff"/>
    </g>
    <g id="Group_674-42" data-name="Group 674" transform="translate(80 30)">
      <circle id="Ellipse_68-42" data-name="Ellipse 68" cx="1.5" cy="1.5" r="1.5" fill="#fff"/>
    </g>
    <g id="Group_674-43" data-name="Group 674" transform="translate(90 30)">
      <circle id="Ellipse_68-43" data-name="Ellipse 68" cx="1.5" cy="1.5" r="1.5" fill="#fff"/>
    </g>
    <g id="Group_674-44" data-name="Group 674" transform="translate(100 30)">
      <circle id="Ellipse_68-44" data-name="Ellipse 68" cx="1.5" cy="1.5" r="1.5" fill="#fff"/>
    </g>
    <g id="Group_674-45" data-name="Group 674" transform="translate(0 40)">
      <circle id="Ellipse_68-45" data-name="Ellipse 68" cx="1.5" cy="1.5" r="1.5" fill="#fff"/>
    </g>
    <g id="Group_674-46" data-name="Group 674" transform="translate(10 40)">
      <circle id="Ellipse_68-46" data-name="Ellipse 68" cx="1.5" cy="1.5" r="1.5" fill="#fff"/>
    </g>
    <g id="Group_674-47" data-name="Group 674" transform="translate(20 40)">
      <circle id="Ellipse_68-47" data-name="Ellipse 68" cx="1.5" cy="1.5" r="1.5" fill="#fff"/>
    </g>
    <g id="Group_674-48" data-name="Group 674" transform="translate(30 40)">
      <circle id="Ellipse_68-48" data-name="Ellipse 68" cx="1.5" cy="1.5" r="1.5" fill="#fff"/>
    </g>
    <g id="Group_674-49" data-name="Group 674" transform="translate(40 40)">
      <circle id="Ellipse_68-49" data-name="Ellipse 68" cx="1.5" cy="1.5" r="1.5" fill="#fff"/>
    </g>
    <g id="Group_674-50" data-name="Group 674" transform="translate(50 40)">
      <circle id="Ellipse_68-50" data-name="Ellipse 68" cx="1.5" cy="1.5" r="1.5" fill="#fff"/>
    </g>
    <g id="Group_674-51" data-name="Group 674" transform="translate(60 40)">
      <circle id="Ellipse_68-51" data-name="Ellipse 68" cx="1.5" cy="1.5" r="1.5" fill="#fff"/>
    </g>
    <g id="Group_674-52" data-name="Group 674" transform="translate(70 40)">
      <circle id="Ellipse_68-52" data-name="Ellipse 68" cx="1.5" cy="1.5" r="1.5" fill="#fff"/>
    </g>
    <g id="Group_674-53" data-name="Group 674" transform="translate(80 40)">
      <circle id="Ellipse_68-53" data-name="Ellipse 68" cx="1.5" cy="1.5" r="1.5" fill="#fff"/>
    </g>
    <g id="Group_674-54" data-name="Group 674" transform="translate(90 40)">
      <circle id="Ellipse_68-54" data-name="Ellipse 68" cx="1.5" cy="1.5" r="1.5" fill="#fff"/>
    </g>
    <g id="Group_674-55" data-name="Group 674" transform="translate(100 40)">
      <circle id="Ellipse_68-55" data-name="Ellipse 68" cx="1.5" cy="1.5" r="1.5" fill="#fff"/>
    </g>
    <g id="Group_674-56" data-name="Group 674" transform="translate(0 50)">
      <circle id="Ellipse_68-56" data-name="Ellipse 68" cx="1.5" cy="1.5" r="1.5" fill="#fff"/>
    </g>
    <g id="Group_674-57" data-name="Group 674" transform="translate(10 50)">
      <circle id="Ellipse_68-57" data-name="Ellipse 68" cx="1.5" cy="1.5" r="1.5" fill="#fff"/>
    </g>
    <g id="Group_674-58" data-name="Group 674" transform="translate(20 50)">
      <circle id="Ellipse_68-58" data-name="Ellipse 68" cx="1.5" cy="1.5" r="1.5" fill="#fff"/>
    </g>
    <g id="Group_674-59" data-name="Group 674" transform="translate(30 50)">
      <circle id="Ellipse_68-59" data-name="Ellipse 68" cx="1.5" cy="1.5" r="1.5" fill="#fff"/>
    </g>
    <g id="Group_674-60" data-name="Group 674" transform="translate(40 50)">
      <circle id="Ellipse_68-60" data-name="Ellipse 68" cx="1.5" cy="1.5" r="1.5" fill="#fff"/>
    </g>
    <g id="Group_674-61" data-name="Group 674" transform="translate(50 50)">
      <circle id="Ellipse_68-61" data-name="Ellipse 68" cx="1.5" cy="1.5" r="1.5" fill="#fff"/>
    </g>
    <g id="Group_674-62" data-name="Group 674" transform="translate(60 50)">
      <circle id="Ellipse_68-62" data-name="Ellipse 68" cx="1.5" cy="1.5" r="1.5" fill="#fff"/>
    </g>
    <g id="Group_674-63" data-name="Group 674" transform="translate(70 50)">
      <circle id="Ellipse_68-63" data-name="Ellipse 68" cx="1.5" cy="1.5" r="1.5" fill="#fff"/>
    </g>
    <g id="Group_674-64" data-name="Group 674" transform="translate(80 50)">
      <circle id="Ellipse_68-64" data-name="Ellipse 68" cx="1.5" cy="1.5" r="1.5" fill="#fff"/>
    </g>
    <g id="Group_674-65" data-name="Group 674" transform="translate(90 50)">
      <circle id="Ellipse_68-65" data-name="Ellipse 68" cx="1.5" cy="1.5" r="1.5" fill="#fff"/>
    </g>
    <g id="Group_674-66" data-name="Group 674" transform="translate(100 50)">
      <circle id="Ellipse_68-66" data-name="Ellipse 68" cx="1.5" cy="1.5" r="1.5" fill="#fff"/>
    </g>
    <g id="Group_674-67" data-name="Group 674" transform="translate(0 60)">
      <circle id="Ellipse_68-67" data-name="Ellipse 68" cx="1.5" cy="1.5" r="1.5" fill="#fff"/>
    </g>
    <g id="Group_674-68" data-name="Group 674" transform="translate(10 60)">
      <circle id="Ellipse_68-68" data-name="Ellipse 68" cx="1.5" cy="1.5" r="1.5" fill="#fff"/>
    </g>
    <g id="Group_674-69" data-name="Group 674" transform="translate(20 60)">
      <circle id="Ellipse_68-69" data-name="Ellipse 68" cx="1.5" cy="1.5" r="1.5" fill="#fff"/>
    </g>
    <g id="Group_674-70" data-name="Group 674" transform="translate(30 60)">
      <circle id="Ellipse_68-70" data-name="Ellipse 68" cx="1.5" cy="1.5" r="1.5" fill="#fff"/>
    </g>
    <g id="Group_674-71" data-name="Group 674" transform="translate(40 60)">
      <circle id="Ellipse_68-71" data-name="Ellipse 68" cx="1.5" cy="1.5" r="1.5" fill="#fff"/>
    </g>
    <g id="Group_674-72" data-name="Group 674" transform="translate(50 60)">
      <circle id="Ellipse_68-72" data-name="Ellipse 68" cx="1.5" cy="1.5" r="1.5" fill="#fff"/>
    </g>
    <g id="Group_674-73" data-name="Group 674" transform="translate(60 60)">
      <circle id="Ellipse_68-73" data-name="Ellipse 68" cx="1.5" cy="1.5" r="1.5" fill="#fff"/>
    </g>
    <g id="Group_674-74" data-name="Group 674" transform="translate(70 60)">
      <circle id="Ellipse_68-74" data-name="Ellipse 68" cx="1.5" cy="1.5" r="1.5" fill="#fff"/>
    </g>
    <g id="Group_674-75" data-name="Group 674" transform="translate(80 60)">
      <circle id="Ellipse_68-75" data-name="Ellipse 68" cx="1.5" cy="1.5" r="1.5" fill="#fff"/>
    </g>
    <g id="Group_674-76" data-name="Group 674" transform="translate(90 60)">
      <circle id="Ellipse_68-76" data-name="Ellipse 68" cx="1.5" cy="1.5" r="1.5" fill="#fff"/>
    </g>
    <g id="Group_674-77" data-name="Group 674" transform="translate(100 60)">
      <circle id="Ellipse_68-77" data-name="Ellipse 68" cx="1.5" cy="1.5" r="1.5" fill="#fff"/>
    </g>
    <g id="Group_674-78" data-name="Group 674" transform="translate(0 70)">
      <circle id="Ellipse_68-78" data-name="Ellipse 68" cx="1.5" cy="1.5" r="1.5" fill="#fff"/>
    </g>
    <g id="Group_674-79" data-name="Group 674" transform="translate(10 70)">
      <circle id="Ellipse_68-79" data-name="Ellipse 68" cx="1.5" cy="1.5" r="1.5" fill="#fff"/>
    </g>
    <g id="Group_674-80" data-name="Group 674" transform="translate(20 70)">
      <circle id="Ellipse_68-80" data-name="Ellipse 68" cx="1.5" cy="1.5" r="1.5" fill="#fff"/>
    </g>
    <g id="Group_674-81" data-name="Group 674" transform="translate(30 70)">
      <circle id="Ellipse_68-81" data-name="Ellipse 68" cx="1.5" cy="1.5" r="1.5" fill="#fff"/>
    </g>
    <g id="Group_674-82" data-name="Group 674" transform="translate(40 70)">
      <circle id="Ellipse_68-82" data-name="Ellipse 68" cx="1.5" cy="1.5" r="1.5" fill="#fff"/>
    </g>
    <g id="Group_674-83" data-name="Group 674" transform="translate(50 70)">
      <circle id="Ellipse_68-83" data-name="Ellipse 68" cx="1.5" cy="1.5" r="1.5" fill="#fff"/>
    </g>
    <g id="Group_674-84" data-name="Group 674" transform="translate(60 70)">
      <circle id="Ellipse_68-84" data-name="Ellipse 68" cx="1.5" cy="1.5" r="1.5" fill="#fff"/>
    </g>
    <g id="Group_674-85" data-name="Group 674" transform="translate(70 70)">
      <circle id="Ellipse_68-85" data-name="Ellipse 68" cx="1.5" cy="1.5" r="1.5" fill="#fff"/>
    </g>
    <g id="Group_674-86" data-name="Group 674" transform="translate(80 70)">
      <circle id="Ellipse_68-86" data-name="Ellipse 68" cx="1.5" cy="1.5" r="1.5" fill="#fff"/>
    </g>
    <g id="Group_674-87" data-name="Group 674" transform="translate(90 70)">
      <circle id="Ellipse_68-87" data-name="Ellipse 68" cx="1.5" cy="1.5" r="1.5" fill="#fff"/>
    </g>
    <g id="Group_674-88" data-name="Group 674" transform="translate(100 70)">
      <circle id="Ellipse_68-88" data-name="Ellipse 68" cx="1.5" cy="1.5" r="1.5" fill="#fff"/>
    </g>
    <g id="Group_674-89" data-name="Group 674" transform="translate(0 80)">
      <circle id="Ellipse_68-89" data-name="Ellipse 68" cx="1.5" cy="1.5" r="1.5" fill="#fff"/>
    </g>
    <g id="Group_674-90" data-name="Group 674" transform="translate(10 80)">
      <circle id="Ellipse_68-90" data-name="Ellipse 68" cx="1.5" cy="1.5" r="1.5" fill="#fff"/>
    </g>
    <g id="Group_674-91" data-name="Group 674" transform="translate(20 80)">
      <circle id="Ellipse_68-91" data-name="Ellipse 68" cx="1.5" cy="1.5" r="1.5" fill="#fff"/>
    </g>
    <g id="Group_674-92" data-name="Group 674" transform="translate(30 80)">
      <circle id="Ellipse_68-92" data-name="Ellipse 68" cx="1.5" cy="1.5" r="1.5" fill="#fff"/>
    </g>
    <g id="Group_674-93" data-name="Group 674" transform="translate(40 80)">
      <circle id="Ellipse_68-93" data-name="Ellipse 68" cx="1.5" cy="1.5" r="1.5" fill="#fff"/>
    </g>
    <g id="Group_674-94" data-name="Group 674" transform="translate(50 80)">
      <circle id="Ellipse_68-94" data-name="Ellipse 68" cx="1.5" cy="1.5" r="1.5" fill="#fff"/>
    </g>
    <g id="Group_674-95" data-name="Group 674" transform="translate(60 80)">
      <circle id="Ellipse_68-95" data-name="Ellipse 68" cx="1.5" cy="1.5" r="1.5" fill="#fff"/>
    </g>
    <g id="Group_674-96" data-name="Group 674" transform="translate(70 80)">
      <circle id="Ellipse_68-96" data-name="Ellipse 68" cx="1.5" cy="1.5" r="1.5" fill="#fff"/>
    </g>
    <g id="Group_674-97" data-name="Group 674" transform="translate(80 80)">
      <circle id="Ellipse_68-97" data-name="Ellipse 68" cx="1.5" cy="1.5" r="1.5" fill="#fff"/>
    </g>
    <g id="Group_674-98" data-name="Group 674" transform="translate(90 80)">
      <circle id="Ellipse_68-98" data-name="Ellipse 68" cx="1.5" cy="1.5" r="1.5" fill="#fff"/>
    </g>
    <g id="Group_674-99" data-name="Group 674" transform="translate(100 80)">
      <circle id="Ellipse_68-99" data-name="Ellipse 68" cx="1.5" cy="1.5" r="1.5" fill="#fff"/>
    </g>
    <g id="Group_674-100" data-name="Group 674" transform="translate(0 90)">
      <circle id="Ellipse_68-100" data-name="Ellipse 68" cx="1.5" cy="1.5" r="1.5" fill="#fff"/>
    </g>
    <g id="Group_674-101" data-name="Group 674" transform="translate(10 90)">
      <circle id="Ellipse_68-101" data-name="Ellipse 68" cx="1.5" cy="1.5" r="1.5" fill="#fff"/>
    </g>
    <g id="Group_674-102" data-name="Group 674" transform="translate(20 90)">
      <circle id="Ellipse_68-102" data-name="Ellipse 68" cx="1.5" cy="1.5" r="1.5" fill="#fff"/>
    </g>
    <g id="Group_674-103" data-name="Group 674" transform="translate(30 90)">
      <circle id="Ellipse_68-103" data-name="Ellipse 68" cx="1.5" cy="1.5" r="1.5" fill="#fff"/>
    </g>
    <g id="Group_674-104" data-name="Group 674" transform="translate(40 90)">
      <circle id="Ellipse_68-104" data-name="Ellipse 68" cx="1.5" cy="1.5" r="1.5" fill="#fff"/>
    </g>
    <g id="Group_674-105" data-name="Group 674" transform="translate(50 90)">
      <circle id="Ellipse_68-105" data-name="Ellipse 68" cx="1.5" cy="1.5" r="1.5" fill="#fff"/>
    </g>
    <g id="Group_674-106" data-name="Group 674" transform="translate(60 90)">
      <circle id="Ellipse_68-106" data-name="Ellipse 68" cx="1.5" cy="1.5" r="1.5" fill="#fff"/>
    </g>
    <g id="Group_674-107" data-name="Group 674" transform="translate(70 90)">
      <circle id="Ellipse_68-107" data-name="Ellipse 68" cx="1.5" cy="1.5" r="1.5" fill="#fff"/>
    </g>
    <g id="Group_674-108" data-name="Group 674" transform="translate(80 90)">
      <circle id="Ellipse_68-108" data-name="Ellipse 68" cx="1.5" cy="1.5" r="1.5" fill="#fff"/>
    </g>
    <g id="Group_674-109" data-name="Group 674" transform="translate(90 90)">
      <circle id="Ellipse_68-109" data-name="Ellipse 68" cx="1.5" cy="1.5" r="1.5" fill="#fff"/>
    </g>
    <g id="Group_674-110" data-name="Group 674" transform="translate(100 90)">
      <circle id="Ellipse_68-110" data-name="Ellipse 68" cx="1.5" cy="1.5" r="1.5" fill="#fff"/>
    </g>
    <g id="Group_674-111" data-name="Group 674" transform="translate(0 100)">
      <circle id="Ellipse_68-111" data-name="Ellipse 68" cx="1.5" cy="1.5" r="1.5" fill="#fff"/>
    </g>
    <g id="Group_674-112" data-name="Group 674" transform="translate(10 100)">
      <circle id="Ellipse_68-112" data-name="Ellipse 68" cx="1.5" cy="1.5" r="1.5" fill="#fff"/>
    </g>
    <g id="Group_674-113" data-name="Group 674" transform="translate(20 100)">
      <circle id="Ellipse_68-113" data-name="Ellipse 68" cx="1.5" cy="1.5" r="1.5" fill="#fff"/>
    </g>
    <g id="Group_674-114" data-name="Group 674" transform="translate(30 100)">
      <circle id="Ellipse_68-114" data-name="Ellipse 68" cx="1.5" cy="1.5" r="1.5" fill="#fff"/>
    </g>
    <g id="Group_674-115" data-name="Group 674" transform="translate(40 100)">
      <circle id="Ellipse_68-115" data-name="Ellipse 68" cx="1.5" cy="1.5" r="1.5" fill="#fff"/>
    </g>
    <g id="Group_674-116" data-name="Group 674" transform="translate(50 100)">
      <circle id="Ellipse_68-116" data-name="Ellipse 68" cx="1.5" cy="1.5" r="1.5" fill="#fff"/>
    </g>
    <g id="Group_674-117" data-name="Group 674" transform="translate(60 100)">
      <circle id="Ellipse_68-117" data-name="Ellipse 68" cx="1.5" cy="1.5" r="1.5" fill="#fff"/>
    </g>
    <g id="Group_674-118" data-name="Group 674" transform="translate(70 100)">
      <circle id="Ellipse_68-118" data-name="Ellipse 68" cx="1.5" cy="1.5" r="1.5" fill="#fff"/>
    </g>
    <g id="Group_674-119" data-name="Group 674" transform="translate(80 100)">
      <circle id="Ellipse_68-119" data-name="Ellipse 68" cx="1.5" cy="1.5" r="1.5" fill="#fff"/>
    </g>
    <g id="Group_674-120" data-name="Group 674" transform="translate(90 100)">
      <circle id="Ellipse_68-120" data-name="Ellipse 68" cx="1.5" cy="1.5" r="1.5" fill="#fff"/>
    </g>
    <g id="Group_674-121" data-name="Group 674" transform="translate(100 100)">
      <circle id="Ellipse_68-121" data-name="Ellipse 68" cx="1.5" cy="1.5" r="1.5" fill="#fff"/>
    </g>
    <g id="Group_674-122" data-name="Group 674" transform="translate(0 110)">
      <circle id="Ellipse_68-122" data-name="Ellipse 68" cx="1.5" cy="1.5" r="1.5" fill="#fff"/>
    </g>
    <g id="Group_674-123" data-name="Group 674" transform="translate(10 110)">
      <circle id="Ellipse_68-123" data-name="Ellipse 68" cx="1.5" cy="1.5" r="1.5" fill="#fff"/>
    </g>
    <g id="Group_674-124" data-name="Group 674" transform="translate(20 110)">
      <circle id="Ellipse_68-124" data-name="Ellipse 68" cx="1.5" cy="1.5" r="1.5" fill="#fff"/>
    </g>
    <g id="Group_674-125" data-name="Group 674" transform="translate(30 110)">
      <circle id="Ellipse_68-125" data-name="Ellipse 68" cx="1.5" cy="1.5" r="1.5" fill="#fff"/>
    </g>
    <g id="Group_674-126" data-name="Group 674" transform="translate(40 110)">
      <circle id="Ellipse_68-126" data-name="Ellipse 68" cx="1.5" cy="1.5" r="1.5" fill="#fff"/>
    </g>
    <g id="Group_674-127" data-name="Group 674" transform="translate(50 110)">
      <circle id="Ellipse_68-127" data-name="Ellipse 68" cx="1.5" cy="1.5" r="1.5" fill="#fff"/>
    </g>
    <g id="Group_674-128" data-name="Group 674" transform="translate(60 110)">
      <circle id="Ellipse_68-128" data-name="Ellipse 68" cx="1.5" cy="1.5" r="1.5" fill="#fff"/>
    </g>
    <g id="Group_674-129" data-name="Group 674" transform="translate(70 110)">
      <circle id="Ellipse_68-129" data-name="Ellipse 68" cx="1.5" cy="1.5" r="1.5" fill="#fff"/>
    </g>
    <g id="Group_674-130" data-name="Group 674" transform="translate(80 110)">
      <circle id="Ellipse_68-130" data-name="Ellipse 68" cx="1.5" cy="1.5" r="1.5" fill="#fff"/>
    </g>
    <g id="Group_674-131" data-name="Group 674" transform="translate(90 110)">
      <circle id="Ellipse_68-131" data-name="Ellipse 68" cx="1.5" cy="1.5" r="1.5" fill="#fff"/>
    </g>
    <g id="Group_674-132" data-name="Group 674" transform="translate(100 110)">
      <circle id="Ellipse_68-132" data-name="Ellipse 68" cx="1.5" cy="1.5" r="1.5" fill="#fff"/>
    </g>
    <g id="Group_674-133" data-name="Group 674" transform="translate(0 120)">
      <circle id="Ellipse_68-133" data-name="Ellipse 68" cx="1.5" cy="1.5" r="1.5" fill="#fff"/>
    </g>
    <g id="Group_674-134" data-name="Group 674" transform="translate(10 120)">
      <circle id="Ellipse_68-134" data-name="Ellipse 68" cx="1.5" cy="1.5" r="1.5" fill="#fff"/>
    </g>
    <g id="Group_674-135" data-name="Group 674" transform="translate(20 120)">
      <circle id="Ellipse_68-135" data-name="Ellipse 68" cx="1.5" cy="1.5" r="1.5" fill="#fff"/>
    </g>
    <g id="Group_674-136" data-name="Group 674" transform="translate(30 120)">
      <circle id="Ellipse_68-136" data-name="Ellipse 68" cx="1.5" cy="1.5" r="1.5" fill="#fff"/>
    </g>
    <g id="Group_674-137" data-name="Group 674" transform="translate(40 120)">
      <circle id="Ellipse_68-137" data-name="Ellipse 68" cx="1.5" cy="1.5" r="1.5" fill="#fff"/>
    </g>
    <g id="Group_674-138" data-name="Group 674" transform="translate(50 120)">
      <circle id="Ellipse_68-138" data-name="Ellipse 68" cx="1.5" cy="1.5" r="1.5" fill="#fff"/>
    </g>
    <g id="Group_674-139" data-name="Group 674" transform="translate(60 120)">
      <circle id="Ellipse_68-139" data-name="Ellipse 68" cx="1.5" cy="1.5" r="1.5" fill="#fff"/>
    </g>
    <g id="Group_674-140" data-name="Group 674" transform="translate(70 120)">
      <circle id="Ellipse_68-140" data-name="Ellipse 68" cx="1.5" cy="1.5" r="1.5" fill="#fff"/>
    </g>
    <g id="Group_674-141" data-name="Group 674" transform="translate(80 120)">
      <circle id="Ellipse_68-141" data-name="Ellipse 68" cx="1.5" cy="1.5" r="1.5" fill="#fff"/>
    </g>
    <g id="Group_674-142" data-name="Group 674" transform="translate(90 120)">
      <circle id="Ellipse_68-142" data-name="Ellipse 68" cx="1.5" cy="1.5" r="1.5" fill="#fff"/>
    </g>
    <g id="Group_674-143" data-name="Group 674" transform="translate(100 120)">
      <circle id="Ellipse_68-143" data-name="Ellipse 68" cx="1.5" cy="1.5" r="1.5" fill="#fff"/>
    </g>
  </g>
  <g id="Group_1111" data-name="Group 1111" transform="translate(-354.125 -227)">
    <path id="Path_1016" data-name="Path 1016" d="M42.426-1.685c23.431,0,44.677,22.5,44.677,45.931s-21.246,40.6-44.677,40.6S-2.765,65.934-2.765,42.5,18.995-1.685,42.426-1.685Z" transform="translate(365.275 314.445)" fill="#f9f6ea"/>
    <path id="Path_911" data-name="Path 911" d="M445.377,361.944c1.284,3.49,3.335,3.454,4.559-.079l8.643-24.964c1.574-4.112.467-5.717-2.808-7.417a31.1,31.1,0,0,0-8.436-1.872c-3.251-.046-6.314,1.28-8.364,2.06-3.476,1.324-4.118,3.66-2.835,7.149Z" transform="translate(-40.096 -11.419)" fill="#f9b30f"/>
    <path id="Path_912" data-name="Path 912" d="M419.464,372.632c3.375,1.56,4.8.084,3.167-3.279l-11.54-23.764c-1.794-4.021-3.712-4.374-7.23-3.259a31.1,31.1,0,0,0-7.289,4.642c-2.331,2.267-3.56,5.37-4.458,7.371-1.522,3.393-.324,5.5,3.051,7.06Z" transform="translate(-17.96 -18.538)" fill="#f9b30f"/>
    <path id="Path_913" data-name="Path 913" d="M414.5,400.175c3.665-1.283,3.627-3.335-.083-4.558L388.2,386.973c-4.319-1.574-6-.468-7.79,2.809,0,0-1.912,4.837-1.966,8.435-.048,3.252,1.345,6.315,2.164,8.365,1.39,3.475,3.843,4.118,7.508,2.834Z" transform="translate(-13.272 -40.886)" fill="#f9b30f"/>
    <path id="Path_914" data-name="Path 914" d="M423.461,417.928c1.561-3.375.085-4.8-3.279-3.167L396.418,426.3c-4.021,1.794-4.374,3.712-3.259,7.231a31.1,31.1,0,0,0,4.642,7.288c2.267,2.332,5.37,3.56,7.371,4.458,3.393,1.522,5.5.324,7.06-3.051Z" transform="translate(-18.537 -54.86)" fill="#f9b30f"/>
    <path id="Path_915" data-name="Path 915" d="M451,419.488c-1.284-3.49-3.335-3.454-4.559.079L437.8,444.53c-1.574,4.112-.467,5.717,2.809,7.417a31.07,31.07,0,0,0,8.436,1.872c3.251.046,6.314-1.28,8.364-2.06,3.476-1.323,4.118-3.66,2.835-7.149Z" transform="translate(-40.886 -56.272)" fill="#f9b30f"/>
    <path id="Path_916" data-name="Path 916" d="M468.758,414.307c-3.375-1.56-4.8-.085-3.167,3.279l11.54,23.764c1.794,4.021,3.712,4.374,7.231,3.259a31.08,31.08,0,0,0,7.288-4.642c2.332-2.267,3.56-5.37,4.458-7.371,1.523-3.393.324-5.5-3.051-7.06Z" transform="translate(-54.86 -54.66)" fill="#f9b30f"/>
    <path id="Path_917" data-name="Path 917" d="M470.318,394.547c-3.49,1.284-3.454,3.335.079,4.558l24.964,8.643c4.112,1.575,5.717.468,7.417-2.809a31.075,31.075,0,0,0,1.872-8.435c.046-3.251-1.28-6.315-2.06-8.365-1.324-3.476-3.66-4.118-7.149-2.835Z" transform="translate(-56.272 -40.096)" fill="#f9b30f"/>
    <path id="Path_918" data-name="Path 918" d="M465.136,368.633c-1.561,3.376-.085,4.8,3.279,3.168l23.764-11.541c4.021-1.794,4.374-3.712,3.259-7.231a31.08,31.08,0,0,0-4.641-7.288c-2.267-2.332-5.371-3.56-7.372-4.458-3.394-1.522-5.5-.324-7.06,3.05Z" transform="translate(-54.66 -17.96)" fill="#f9b30f"/>
  </g>
  <rect id="Rectangle_871" data-name="Rectangle 871" width="3" height="264" transform="translate(311)" fill="#fff" opacity="0"/>
</svg>
