<svg id="Component_55_1" data-name="Component 55 – 1" xmlns="http://www.w3.org/2000/svg" xmlns:xlink="http://www.w3.org/1999/xlink" width="330" height="264" viewBox="0 0 330 264">
  <defs>
    <clipPath id="clip-path">
      <rect width="77" height="123" fill="none"/>
    </clipPath>
  </defs>
  <path id="Intersection_13" data-name="Intersection 13" d="M-7827.794-4034l-15.839-155.264-4.951-68.64h25.576L-7798.1-4034Zm-86.79,0,29.536-264h58.243l2.806,26.07h-38.775l-5.445,82.993-5.939,56.6h27.061l-6.931,26.07h-22.77l-7.92,72.268Z" transform="translate(8013 4298)" fill="#fff" opacity="0.1"/>
  <g id="Repeat_Grid_55" data-name="Repeat Grid 55" transform="translate(0 73)" opacity="0.505" clip-path="url(#clip-path)">
    <g id="Group_674" data-name="Group 674">
      <circle id="Ellipse_68" data-name="Ellipse 68" cx="1.5" cy="1.5" r="1.5" fill="#fff"/>
    </g>
    <g id="Group_674-2" data-name="Group 674" transform="translate(10)">
      <circle id="Ellipse_68-2" data-name="Ellipse 68" cx="1.5" cy="1.5" r="1.5" fill="#fff"/>
    </g>
    <g id="Group_674-3" data-name="Group 674" transform="translate(20)">
      <circle id="Ellipse_68-3" data-name="Ellipse 68" cx="1.5" cy="1.5" r="1.5" fill="#fff"/>
    </g>
    <g id="Group_674-4" data-name="Group 674" transform="translate(30)">
      <circle id="Ellipse_68-4" data-name="Ellipse 68" cx="1.5" cy="1.5" r="1.5" fill="#fff"/>
    </g>
    <g id="Group_674-5" data-name="Group 674" transform="translate(40)">
      <circle id="Ellipse_68-5" data-name="Ellipse 68" cx="1.5" cy="1.5" r="1.5" fill="#fff"/>
    </g>
    <g id="Group_674-6" data-name="Group 674" transform="translate(50)">
      <circle id="Ellipse_68-6" data-name="Ellipse 68" cx="1.5" cy="1.5" r="1.5" fill="#fff"/>
    </g>
    <g id="Group_674-7" data-name="Group 674" transform="translate(60)">
      <circle id="Ellipse_68-7" data-name="Ellipse 68" cx="1.5" cy="1.5" r="1.5" fill="#fff"/>
    </g>
    <g id="Group_674-8" data-name="Group 674" transform="translate(70)">
      <circle id="Ellipse_68-8" data-name="Ellipse 68" cx="1.5" cy="1.5" r="1.5" fill="#fff"/>
    </g>
    <g id="Group_674-9" data-name="Group 674" transform="translate(0 10)">
      <circle id="Ellipse_68-9" data-name="Ellipse 68" cx="1.5" cy="1.5" r="1.5" fill="#fff"/>
    </g>
    <g id="Group_674-10" data-name="Group 674" transform="translate(10 10)">
      <circle id="Ellipse_68-10" data-name="Ellipse 68" cx="1.5" cy="1.5" r="1.5" fill="#fff"/>
    </g>
    <g id="Group_674-11" data-name="Group 674" transform="translate(20 10)">
      <circle id="Ellipse_68-11" data-name="Ellipse 68" cx="1.5" cy="1.5" r="1.5" fill="#fff"/>
    </g>
    <g id="Group_674-12" data-name="Group 674" transform="translate(30 10)">
      <circle id="Ellipse_68-12" data-name="Ellipse 68" cx="1.5" cy="1.5" r="1.5" fill="#fff"/>
    </g>
    <g id="Group_674-13" data-name="Group 674" transform="translate(40 10)">
      <circle id="Ellipse_68-13" data-name="Ellipse 68" cx="1.5" cy="1.5" r="1.5" fill="#fff"/>
    </g>
    <g id="Group_674-14" data-name="Group 674" transform="translate(50 10)">
      <circle id="Ellipse_68-14" data-name="Ellipse 68" cx="1.5" cy="1.5" r="1.5" fill="#fff"/>
    </g>
    <g id="Group_674-15" data-name="Group 674" transform="translate(60 10)">
      <circle id="Ellipse_68-15" data-name="Ellipse 68" cx="1.5" cy="1.5" r="1.5" fill="#fff"/>
    </g>
    <g id="Group_674-16" data-name="Group 674" transform="translate(70 10)">
      <circle id="Ellipse_68-16" data-name="Ellipse 68" cx="1.5" cy="1.5" r="1.5" fill="#fff"/>
    </g>
    <g id="Group_674-17" data-name="Group 674" transform="translate(0 20)">
      <circle id="Ellipse_68-17" data-name="Ellipse 68" cx="1.5" cy="1.5" r="1.5" fill="#fff"/>
    </g>
    <g id="Group_674-18" data-name="Group 674" transform="translate(10 20)">
      <circle id="Ellipse_68-18" data-name="Ellipse 68" cx="1.5" cy="1.5" r="1.5" fill="#fff"/>
    </g>
    <g id="Group_674-19" data-name="Group 674" transform="translate(20 20)">
      <circle id="Ellipse_68-19" data-name="Ellipse 68" cx="1.5" cy="1.5" r="1.5" fill="#fff"/>
    </g>
    <g id="Group_674-20" data-name="Group 674" transform="translate(30 20)">
      <circle id="Ellipse_68-20" data-name="Ellipse 68" cx="1.5" cy="1.5" r="1.5" fill="#fff"/>
    </g>
    <g id="Group_674-21" data-name="Group 674" transform="translate(40 20)">
      <circle id="Ellipse_68-21" data-name="Ellipse 68" cx="1.5" cy="1.5" r="1.5" fill="#fff"/>
    </g>
    <g id="Group_674-22" data-name="Group 674" transform="translate(50 20)">
      <circle id="Ellipse_68-22" data-name="Ellipse 68" cx="1.5" cy="1.5" r="1.5" fill="#fff"/>
    </g>
    <g id="Group_674-23" data-name="Group 674" transform="translate(60 20)">
      <circle id="Ellipse_68-23" data-name="Ellipse 68" cx="1.5" cy="1.5" r="1.5" fill="#fff"/>
    </g>
    <g id="Group_674-24" data-name="Group 674" transform="translate(70 20)">
      <circle id="Ellipse_68-24" data-name="Ellipse 68" cx="1.5" cy="1.5" r="1.5" fill="#fff"/>
    </g>
    <g id="Group_674-25" data-name="Group 674" transform="translate(0 30)">
      <circle id="Ellipse_68-25" data-name="Ellipse 68" cx="1.5" cy="1.5" r="1.5" fill="#fff"/>
    </g>
    <g id="Group_674-26" data-name="Group 674" transform="translate(10 30)">
      <circle id="Ellipse_68-26" data-name="Ellipse 68" cx="1.5" cy="1.5" r="1.5" fill="#fff"/>
    </g>
    <g id="Group_674-27" data-name="Group 674" transform="translate(20 30)">
      <circle id="Ellipse_68-27" data-name="Ellipse 68" cx="1.5" cy="1.5" r="1.5" fill="#fff"/>
    </g>
    <g id="Group_674-28" data-name="Group 674" transform="translate(30 30)">
      <circle id="Ellipse_68-28" data-name="Ellipse 68" cx="1.5" cy="1.5" r="1.5" fill="#fff"/>
    </g>
    <g id="Group_674-29" data-name="Group 674" transform="translate(40 30)">
      <circle id="Ellipse_68-29" data-name="Ellipse 68" cx="1.5" cy="1.5" r="1.5" fill="#fff"/>
    </g>
    <g id="Group_674-30" data-name="Group 674" transform="translate(50 30)">
      <circle id="Ellipse_68-30" data-name="Ellipse 68" cx="1.5" cy="1.5" r="1.5" fill="#fff"/>
    </g>
    <g id="Group_674-31" data-name="Group 674" transform="translate(60 30)">
      <circle id="Ellipse_68-31" data-name="Ellipse 68" cx="1.5" cy="1.5" r="1.5" fill="#fff"/>
    </g>
    <g id="Group_674-32" data-name="Group 674" transform="translate(70 30)">
      <circle id="Ellipse_68-32" data-name="Ellipse 68" cx="1.5" cy="1.5" r="1.5" fill="#fff"/>
    </g>
    <g id="Group_674-33" data-name="Group 674" transform="translate(0 40)">
      <circle id="Ellipse_68-33" data-name="Ellipse 68" cx="1.5" cy="1.5" r="1.5" fill="#fff"/>
    </g>
    <g id="Group_674-34" data-name="Group 674" transform="translate(10 40)">
      <circle id="Ellipse_68-34" data-name="Ellipse 68" cx="1.5" cy="1.5" r="1.5" fill="#fff"/>
    </g>
    <g id="Group_674-35" data-name="Group 674" transform="translate(20 40)">
      <circle id="Ellipse_68-35" data-name="Ellipse 68" cx="1.5" cy="1.5" r="1.5" fill="#fff"/>
    </g>
    <g id="Group_674-36" data-name="Group 674" transform="translate(30 40)">
      <circle id="Ellipse_68-36" data-name="Ellipse 68" cx="1.5" cy="1.5" r="1.5" fill="#fff"/>
    </g>
    <g id="Group_674-37" data-name="Group 674" transform="translate(40 40)">
      <circle id="Ellipse_68-37" data-name="Ellipse 68" cx="1.5" cy="1.5" r="1.5" fill="#fff"/>
    </g>
    <g id="Group_674-38" data-name="Group 674" transform="translate(50 40)">
      <circle id="Ellipse_68-38" data-name="Ellipse 68" cx="1.5" cy="1.5" r="1.5" fill="#fff"/>
    </g>
    <g id="Group_674-39" data-name="Group 674" transform="translate(60 40)">
      <circle id="Ellipse_68-39" data-name="Ellipse 68" cx="1.5" cy="1.5" r="1.5" fill="#fff"/>
    </g>
    <g id="Group_674-40" data-name="Group 674" transform="translate(70 40)">
      <circle id="Ellipse_68-40" data-name="Ellipse 68" cx="1.5" cy="1.5" r="1.5" fill="#fff"/>
    </g>
    <g id="Group_674-41" data-name="Group 674" transform="translate(0 50)">
      <circle id="Ellipse_68-41" data-name="Ellipse 68" cx="1.5" cy="1.5" r="1.5" fill="#fff"/>
    </g>
    <g id="Group_674-42" data-name="Group 674" transform="translate(10 50)">
      <circle id="Ellipse_68-42" data-name="Ellipse 68" cx="1.5" cy="1.5" r="1.5" fill="#fff"/>
    </g>
    <g id="Group_674-43" data-name="Group 674" transform="translate(20 50)">
      <circle id="Ellipse_68-43" data-name="Ellipse 68" cx="1.5" cy="1.5" r="1.5" fill="#fff"/>
    </g>
    <g id="Group_674-44" data-name="Group 674" transform="translate(30 50)">
      <circle id="Ellipse_68-44" data-name="Ellipse 68" cx="1.5" cy="1.5" r="1.5" fill="#fff"/>
    </g>
    <g id="Group_674-45" data-name="Group 674" transform="translate(40 50)">
      <circle id="Ellipse_68-45" data-name="Ellipse 68" cx="1.5" cy="1.5" r="1.5" fill="#fff"/>
    </g>
    <g id="Group_674-46" data-name="Group 674" transform="translate(50 50)">
      <circle id="Ellipse_68-46" data-name="Ellipse 68" cx="1.5" cy="1.5" r="1.5" fill="#fff"/>
    </g>
    <g id="Group_674-47" data-name="Group 674" transform="translate(60 50)">
      <circle id="Ellipse_68-47" data-name="Ellipse 68" cx="1.5" cy="1.5" r="1.5" fill="#fff"/>
    </g>
    <g id="Group_674-48" data-name="Group 674" transform="translate(70 50)">
      <circle id="Ellipse_68-48" data-name="Ellipse 68" cx="1.5" cy="1.5" r="1.5" fill="#fff"/>
    </g>
    <g id="Group_674-49" data-name="Group 674" transform="translate(0 60)">
      <circle id="Ellipse_68-49" data-name="Ellipse 68" cx="1.5" cy="1.5" r="1.5" fill="#fff"/>
    </g>
    <g id="Group_674-50" data-name="Group 674" transform="translate(10 60)">
      <circle id="Ellipse_68-50" data-name="Ellipse 68" cx="1.5" cy="1.5" r="1.5" fill="#fff"/>
    </g>
    <g id="Group_674-51" data-name="Group 674" transform="translate(20 60)">
      <circle id="Ellipse_68-51" data-name="Ellipse 68" cx="1.5" cy="1.5" r="1.5" fill="#fff"/>
    </g>
    <g id="Group_674-52" data-name="Group 674" transform="translate(30 60)">
      <circle id="Ellipse_68-52" data-name="Ellipse 68" cx="1.5" cy="1.5" r="1.5" fill="#fff"/>
    </g>
    <g id="Group_674-53" data-name="Group 674" transform="translate(40 60)">
      <circle id="Ellipse_68-53" data-name="Ellipse 68" cx="1.5" cy="1.5" r="1.5" fill="#fff"/>
    </g>
    <g id="Group_674-54" data-name="Group 674" transform="translate(50 60)">
      <circle id="Ellipse_68-54" data-name="Ellipse 68" cx="1.5" cy="1.5" r="1.5" fill="#fff"/>
    </g>
    <g id="Group_674-55" data-name="Group 674" transform="translate(60 60)">
      <circle id="Ellipse_68-55" data-name="Ellipse 68" cx="1.5" cy="1.5" r="1.5" fill="#fff"/>
    </g>
    <g id="Group_674-56" data-name="Group 674" transform="translate(70 60)">
      <circle id="Ellipse_68-56" data-name="Ellipse 68" cx="1.5" cy="1.5" r="1.5" fill="#fff"/>
    </g>
    <g id="Group_674-57" data-name="Group 674" transform="translate(0 70)">
      <circle id="Ellipse_68-57" data-name="Ellipse 68" cx="1.5" cy="1.5" r="1.5" fill="#fff"/>
    </g>
    <g id="Group_674-58" data-name="Group 674" transform="translate(10 70)">
      <circle id="Ellipse_68-58" data-name="Ellipse 68" cx="1.5" cy="1.5" r="1.5" fill="#fff"/>
    </g>
    <g id="Group_674-59" data-name="Group 674" transform="translate(20 70)">
      <circle id="Ellipse_68-59" data-name="Ellipse 68" cx="1.5" cy="1.5" r="1.5" fill="#fff"/>
    </g>
    <g id="Group_674-60" data-name="Group 674" transform="translate(30 70)">
      <circle id="Ellipse_68-60" data-name="Ellipse 68" cx="1.5" cy="1.5" r="1.5" fill="#fff"/>
    </g>
    <g id="Group_674-61" data-name="Group 674" transform="translate(40 70)">
      <circle id="Ellipse_68-61" data-name="Ellipse 68" cx="1.5" cy="1.5" r="1.5" fill="#fff"/>
    </g>
    <g id="Group_674-62" data-name="Group 674" transform="translate(50 70)">
      <circle id="Ellipse_68-62" data-name="Ellipse 68" cx="1.5" cy="1.5" r="1.5" fill="#fff"/>
    </g>
    <g id="Group_674-63" data-name="Group 674" transform="translate(60 70)">
      <circle id="Ellipse_68-63" data-name="Ellipse 68" cx="1.5" cy="1.5" r="1.5" fill="#fff"/>
    </g>
    <g id="Group_674-64" data-name="Group 674" transform="translate(70 70)">
      <circle id="Ellipse_68-64" data-name="Ellipse 68" cx="1.5" cy="1.5" r="1.5" fill="#fff"/>
    </g>
    <g id="Group_674-65" data-name="Group 674" transform="translate(0 80)">
      <circle id="Ellipse_68-65" data-name="Ellipse 68" cx="1.5" cy="1.5" r="1.5" fill="#fff"/>
    </g>
    <g id="Group_674-66" data-name="Group 674" transform="translate(10 80)">
      <circle id="Ellipse_68-66" data-name="Ellipse 68" cx="1.5" cy="1.5" r="1.5" fill="#fff"/>
    </g>
    <g id="Group_674-67" data-name="Group 674" transform="translate(20 80)">
      <circle id="Ellipse_68-67" data-name="Ellipse 68" cx="1.5" cy="1.5" r="1.5" fill="#fff"/>
    </g>
    <g id="Group_674-68" data-name="Group 674" transform="translate(30 80)">
      <circle id="Ellipse_68-68" data-name="Ellipse 68" cx="1.5" cy="1.5" r="1.5" fill="#fff"/>
    </g>
    <g id="Group_674-69" data-name="Group 674" transform="translate(40 80)">
      <circle id="Ellipse_68-69" data-name="Ellipse 68" cx="1.5" cy="1.5" r="1.5" fill="#fff"/>
    </g>
    <g id="Group_674-70" data-name="Group 674" transform="translate(50 80)">
      <circle id="Ellipse_68-70" data-name="Ellipse 68" cx="1.5" cy="1.5" r="1.5" fill="#fff"/>
    </g>
    <g id="Group_674-71" data-name="Group 674" transform="translate(60 80)">
      <circle id="Ellipse_68-71" data-name="Ellipse 68" cx="1.5" cy="1.5" r="1.5" fill="#fff"/>
    </g>
    <g id="Group_674-72" data-name="Group 674" transform="translate(70 80)">
      <circle id="Ellipse_68-72" data-name="Ellipse 68" cx="1.5" cy="1.5" r="1.5" fill="#fff"/>
    </g>
    <g id="Group_674-73" data-name="Group 674" transform="translate(0 90)">
      <circle id="Ellipse_68-73" data-name="Ellipse 68" cx="1.5" cy="1.5" r="1.5" fill="#fff"/>
    </g>
    <g id="Group_674-74" data-name="Group 674" transform="translate(10 90)">
      <circle id="Ellipse_68-74" data-name="Ellipse 68" cx="1.5" cy="1.5" r="1.5" fill="#fff"/>
    </g>
    <g id="Group_674-75" data-name="Group 674" transform="translate(20 90)">
      <circle id="Ellipse_68-75" data-name="Ellipse 68" cx="1.5" cy="1.5" r="1.5" fill="#fff"/>
    </g>
    <g id="Group_674-76" data-name="Group 674" transform="translate(30 90)">
      <circle id="Ellipse_68-76" data-name="Ellipse 68" cx="1.5" cy="1.5" r="1.5" fill="#fff"/>
    </g>
    <g id="Group_674-77" data-name="Group 674" transform="translate(40 90)">
      <circle id="Ellipse_68-77" data-name="Ellipse 68" cx="1.5" cy="1.5" r="1.5" fill="#fff"/>
    </g>
    <g id="Group_674-78" data-name="Group 674" transform="translate(50 90)">
      <circle id="Ellipse_68-78" data-name="Ellipse 68" cx="1.5" cy="1.5" r="1.5" fill="#fff"/>
    </g>
    <g id="Group_674-79" data-name="Group 674" transform="translate(60 90)">
      <circle id="Ellipse_68-79" data-name="Ellipse 68" cx="1.5" cy="1.5" r="1.5" fill="#fff"/>
    </g>
    <g id="Group_674-80" data-name="Group 674" transform="translate(70 90)">
      <circle id="Ellipse_68-80" data-name="Ellipse 68" cx="1.5" cy="1.5" r="1.5" fill="#fff"/>
    </g>
    <g id="Group_674-81" data-name="Group 674" transform="translate(0 100)">
      <circle id="Ellipse_68-81" data-name="Ellipse 68" cx="1.5" cy="1.5" r="1.5" fill="#fff"/>
    </g>
    <g id="Group_674-82" data-name="Group 674" transform="translate(10 100)">
      <circle id="Ellipse_68-82" data-name="Ellipse 68" cx="1.5" cy="1.5" r="1.5" fill="#fff"/>
    </g>
    <g id="Group_674-83" data-name="Group 674" transform="translate(20 100)">
      <circle id="Ellipse_68-83" data-name="Ellipse 68" cx="1.5" cy="1.5" r="1.5" fill="#fff"/>
    </g>
    <g id="Group_674-84" data-name="Group 674" transform="translate(30 100)">
      <circle id="Ellipse_68-84" data-name="Ellipse 68" cx="1.5" cy="1.5" r="1.5" fill="#fff"/>
    </g>
    <g id="Group_674-85" data-name="Group 674" transform="translate(40 100)">
      <circle id="Ellipse_68-85" data-name="Ellipse 68" cx="1.5" cy="1.5" r="1.5" fill="#fff"/>
    </g>
    <g id="Group_674-86" data-name="Group 674" transform="translate(50 100)">
      <circle id="Ellipse_68-86" data-name="Ellipse 68" cx="1.5" cy="1.5" r="1.5" fill="#fff"/>
    </g>
    <g id="Group_674-87" data-name="Group 674" transform="translate(60 100)">
      <circle id="Ellipse_68-87" data-name="Ellipse 68" cx="1.5" cy="1.5" r="1.5" fill="#fff"/>
    </g>
    <g id="Group_674-88" data-name="Group 674" transform="translate(70 100)">
      <circle id="Ellipse_68-88" data-name="Ellipse 68" cx="1.5" cy="1.5" r="1.5" fill="#fff"/>
    </g>
    <g id="Group_674-89" data-name="Group 674" transform="translate(0 110)">
      <circle id="Ellipse_68-89" data-name="Ellipse 68" cx="1.5" cy="1.5" r="1.5" fill="#fff"/>
    </g>
    <g id="Group_674-90" data-name="Group 674" transform="translate(10 110)">
      <circle id="Ellipse_68-90" data-name="Ellipse 68" cx="1.5" cy="1.5" r="1.5" fill="#fff"/>
    </g>
    <g id="Group_674-91" data-name="Group 674" transform="translate(20 110)">
      <circle id="Ellipse_68-91" data-name="Ellipse 68" cx="1.5" cy="1.5" r="1.5" fill="#fff"/>
    </g>
    <g id="Group_674-92" data-name="Group 674" transform="translate(30 110)">
      <circle id="Ellipse_68-92" data-name="Ellipse 68" cx="1.5" cy="1.5" r="1.5" fill="#fff"/>
    </g>
    <g id="Group_674-93" data-name="Group 674" transform="translate(40 110)">
      <circle id="Ellipse_68-93" data-name="Ellipse 68" cx="1.5" cy="1.5" r="1.5" fill="#fff"/>
    </g>
    <g id="Group_674-94" data-name="Group 674" transform="translate(50 110)">
      <circle id="Ellipse_68-94" data-name="Ellipse 68" cx="1.5" cy="1.5" r="1.5" fill="#fff"/>
    </g>
    <g id="Group_674-95" data-name="Group 674" transform="translate(60 110)">
      <circle id="Ellipse_68-95" data-name="Ellipse 68" cx="1.5" cy="1.5" r="1.5" fill="#fff"/>
    </g>
    <g id="Group_674-96" data-name="Group 674" transform="translate(70 110)">
      <circle id="Ellipse_68-96" data-name="Ellipse 68" cx="1.5" cy="1.5" r="1.5" fill="#fff"/>
    </g>
    <g id="Group_674-97" data-name="Group 674" transform="translate(0 120)">
      <circle id="Ellipse_68-97" data-name="Ellipse 68" cx="1.5" cy="1.5" r="1.5" fill="#fff"/>
    </g>
    <g id="Group_674-98" data-name="Group 674" transform="translate(10 120)">
      <circle id="Ellipse_68-98" data-name="Ellipse 68" cx="1.5" cy="1.5" r="1.5" fill="#fff"/>
    </g>
    <g id="Group_674-99" data-name="Group 674" transform="translate(20 120)">
      <circle id="Ellipse_68-99" data-name="Ellipse 68" cx="1.5" cy="1.5" r="1.5" fill="#fff"/>
    </g>
    <g id="Group_674-100" data-name="Group 674" transform="translate(30 120)">
      <circle id="Ellipse_68-100" data-name="Ellipse 68" cx="1.5" cy="1.5" r="1.5" fill="#fff"/>
    </g>
    <g id="Group_674-101" data-name="Group 674" transform="translate(40 120)">
      <circle id="Ellipse_68-101" data-name="Ellipse 68" cx="1.5" cy="1.5" r="1.5" fill="#fff"/>
    </g>
    <g id="Group_674-102" data-name="Group 674" transform="translate(50 120)">
      <circle id="Ellipse_68-102" data-name="Ellipse 68" cx="1.5" cy="1.5" r="1.5" fill="#fff"/>
    </g>
    <g id="Group_674-103" data-name="Group 674" transform="translate(60 120)">
      <circle id="Ellipse_68-103" data-name="Ellipse 68" cx="1.5" cy="1.5" r="1.5" fill="#fff"/>
    </g>
    <g id="Group_674-104" data-name="Group 674" transform="translate(70 120)">
      <circle id="Ellipse_68-104" data-name="Ellipse 68" cx="1.5" cy="1.5" r="1.5" fill="#fff"/>
    </g>
  </g>
  <path id="Path_663" data-name="Path 663" d="M42.5,0A42.5,42.5,0,0,1,85,42.5c0,23.472-19.028,35.841-42.5,35.841S0,65.972,0,42.5A42.5,42.5,0,0,1,42.5,0Z" transform="translate(11 90)" fill="#fff"/>
  <g id="surface1" transform="translate(-531.766 -417.687)">
    <path id="Path_632" data-name="Path 632" d="M985.819,532.459c1.837.8,3.283-1.351,5.082-2.525.842-.548,4.2.151,4.816-.647,3.114-4.026,1.077-9.487-1.62-13.217-2.435-3.366-7.633-3.167-10.647-.647a9.335,9.335,0,0,0-2.482,3.385c-1.291,3.139-2.335,8.046,0,11.126.826,1.088,3.6-.545,4.85,0" transform="translate(-404.14)" fill="#58a3ac"/>
    <path id="Path_633" data-name="Path 633" d="M1053.719,780.009h6.039c-1.387-2.249-.3-5.286-.139-5.7h-5.761c.16.415,1.249,3.452-.139,5.7" transform="translate(-472.386 -242.407)" fill="#f9b099"/>
    <path id="Path_635" data-name="Path 635" d="M1019.92,571.135a3.339,3.339,0,0,0,1.275-2.22c.2-2.1.291-2.79.448-3.862.671-4.6-2.638-8.414-5.926-8.463-3.286.049-6.6,3.866-5.924,8.463.157,1.072.251,1.764.447,3.862a4.012,4.012,0,0,0,1.275,2.22,11.7,11.7,0,0,0,3.476,2.342,2.459,2.459,0,0,0,1.453,0,17.51,17.51,0,0,0,3.476-2.342" transform="translate(-431.473 -40.021)" fill="#f9b099"/>
    <path id="Path_644" data-name="Path 644" d="M940.939,855.841a10.09,10.09,0,0,0,1.059-5.19c-.713-2.945-5.18-3.966-5.18-3.966-4.46-1.36-4.947-2.7-4.947-2.7h-5.018s-.488,1.344-4.948,2.7c0,0-4.467,1.021-5.18,3.966a10.079,10.079,0,0,0,1.059,5.19s3.253,8.3,4.642,12.19c0,0,1.078,2.461-.521,6.348l-2.238,5.312h19.389l-2.237-5.312c-1.6-3.887-.521-6.348-.521-6.348,1.39-3.887,4.643-12.19,4.643-12.19" transform="translate(-345.009 -307.172)" fill="#f9b099"/>
    <path id="Path_645" data-name="Path 645" d="M956.017,1316.449c-1.167-2.173-2.727-5.308-2.727-5.308-.186,1.766-7.707,1.864-8.767,1.873-1.01-.009-7.579-.123-8.283-1.8,0,0-1.73,3.08-2.83,5.238,0,0-2.16,5.133,10.974,5.986v.017c.046,0,.09-.005.136-.009s.089.008.135.009v-.017c13.139-.853,11.362-5.986,11.362-5.986" transform="translate(-360.427 -741.432)" fill="#597094"/>
    <path id="Path_652" data-name="Path 652" d="M834.794,896.182c-1.484,4.726-4.063,12.155-5.435,16.709,0,0,2.747,5.237,3.882,3.369,2.983-4.907,3.109-5.678,7.649-16.853,0,0,1.81-5.231-1.781-8.138,0,0-2.888.461-4.316,4.912" transform="translate(-263.828 -351.131)" fill="#f9b099"/>
    <path id="Path_653" data-name="Path 653" d="M646.526,1169.778s10.306-5.309,15.384-8.662a13.208,13.208,0,0,0,2.464-6.656,16.688,16.688,0,0,0-6.057,2.561s-10.23,9.032-13.131,11.294l1.339,1.462" transform="translate(-229.372 -506.327) rotate(-7)" fill="#f9b099"/>
    <path id="Path_654" data-name="Path 654" d="M546.734,1344.725c-.369-.951.955-1.5,1.416-1.858,0,0,.495.417-.341,1.126l.66.22,2.147-.955a3.379,3.379,0,0,0-.758-.3c.175-.107-1.129.652-1.708-.089a5.429,5.429,0,0,1,2.031-.935c.621-.184,2.381.628,2.381.628l1.265-.442.928,1.412-.828.848c-.554,1.4-4.734,2.884-3.646,1.949-1.247.756-1.359,0-.431-.565a1.472,1.472,0,0,1-1.29-.38l-1.825-.658" transform="translate(1 -768.029)" fill="#f9b099"/>
    <path id="Union_1" data-name="Union 1" d="M-7996.792-4610.985a.679.679,0,0,1-.117-.077l-.091-.06a12.067,12.067,0,0,1-1.16-1.932c-2.059-3.551-2.667-5.4-6.618-15.122,0,0-1.811-5.232,1.782-8.138,0,0,2.888.46,4.314,4.911,1.429,4.549,3.872,11.6,5.276,16.187.155.137,10.25,9.048,13.127,11.293l-1.338,1.461S-7991.646-4607.627-7996.792-4610.985Z" transform="translate(8596.633 5176.452)" fill="#f9b099"/>
    <path id="Path_657" data-name="Path 657" d="M1527.94,1344.725c.368-.951-.955-1.5-1.416-1.858,0,0-.495.417.341,1.126l-.66.22-2.147-.955a3.37,3.37,0,0,1,.758-.3c-.174-.107,1.13.652,1.708-.089a5.427,5.427,0,0,0-2.03-.935c-.622-.184-2.381.628-2.381.628l-1.265-.442-.927,1.412c1.381,2.249,4.9,2.232,4.9,2.232s3.8,2.367,3.115-1.037" transform="translate(-905.757 -770.029)" fill="#f9b099"/>
    <path id="Path_658" data-name="Path 658" d="M974.436,874.328c.479.186,1.028.378,1.654.567,0,0,1.1,7.055,2.2,14.1-.883,2.3-2.124,5.568-2.724,7.245,0,0-.572,1.675.521,6.348l1.413,1.964H960.346l.83-1.964a33.249,33.249,0,0,0,.521-6.348c-.554-1.55-1.8-4.826-2.62-6.975a93.863,93.863,0,0,1,2.1-14.371c.515-.157.977-.313,1.392-.468,0,0-.285,4.147,6.207,4.016,0,0,5.026.577,5.662-4.116" transform="translate(-384.28 -335.383)" fill="#62b5be"/>
    <path id="Union_2" data-name="Union 2" d="M-8003.649-4634.228a6.545,6.545,0,0,1-.584-1.119c.068-.06.139-.118.209-.176-.088-1.046.449-1.9,1.869-2.264a75.691,75.691,0,0,1,19.789-2.091,8.676,8.676,0,0,1,3.094-3.167l.016-.013c.133-.079.271-.162.412-.258,1.979.028,4.041.048,6.135.068,2.721-.02,6.449-.043,10.941-.064,1.092.731,1.832.915,3.836,4.086,0,0,14.2-2.028,20.816,3.878,0,0-2.314,6.576-11.875,6.576h-45.27a6.338,6.338,0,0,1-.758.045C-7998.628-4628.726-8002.446-4631.664-8003.649-4634.228Z" transform="translate(8554.94 5212.364)" fill="#62b5be"/>
    <path id="Path_660" data-name="Path 660" d="M649.442,1401.163s-.114,1.97-.777,2.4c0,0-4.405.875-12.5-.194-1.068-.053-10.72,1.077-10.948,1.069-6.713-.258-9.35.54-15.541-2.166-2.3-1-6.859-7.624-2.092-9.986,5.512-3.3,18.211,4.2,18.215,4.2a21.948,21.948,0,0,0,11.628,2.74c2.25-.057,11.9-2.23,12.017,1.939" transform="translate(-55.724 -816.081)" fill="#58a3ac"/>
    <path id="Path_661" data-name="Path 661" d="M1021.487,1391.476c1.069-.053,10.72,1.078,10.948,1.068,6.714-.256,9.35.541,15.54-2.165,2.3-1,6.86-7.625,2.092-9.986-5.513-3.3-18.215,4.2-18.215,4.2s-5.042,4.47-13.21,2.179a3.433,3.433,0,0,0-3.815.424s-1.124,2.271-5.464.976c0,0-.991.266-1.156,1.1,0,0-.908,1.749.777,2.4,0,0,4.405.874,12.5-.194" transform="translate(-429.853 -805.03)" fill="#58a3ac"/>
  </g>
  <path id="Path_665" data-name="Path 665" d="M0,0H4V264H0V0Z" transform="translate(326)" fill="#fff" opacity="0.004"/>
</svg>
