<svg xmlns="http://www.w3.org/2000/svg" xmlns:xlink="http://www.w3.org/1999/xlink" width="696" height="594" viewBox="0 0 696 594">
  <defs>
    <clipPath id="clip-path">
      <rect width="160" height="245" fill="none"/>
    </clipPath>
  </defs>
  <g id="Group_1116" data-name="Group 1116" transform="translate(-1925 -2679)">
    <g id="Repeat_Grid_57" data-name="Repeat Grid 57" transform="translate(1925 2844)" clip-path="url(#clip-path)">
      <g transform="translate(-772 -409)">
        <circle id="Ellipse_68" data-name="Ellipse 68" cx="2" cy="2" r="2" transform="translate(772 409)" fill="#f5efe5"/>
        <circle id="Ellipse_68-2" data-name="Ellipse 68" cx="2" cy="2" r="2" transform="translate(790 409)" fill="#f5efe5"/>
        <circle id="Ellipse_68-3" data-name="Ellipse 68" cx="2" cy="2" r="2" transform="translate(807 409)" fill="#f5efe5"/>
        <circle id="Ellipse_68-4" data-name="Ellipse 68" cx="2" cy="2" r="2" transform="translate(825 409)" fill="#f5efe5"/>
        <circle id="Ellipse_68-5" data-name="Ellipse 68" cx="2" cy="2" r="2" transform="translate(842 409)" fill="#f5efe5"/>
        <circle id="Ellipse_68-6" data-name="Ellipse 68" cx="2" cy="2" r="2" transform="translate(860 409)" fill="#f5efe5"/>
        <ellipse id="Ellipse_68-7" data-name="Ellipse 68" cx="2.5" cy="2" rx="2.5" ry="2" transform="translate(877 409)" fill="#f5efe5"/>
        <circle id="Ellipse_68-8" data-name="Ellipse 68" cx="2" cy="2" r="2" transform="translate(772 427)" fill="#f5efe5"/>
        <circle id="Ellipse_68-9" data-name="Ellipse 68" cx="2" cy="2" r="2" transform="translate(790 427)" fill="#f5efe5"/>
        <circle id="Ellipse_68-10" data-name="Ellipse 68" cx="2" cy="2" r="2" transform="translate(807 427)" fill="#f5efe5"/>
        <circle id="Ellipse_68-11" data-name="Ellipse 68" cx="2" cy="2" r="2" transform="translate(825 427)" fill="#f5efe5"/>
        <circle id="Ellipse_68-12" data-name="Ellipse 68" cx="2" cy="2" r="2" transform="translate(842 427)" fill="#f5efe5"/>
        <circle id="Ellipse_68-13" data-name="Ellipse 68" cx="2" cy="2" r="2" transform="translate(860 427)" fill="#f5efe5"/>
        <ellipse id="Ellipse_68-14" data-name="Ellipse 68" cx="2.5" cy="2" rx="2.5" ry="2" transform="translate(877 427)" fill="#f5efe5"/>
        <circle id="Ellipse_68-15" data-name="Ellipse 68" cx="2" cy="2" r="2" transform="translate(772 444)" fill="#f5efe5"/>
        <circle id="Ellipse_68-16" data-name="Ellipse 68" cx="2" cy="2" r="2" transform="translate(790 444)" fill="#f5efe5"/>
        <circle id="Ellipse_68-17" data-name="Ellipse 68" cx="2" cy="2" r="2" transform="translate(807 444)" fill="#f5efe5"/>
        <circle id="Ellipse_68-18" data-name="Ellipse 68" cx="2" cy="2" r="2" transform="translate(825 444)" fill="#f5efe5"/>
        <circle id="Ellipse_68-19" data-name="Ellipse 68" cx="2" cy="2" r="2" transform="translate(842 444)" fill="#f5efe5"/>
        <circle id="Ellipse_68-20" data-name="Ellipse 68" cx="2" cy="2" r="2" transform="translate(860 444)" fill="#f5efe5"/>
        <ellipse id="Ellipse_68-21" data-name="Ellipse 68" cx="2.5" cy="2" rx="2.5" ry="2" transform="translate(877 444)" fill="#f5efe5"/>
        <circle id="Ellipse_68-22" data-name="Ellipse 68" cx="2" cy="2" r="2" transform="translate(772 462)" fill="#f5efe5"/>
        <circle id="Ellipse_68-23" data-name="Ellipse 68" cx="2" cy="2" r="2" transform="translate(790 462)" fill="#f5efe5"/>
        <circle id="Ellipse_68-24" data-name="Ellipse 68" cx="2" cy="2" r="2" transform="translate(807 462)" fill="#f5efe5"/>
        <circle id="Ellipse_68-25" data-name="Ellipse 68" cx="2" cy="2" r="2" transform="translate(825 462)" fill="#f5efe5"/>
        <circle id="Ellipse_68-26" data-name="Ellipse 68" cx="2" cy="2" r="2" transform="translate(842 462)" fill="#f5efe5"/>
        <circle id="Ellipse_68-27" data-name="Ellipse 68" cx="2" cy="2" r="2" transform="translate(860 462)" fill="#f5efe5"/>
        <ellipse id="Ellipse_68-28" data-name="Ellipse 68" cx="2.5" cy="2" rx="2.5" ry="2" transform="translate(877 462)" fill="#f5efe5"/>
        <circle id="Ellipse_68-29" data-name="Ellipse 68" cx="2" cy="2" r="2" transform="translate(772 479)" fill="#f5efe5"/>
        <circle id="Ellipse_68-30" data-name="Ellipse 68" cx="2" cy="2" r="2" transform="translate(790 479)" fill="#f5efe5"/>
        <circle id="Ellipse_68-31" data-name="Ellipse 68" cx="2" cy="2" r="2" transform="translate(807 479)" fill="#f5efe5"/>
        <circle id="Ellipse_68-32" data-name="Ellipse 68" cx="2" cy="2" r="2" transform="translate(825 479)" fill="#f5efe5"/>
        <circle id="Ellipse_68-33" data-name="Ellipse 68" cx="2" cy="2" r="2" transform="translate(842 479)" fill="#f5efe5"/>
        <circle id="Ellipse_68-34" data-name="Ellipse 68" cx="2" cy="2" r="2" transform="translate(860 479)" fill="#f5efe5"/>
        <ellipse id="Ellipse_68-35" data-name="Ellipse 68" cx="2.5" cy="2" rx="2.5" ry="2" transform="translate(877 479)" fill="#f5efe5"/>
        <circle id="Ellipse_68-36" data-name="Ellipse 68" cx="2" cy="2" r="2" transform="translate(772 497)" fill="#f5efe5"/>
        <circle id="Ellipse_68-37" data-name="Ellipse 68" cx="2" cy="2" r="2" transform="translate(790 497)" fill="#f5efe5"/>
        <circle id="Ellipse_68-38" data-name="Ellipse 68" cx="2" cy="2" r="2" transform="translate(807 497)" fill="#f5efe5"/>
        <circle id="Ellipse_68-39" data-name="Ellipse 68" cx="2" cy="2" r="2" transform="translate(825 497)" fill="#f5efe5"/>
        <circle id="Ellipse_68-40" data-name="Ellipse 68" cx="2" cy="2" r="2" transform="translate(842 497)" fill="#f5efe5"/>
        <circle id="Ellipse_68-41" data-name="Ellipse 68" cx="2" cy="2" r="2" transform="translate(860 497)" fill="#f5efe5"/>
        <ellipse id="Ellipse_68-42" data-name="Ellipse 68" cx="2.5" cy="2" rx="2.5" ry="2" transform="translate(877 497)" fill="#f5efe5"/>
      </g>
      <g transform="translate(-642 -409)">
        <circle id="Ellipse_68-43" data-name="Ellipse 68" cx="2" cy="2" r="2" transform="translate(772 409)" fill="#f5efe5"/>
        <circle id="Ellipse_68-44" data-name="Ellipse 68" cx="2" cy="2" r="2" transform="translate(790 409)" fill="#f5efe5"/>
        <circle id="Ellipse_68-45" data-name="Ellipse 68" cx="2" cy="2" r="2" transform="translate(807 409)" fill="#f5efe5"/>
        <circle id="Ellipse_68-46" data-name="Ellipse 68" cx="2" cy="2" r="2" transform="translate(825 409)" fill="#f5efe5"/>
        <circle id="Ellipse_68-47" data-name="Ellipse 68" cx="2" cy="2" r="2" transform="translate(842 409)" fill="#f5efe5"/>
        <circle id="Ellipse_68-48" data-name="Ellipse 68" cx="2" cy="2" r="2" transform="translate(860 409)" fill="#f5efe5"/>
        <ellipse id="Ellipse_68-49" data-name="Ellipse 68" cx="2.5" cy="2" rx="2.5" ry="2" transform="translate(877 409)" fill="#f5efe5"/>
        <circle id="Ellipse_68-50" data-name="Ellipse 68" cx="2" cy="2" r="2" transform="translate(772 427)" fill="#f5efe5"/>
        <circle id="Ellipse_68-51" data-name="Ellipse 68" cx="2" cy="2" r="2" transform="translate(790 427)" fill="#f5efe5"/>
        <circle id="Ellipse_68-52" data-name="Ellipse 68" cx="2" cy="2" r="2" transform="translate(807 427)" fill="#f5efe5"/>
        <circle id="Ellipse_68-53" data-name="Ellipse 68" cx="2" cy="2" r="2" transform="translate(825 427)" fill="#f5efe5"/>
        <circle id="Ellipse_68-54" data-name="Ellipse 68" cx="2" cy="2" r="2" transform="translate(842 427)" fill="#f5efe5"/>
        <circle id="Ellipse_68-55" data-name="Ellipse 68" cx="2" cy="2" r="2" transform="translate(860 427)" fill="#f5efe5"/>
        <ellipse id="Ellipse_68-56" data-name="Ellipse 68" cx="2.5" cy="2" rx="2.5" ry="2" transform="translate(877 427)" fill="#f5efe5"/>
        <circle id="Ellipse_68-57" data-name="Ellipse 68" cx="2" cy="2" r="2" transform="translate(772 444)" fill="#f5efe5"/>
        <circle id="Ellipse_68-58" data-name="Ellipse 68" cx="2" cy="2" r="2" transform="translate(790 444)" fill="#f5efe5"/>
        <circle id="Ellipse_68-59" data-name="Ellipse 68" cx="2" cy="2" r="2" transform="translate(807 444)" fill="#f5efe5"/>
        <circle id="Ellipse_68-60" data-name="Ellipse 68" cx="2" cy="2" r="2" transform="translate(825 444)" fill="#f5efe5"/>
        <circle id="Ellipse_68-61" data-name="Ellipse 68" cx="2" cy="2" r="2" transform="translate(842 444)" fill="#f5efe5"/>
        <circle id="Ellipse_68-62" data-name="Ellipse 68" cx="2" cy="2" r="2" transform="translate(860 444)" fill="#f5efe5"/>
        <ellipse id="Ellipse_68-63" data-name="Ellipse 68" cx="2.5" cy="2" rx="2.5" ry="2" transform="translate(877 444)" fill="#f5efe5"/>
        <circle id="Ellipse_68-64" data-name="Ellipse 68" cx="2" cy="2" r="2" transform="translate(772 462)" fill="#f5efe5"/>
        <circle id="Ellipse_68-65" data-name="Ellipse 68" cx="2" cy="2" r="2" transform="translate(790 462)" fill="#f5efe5"/>
        <circle id="Ellipse_68-66" data-name="Ellipse 68" cx="2" cy="2" r="2" transform="translate(807 462)" fill="#f5efe5"/>
        <circle id="Ellipse_68-67" data-name="Ellipse 68" cx="2" cy="2" r="2" transform="translate(825 462)" fill="#f5efe5"/>
        <circle id="Ellipse_68-68" data-name="Ellipse 68" cx="2" cy="2" r="2" transform="translate(842 462)" fill="#f5efe5"/>
        <circle id="Ellipse_68-69" data-name="Ellipse 68" cx="2" cy="2" r="2" transform="translate(860 462)" fill="#f5efe5"/>
        <ellipse id="Ellipse_68-70" data-name="Ellipse 68" cx="2.5" cy="2" rx="2.5" ry="2" transform="translate(877 462)" fill="#f5efe5"/>
        <circle id="Ellipse_68-71" data-name="Ellipse 68" cx="2" cy="2" r="2" transform="translate(772 479)" fill="#f5efe5"/>
        <circle id="Ellipse_68-72" data-name="Ellipse 68" cx="2" cy="2" r="2" transform="translate(790 479)" fill="#f5efe5"/>
        <circle id="Ellipse_68-73" data-name="Ellipse 68" cx="2" cy="2" r="2" transform="translate(807 479)" fill="#f5efe5"/>
        <circle id="Ellipse_68-74" data-name="Ellipse 68" cx="2" cy="2" r="2" transform="translate(825 479)" fill="#f5efe5"/>
        <circle id="Ellipse_68-75" data-name="Ellipse 68" cx="2" cy="2" r="2" transform="translate(842 479)" fill="#f5efe5"/>
        <circle id="Ellipse_68-76" data-name="Ellipse 68" cx="2" cy="2" r="2" transform="translate(860 479)" fill="#f5efe5"/>
        <ellipse id="Ellipse_68-77" data-name="Ellipse 68" cx="2.5" cy="2" rx="2.5" ry="2" transform="translate(877 479)" fill="#f5efe5"/>
        <circle id="Ellipse_68-78" data-name="Ellipse 68" cx="2" cy="2" r="2" transform="translate(772 497)" fill="#f5efe5"/>
        <circle id="Ellipse_68-79" data-name="Ellipse 68" cx="2" cy="2" r="2" transform="translate(790 497)" fill="#f5efe5"/>
        <circle id="Ellipse_68-80" data-name="Ellipse 68" cx="2" cy="2" r="2" transform="translate(807 497)" fill="#f5efe5"/>
        <circle id="Ellipse_68-81" data-name="Ellipse 68" cx="2" cy="2" r="2" transform="translate(825 497)" fill="#f5efe5"/>
        <circle id="Ellipse_68-82" data-name="Ellipse 68" cx="2" cy="2" r="2" transform="translate(842 497)" fill="#f5efe5"/>
        <circle id="Ellipse_68-83" data-name="Ellipse 68" cx="2" cy="2" r="2" transform="translate(860 497)" fill="#f5efe5"/>
        <ellipse id="Ellipse_68-84" data-name="Ellipse 68" cx="2.5" cy="2" rx="2.5" ry="2" transform="translate(877 497)" fill="#f5efe5"/>
      </g>
      <g transform="translate(-772 -297)">
        <circle id="Ellipse_68-85" data-name="Ellipse 68" cx="2" cy="2" r="2" transform="translate(772 409)" fill="#f5efe5"/>
        <circle id="Ellipse_68-86" data-name="Ellipse 68" cx="2" cy="2" r="2" transform="translate(790 409)" fill="#f5efe5"/>
        <circle id="Ellipse_68-87" data-name="Ellipse 68" cx="2" cy="2" r="2" transform="translate(807 409)" fill="#f5efe5"/>
        <circle id="Ellipse_68-88" data-name="Ellipse 68" cx="2" cy="2" r="2" transform="translate(825 409)" fill="#f5efe5"/>
        <circle id="Ellipse_68-89" data-name="Ellipse 68" cx="2" cy="2" r="2" transform="translate(842 409)" fill="#f5efe5"/>
        <circle id="Ellipse_68-90" data-name="Ellipse 68" cx="2" cy="2" r="2" transform="translate(860 409)" fill="#f5efe5"/>
        <ellipse id="Ellipse_68-91" data-name="Ellipse 68" cx="2.5" cy="2" rx="2.5" ry="2" transform="translate(877 409)" fill="#f5efe5"/>
        <circle id="Ellipse_68-92" data-name="Ellipse 68" cx="2" cy="2" r="2" transform="translate(772 427)" fill="#f5efe5"/>
        <circle id="Ellipse_68-93" data-name="Ellipse 68" cx="2" cy="2" r="2" transform="translate(790 427)" fill="#f5efe5"/>
        <circle id="Ellipse_68-94" data-name="Ellipse 68" cx="2" cy="2" r="2" transform="translate(807 427)" fill="#f5efe5"/>
        <circle id="Ellipse_68-95" data-name="Ellipse 68" cx="2" cy="2" r="2" transform="translate(825 427)" fill="#f5efe5"/>
        <circle id="Ellipse_68-96" data-name="Ellipse 68" cx="2" cy="2" r="2" transform="translate(842 427)" fill="#f5efe5"/>
        <circle id="Ellipse_68-97" data-name="Ellipse 68" cx="2" cy="2" r="2" transform="translate(860 427)" fill="#f5efe5"/>
        <ellipse id="Ellipse_68-98" data-name="Ellipse 68" cx="2.5" cy="2" rx="2.5" ry="2" transform="translate(877 427)" fill="#f5efe5"/>
        <circle id="Ellipse_68-99" data-name="Ellipse 68" cx="2" cy="2" r="2" transform="translate(772 444)" fill="#f5efe5"/>
        <circle id="Ellipse_68-100" data-name="Ellipse 68" cx="2" cy="2" r="2" transform="translate(790 444)" fill="#f5efe5"/>
        <circle id="Ellipse_68-101" data-name="Ellipse 68" cx="2" cy="2" r="2" transform="translate(807 444)" fill="#f5efe5"/>
        <circle id="Ellipse_68-102" data-name="Ellipse 68" cx="2" cy="2" r="2" transform="translate(825 444)" fill="#f5efe5"/>
        <circle id="Ellipse_68-103" data-name="Ellipse 68" cx="2" cy="2" r="2" transform="translate(842 444)" fill="#f5efe5"/>
        <circle id="Ellipse_68-104" data-name="Ellipse 68" cx="2" cy="2" r="2" transform="translate(860 444)" fill="#f5efe5"/>
        <ellipse id="Ellipse_68-105" data-name="Ellipse 68" cx="2.5" cy="2" rx="2.5" ry="2" transform="translate(877 444)" fill="#f5efe5"/>
        <circle id="Ellipse_68-106" data-name="Ellipse 68" cx="2" cy="2" r="2" transform="translate(772 462)" fill="#f5efe5"/>
        <circle id="Ellipse_68-107" data-name="Ellipse 68" cx="2" cy="2" r="2" transform="translate(790 462)" fill="#f5efe5"/>
        <circle id="Ellipse_68-108" data-name="Ellipse 68" cx="2" cy="2" r="2" transform="translate(807 462)" fill="#f5efe5"/>
        <circle id="Ellipse_68-109" data-name="Ellipse 68" cx="2" cy="2" r="2" transform="translate(825 462)" fill="#f5efe5"/>
        <circle id="Ellipse_68-110" data-name="Ellipse 68" cx="2" cy="2" r="2" transform="translate(842 462)" fill="#f5efe5"/>
        <circle id="Ellipse_68-111" data-name="Ellipse 68" cx="2" cy="2" r="2" transform="translate(860 462)" fill="#f5efe5"/>
        <ellipse id="Ellipse_68-112" data-name="Ellipse 68" cx="2.5" cy="2" rx="2.5" ry="2" transform="translate(877 462)" fill="#f5efe5"/>
        <circle id="Ellipse_68-113" data-name="Ellipse 68" cx="2" cy="2" r="2" transform="translate(772 479)" fill="#f5efe5"/>
        <circle id="Ellipse_68-114" data-name="Ellipse 68" cx="2" cy="2" r="2" transform="translate(790 479)" fill="#f5efe5"/>
        <circle id="Ellipse_68-115" data-name="Ellipse 68" cx="2" cy="2" r="2" transform="translate(807 479)" fill="#f5efe5"/>
        <circle id="Ellipse_68-116" data-name="Ellipse 68" cx="2" cy="2" r="2" transform="translate(825 479)" fill="#f5efe5"/>
        <circle id="Ellipse_68-117" data-name="Ellipse 68" cx="2" cy="2" r="2" transform="translate(842 479)" fill="#f5efe5"/>
        <circle id="Ellipse_68-118" data-name="Ellipse 68" cx="2" cy="2" r="2" transform="translate(860 479)" fill="#f5efe5"/>
        <ellipse id="Ellipse_68-119" data-name="Ellipse 68" cx="2.5" cy="2" rx="2.5" ry="2" transform="translate(877 479)" fill="#f5efe5"/>
        <circle id="Ellipse_68-120" data-name="Ellipse 68" cx="2" cy="2" r="2" transform="translate(772 497)" fill="#f5efe5"/>
        <circle id="Ellipse_68-121" data-name="Ellipse 68" cx="2" cy="2" r="2" transform="translate(790 497)" fill="#f5efe5"/>
        <circle id="Ellipse_68-122" data-name="Ellipse 68" cx="2" cy="2" r="2" transform="translate(807 497)" fill="#f5efe5"/>
        <circle id="Ellipse_68-123" data-name="Ellipse 68" cx="2" cy="2" r="2" transform="translate(825 497)" fill="#f5efe5"/>
        <circle id="Ellipse_68-124" data-name="Ellipse 68" cx="2" cy="2" r="2" transform="translate(842 497)" fill="#f5efe5"/>
        <circle id="Ellipse_68-125" data-name="Ellipse 68" cx="2" cy="2" r="2" transform="translate(860 497)" fill="#f5efe5"/>
        <ellipse id="Ellipse_68-126" data-name="Ellipse 68" cx="2.5" cy="2" rx="2.5" ry="2" transform="translate(877 497)" fill="#f5efe5"/>
      </g>
      <g transform="translate(-642 -297)">
        <circle id="Ellipse_68-127" data-name="Ellipse 68" cx="2" cy="2" r="2" transform="translate(772 409)" fill="#f5efe5"/>
        <circle id="Ellipse_68-128" data-name="Ellipse 68" cx="2" cy="2" r="2" transform="translate(790 409)" fill="#f5efe5"/>
        <circle id="Ellipse_68-129" data-name="Ellipse 68" cx="2" cy="2" r="2" transform="translate(807 409)" fill="#f5efe5"/>
        <circle id="Ellipse_68-130" data-name="Ellipse 68" cx="2" cy="2" r="2" transform="translate(825 409)" fill="#f5efe5"/>
        <circle id="Ellipse_68-131" data-name="Ellipse 68" cx="2" cy="2" r="2" transform="translate(842 409)" fill="#f5efe5"/>
        <circle id="Ellipse_68-132" data-name="Ellipse 68" cx="2" cy="2" r="2" transform="translate(860 409)" fill="#f5efe5"/>
        <ellipse id="Ellipse_68-133" data-name="Ellipse 68" cx="2.5" cy="2" rx="2.5" ry="2" transform="translate(877 409)" fill="#f5efe5"/>
        <circle id="Ellipse_68-134" data-name="Ellipse 68" cx="2" cy="2" r="2" transform="translate(772 427)" fill="#f5efe5"/>
        <circle id="Ellipse_68-135" data-name="Ellipse 68" cx="2" cy="2" r="2" transform="translate(790 427)" fill="#f5efe5"/>
        <circle id="Ellipse_68-136" data-name="Ellipse 68" cx="2" cy="2" r="2" transform="translate(807 427)" fill="#f5efe5"/>
        <circle id="Ellipse_68-137" data-name="Ellipse 68" cx="2" cy="2" r="2" transform="translate(825 427)" fill="#f5efe5"/>
        <circle id="Ellipse_68-138" data-name="Ellipse 68" cx="2" cy="2" r="2" transform="translate(842 427)" fill="#f5efe5"/>
        <circle id="Ellipse_68-139" data-name="Ellipse 68" cx="2" cy="2" r="2" transform="translate(860 427)" fill="#f5efe5"/>
        <ellipse id="Ellipse_68-140" data-name="Ellipse 68" cx="2.5" cy="2" rx="2.5" ry="2" transform="translate(877 427)" fill="#f5efe5"/>
        <circle id="Ellipse_68-141" data-name="Ellipse 68" cx="2" cy="2" r="2" transform="translate(772 444)" fill="#f5efe5"/>
        <circle id="Ellipse_68-142" data-name="Ellipse 68" cx="2" cy="2" r="2" transform="translate(790 444)" fill="#f5efe5"/>
        <circle id="Ellipse_68-143" data-name="Ellipse 68" cx="2" cy="2" r="2" transform="translate(807 444)" fill="#f5efe5"/>
        <circle id="Ellipse_68-144" data-name="Ellipse 68" cx="2" cy="2" r="2" transform="translate(825 444)" fill="#f5efe5"/>
        <circle id="Ellipse_68-145" data-name="Ellipse 68" cx="2" cy="2" r="2" transform="translate(842 444)" fill="#f5efe5"/>
        <circle id="Ellipse_68-146" data-name="Ellipse 68" cx="2" cy="2" r="2" transform="translate(860 444)" fill="#f5efe5"/>
        <ellipse id="Ellipse_68-147" data-name="Ellipse 68" cx="2.5" cy="2" rx="2.5" ry="2" transform="translate(877 444)" fill="#f5efe5"/>
        <circle id="Ellipse_68-148" data-name="Ellipse 68" cx="2" cy="2" r="2" transform="translate(772 462)" fill="#f5efe5"/>
        <circle id="Ellipse_68-149" data-name="Ellipse 68" cx="2" cy="2" r="2" transform="translate(790 462)" fill="#f5efe5"/>
        <circle id="Ellipse_68-150" data-name="Ellipse 68" cx="2" cy="2" r="2" transform="translate(807 462)" fill="#f5efe5"/>
        <circle id="Ellipse_68-151" data-name="Ellipse 68" cx="2" cy="2" r="2" transform="translate(825 462)" fill="#f5efe5"/>
        <circle id="Ellipse_68-152" data-name="Ellipse 68" cx="2" cy="2" r="2" transform="translate(842 462)" fill="#f5efe5"/>
        <circle id="Ellipse_68-153" data-name="Ellipse 68" cx="2" cy="2" r="2" transform="translate(860 462)" fill="#f5efe5"/>
        <ellipse id="Ellipse_68-154" data-name="Ellipse 68" cx="2.5" cy="2" rx="2.5" ry="2" transform="translate(877 462)" fill="#f5efe5"/>
        <circle id="Ellipse_68-155" data-name="Ellipse 68" cx="2" cy="2" r="2" transform="translate(772 479)" fill="#f5efe5"/>
        <circle id="Ellipse_68-156" data-name="Ellipse 68" cx="2" cy="2" r="2" transform="translate(790 479)" fill="#f5efe5"/>
        <circle id="Ellipse_68-157" data-name="Ellipse 68" cx="2" cy="2" r="2" transform="translate(807 479)" fill="#f5efe5"/>
        <circle id="Ellipse_68-158" data-name="Ellipse 68" cx="2" cy="2" r="2" transform="translate(825 479)" fill="#f5efe5"/>
        <circle id="Ellipse_68-159" data-name="Ellipse 68" cx="2" cy="2" r="2" transform="translate(842 479)" fill="#f5efe5"/>
        <circle id="Ellipse_68-160" data-name="Ellipse 68" cx="2" cy="2" r="2" transform="translate(860 479)" fill="#f5efe5"/>
        <ellipse id="Ellipse_68-161" data-name="Ellipse 68" cx="2.5" cy="2" rx="2.5" ry="2" transform="translate(877 479)" fill="#f5efe5"/>
        <circle id="Ellipse_68-162" data-name="Ellipse 68" cx="2" cy="2" r="2" transform="translate(772 497)" fill="#f5efe5"/>
        <circle id="Ellipse_68-163" data-name="Ellipse 68" cx="2" cy="2" r="2" transform="translate(790 497)" fill="#f5efe5"/>
        <circle id="Ellipse_68-164" data-name="Ellipse 68" cx="2" cy="2" r="2" transform="translate(807 497)" fill="#f5efe5"/>
        <circle id="Ellipse_68-165" data-name="Ellipse 68" cx="2" cy="2" r="2" transform="translate(825 497)" fill="#f5efe5"/>
        <circle id="Ellipse_68-166" data-name="Ellipse 68" cx="2" cy="2" r="2" transform="translate(842 497)" fill="#f5efe5"/>
        <circle id="Ellipse_68-167" data-name="Ellipse 68" cx="2" cy="2" r="2" transform="translate(860 497)" fill="#f5efe5"/>
        <ellipse id="Ellipse_68-168" data-name="Ellipse 68" cx="2.5" cy="2" rx="2.5" ry="2" transform="translate(877 497)" fill="#f5efe5"/>
      </g>
      <g transform="translate(-772 -185)">
        <circle id="Ellipse_68-169" data-name="Ellipse 68" cx="2" cy="2" r="2" transform="translate(772 409)" fill="#f5efe5"/>
        <circle id="Ellipse_68-170" data-name="Ellipse 68" cx="2" cy="2" r="2" transform="translate(790 409)" fill="#f5efe5"/>
        <circle id="Ellipse_68-171" data-name="Ellipse 68" cx="2" cy="2" r="2" transform="translate(807 409)" fill="#f5efe5"/>
        <circle id="Ellipse_68-172" data-name="Ellipse 68" cx="2" cy="2" r="2" transform="translate(825 409)" fill="#f5efe5"/>
        <circle id="Ellipse_68-173" data-name="Ellipse 68" cx="2" cy="2" r="2" transform="translate(842 409)" fill="#f5efe5"/>
        <circle id="Ellipse_68-174" data-name="Ellipse 68" cx="2" cy="2" r="2" transform="translate(860 409)" fill="#f5efe5"/>
        <ellipse id="Ellipse_68-175" data-name="Ellipse 68" cx="2.5" cy="2" rx="2.5" ry="2" transform="translate(877 409)" fill="#f5efe5"/>
        <circle id="Ellipse_68-176" data-name="Ellipse 68" cx="2" cy="2" r="2" transform="translate(772 427)" fill="#f5efe5"/>
        <circle id="Ellipse_68-177" data-name="Ellipse 68" cx="2" cy="2" r="2" transform="translate(790 427)" fill="#f5efe5"/>
        <circle id="Ellipse_68-178" data-name="Ellipse 68" cx="2" cy="2" r="2" transform="translate(807 427)" fill="#f5efe5"/>
        <circle id="Ellipse_68-179" data-name="Ellipse 68" cx="2" cy="2" r="2" transform="translate(825 427)" fill="#f5efe5"/>
        <circle id="Ellipse_68-180" data-name="Ellipse 68" cx="2" cy="2" r="2" transform="translate(842 427)" fill="#f5efe5"/>
        <circle id="Ellipse_68-181" data-name="Ellipse 68" cx="2" cy="2" r="2" transform="translate(860 427)" fill="#f5efe5"/>
        <ellipse id="Ellipse_68-182" data-name="Ellipse 68" cx="2.5" cy="2" rx="2.5" ry="2" transform="translate(877 427)" fill="#f5efe5"/>
        <circle id="Ellipse_68-183" data-name="Ellipse 68" cx="2" cy="2" r="2" transform="translate(772 444)" fill="#f5efe5"/>
        <circle id="Ellipse_68-184" data-name="Ellipse 68" cx="2" cy="2" r="2" transform="translate(790 444)" fill="#f5efe5"/>
        <circle id="Ellipse_68-185" data-name="Ellipse 68" cx="2" cy="2" r="2" transform="translate(807 444)" fill="#f5efe5"/>
        <circle id="Ellipse_68-186" data-name="Ellipse 68" cx="2" cy="2" r="2" transform="translate(825 444)" fill="#f5efe5"/>
        <circle id="Ellipse_68-187" data-name="Ellipse 68" cx="2" cy="2" r="2" transform="translate(842 444)" fill="#f5efe5"/>
        <circle id="Ellipse_68-188" data-name="Ellipse 68" cx="2" cy="2" r="2" transform="translate(860 444)" fill="#f5efe5"/>
        <ellipse id="Ellipse_68-189" data-name="Ellipse 68" cx="2.5" cy="2" rx="2.5" ry="2" transform="translate(877 444)" fill="#f5efe5"/>
        <circle id="Ellipse_68-190" data-name="Ellipse 68" cx="2" cy="2" r="2" transform="translate(772 462)" fill="#f5efe5"/>
        <circle id="Ellipse_68-191" data-name="Ellipse 68" cx="2" cy="2" r="2" transform="translate(790 462)" fill="#f5efe5"/>
        <circle id="Ellipse_68-192" data-name="Ellipse 68" cx="2" cy="2" r="2" transform="translate(807 462)" fill="#f5efe5"/>
        <circle id="Ellipse_68-193" data-name="Ellipse 68" cx="2" cy="2" r="2" transform="translate(825 462)" fill="#f5efe5"/>
        <circle id="Ellipse_68-194" data-name="Ellipse 68" cx="2" cy="2" r="2" transform="translate(842 462)" fill="#f5efe5"/>
        <circle id="Ellipse_68-195" data-name="Ellipse 68" cx="2" cy="2" r="2" transform="translate(860 462)" fill="#f5efe5"/>
        <ellipse id="Ellipse_68-196" data-name="Ellipse 68" cx="2.5" cy="2" rx="2.5" ry="2" transform="translate(877 462)" fill="#f5efe5"/>
        <circle id="Ellipse_68-197" data-name="Ellipse 68" cx="2" cy="2" r="2" transform="translate(772 479)" fill="#f5efe5"/>
        <circle id="Ellipse_68-198" data-name="Ellipse 68" cx="2" cy="2" r="2" transform="translate(790 479)" fill="#f5efe5"/>
        <circle id="Ellipse_68-199" data-name="Ellipse 68" cx="2" cy="2" r="2" transform="translate(807 479)" fill="#f5efe5"/>
        <circle id="Ellipse_68-200" data-name="Ellipse 68" cx="2" cy="2" r="2" transform="translate(825 479)" fill="#f5efe5"/>
        <circle id="Ellipse_68-201" data-name="Ellipse 68" cx="2" cy="2" r="2" transform="translate(842 479)" fill="#f5efe5"/>
        <circle id="Ellipse_68-202" data-name="Ellipse 68" cx="2" cy="2" r="2" transform="translate(860 479)" fill="#f5efe5"/>
        <ellipse id="Ellipse_68-203" data-name="Ellipse 68" cx="2.5" cy="2" rx="2.5" ry="2" transform="translate(877 479)" fill="#f5efe5"/>
        <circle id="Ellipse_68-204" data-name="Ellipse 68" cx="2" cy="2" r="2" transform="translate(772 497)" fill="#f5efe5"/>
        <circle id="Ellipse_68-205" data-name="Ellipse 68" cx="2" cy="2" r="2" transform="translate(790 497)" fill="#f5efe5"/>
        <circle id="Ellipse_68-206" data-name="Ellipse 68" cx="2" cy="2" r="2" transform="translate(807 497)" fill="#f5efe5"/>
        <circle id="Ellipse_68-207" data-name="Ellipse 68" cx="2" cy="2" r="2" transform="translate(825 497)" fill="#f5efe5"/>
        <circle id="Ellipse_68-208" data-name="Ellipse 68" cx="2" cy="2" r="2" transform="translate(842 497)" fill="#f5efe5"/>
        <circle id="Ellipse_68-209" data-name="Ellipse 68" cx="2" cy="2" r="2" transform="translate(860 497)" fill="#f5efe5"/>
        <ellipse id="Ellipse_68-210" data-name="Ellipse 68" cx="2.5" cy="2" rx="2.5" ry="2" transform="translate(877 497)" fill="#f5efe5"/>
      </g>
      <g transform="translate(-642 -185)">
        <circle id="Ellipse_68-211" data-name="Ellipse 68" cx="2" cy="2" r="2" transform="translate(772 409)" fill="#f5efe5"/>
        <circle id="Ellipse_68-212" data-name="Ellipse 68" cx="2" cy="2" r="2" transform="translate(790 409)" fill="#f5efe5"/>
        <circle id="Ellipse_68-213" data-name="Ellipse 68" cx="2" cy="2" r="2" transform="translate(807 409)" fill="#f5efe5"/>
        <circle id="Ellipse_68-214" data-name="Ellipse 68" cx="2" cy="2" r="2" transform="translate(825 409)" fill="#f5efe5"/>
        <circle id="Ellipse_68-215" data-name="Ellipse 68" cx="2" cy="2" r="2" transform="translate(842 409)" fill="#f5efe5"/>
        <circle id="Ellipse_68-216" data-name="Ellipse 68" cx="2" cy="2" r="2" transform="translate(860 409)" fill="#f5efe5"/>
        <ellipse id="Ellipse_68-217" data-name="Ellipse 68" cx="2.5" cy="2" rx="2.5" ry="2" transform="translate(877 409)" fill="#f5efe5"/>
        <circle id="Ellipse_68-218" data-name="Ellipse 68" cx="2" cy="2" r="2" transform="translate(772 427)" fill="#f5efe5"/>
        <circle id="Ellipse_68-219" data-name="Ellipse 68" cx="2" cy="2" r="2" transform="translate(790 427)" fill="#f5efe5"/>
        <circle id="Ellipse_68-220" data-name="Ellipse 68" cx="2" cy="2" r="2" transform="translate(807 427)" fill="#f5efe5"/>
        <circle id="Ellipse_68-221" data-name="Ellipse 68" cx="2" cy="2" r="2" transform="translate(825 427)" fill="#f5efe5"/>
        <circle id="Ellipse_68-222" data-name="Ellipse 68" cx="2" cy="2" r="2" transform="translate(842 427)" fill="#f5efe5"/>
        <circle id="Ellipse_68-223" data-name="Ellipse 68" cx="2" cy="2" r="2" transform="translate(860 427)" fill="#f5efe5"/>
        <ellipse id="Ellipse_68-224" data-name="Ellipse 68" cx="2.5" cy="2" rx="2.5" ry="2" transform="translate(877 427)" fill="#f5efe5"/>
        <circle id="Ellipse_68-225" data-name="Ellipse 68" cx="2" cy="2" r="2" transform="translate(772 444)" fill="#f5efe5"/>
        <circle id="Ellipse_68-226" data-name="Ellipse 68" cx="2" cy="2" r="2" transform="translate(790 444)" fill="#f5efe5"/>
        <circle id="Ellipse_68-227" data-name="Ellipse 68" cx="2" cy="2" r="2" transform="translate(807 444)" fill="#f5efe5"/>
        <circle id="Ellipse_68-228" data-name="Ellipse 68" cx="2" cy="2" r="2" transform="translate(825 444)" fill="#f5efe5"/>
        <circle id="Ellipse_68-229" data-name="Ellipse 68" cx="2" cy="2" r="2" transform="translate(842 444)" fill="#f5efe5"/>
        <circle id="Ellipse_68-230" data-name="Ellipse 68" cx="2" cy="2" r="2" transform="translate(860 444)" fill="#f5efe5"/>
        <ellipse id="Ellipse_68-231" data-name="Ellipse 68" cx="2.5" cy="2" rx="2.5" ry="2" transform="translate(877 444)" fill="#f5efe5"/>
        <circle id="Ellipse_68-232" data-name="Ellipse 68" cx="2" cy="2" r="2" transform="translate(772 462)" fill="#f5efe5"/>
        <circle id="Ellipse_68-233" data-name="Ellipse 68" cx="2" cy="2" r="2" transform="translate(790 462)" fill="#f5efe5"/>
        <circle id="Ellipse_68-234" data-name="Ellipse 68" cx="2" cy="2" r="2" transform="translate(807 462)" fill="#f5efe5"/>
        <circle id="Ellipse_68-235" data-name="Ellipse 68" cx="2" cy="2" r="2" transform="translate(825 462)" fill="#f5efe5"/>
        <circle id="Ellipse_68-236" data-name="Ellipse 68" cx="2" cy="2" r="2" transform="translate(842 462)" fill="#f5efe5"/>
        <circle id="Ellipse_68-237" data-name="Ellipse 68" cx="2" cy="2" r="2" transform="translate(860 462)" fill="#f5efe5"/>
        <ellipse id="Ellipse_68-238" data-name="Ellipse 68" cx="2.5" cy="2" rx="2.5" ry="2" transform="translate(877 462)" fill="#f5efe5"/>
        <circle id="Ellipse_68-239" data-name="Ellipse 68" cx="2" cy="2" r="2" transform="translate(772 479)" fill="#f5efe5"/>
        <circle id="Ellipse_68-240" data-name="Ellipse 68" cx="2" cy="2" r="2" transform="translate(790 479)" fill="#f5efe5"/>
        <circle id="Ellipse_68-241" data-name="Ellipse 68" cx="2" cy="2" r="2" transform="translate(807 479)" fill="#f5efe5"/>
        <circle id="Ellipse_68-242" data-name="Ellipse 68" cx="2" cy="2" r="2" transform="translate(825 479)" fill="#f5efe5"/>
        <circle id="Ellipse_68-243" data-name="Ellipse 68" cx="2" cy="2" r="2" transform="translate(842 479)" fill="#f5efe5"/>
        <circle id="Ellipse_68-244" data-name="Ellipse 68" cx="2" cy="2" r="2" transform="translate(860 479)" fill="#f5efe5"/>
        <ellipse id="Ellipse_68-245" data-name="Ellipse 68" cx="2.5" cy="2" rx="2.5" ry="2" transform="translate(877 479)" fill="#f5efe5"/>
        <circle id="Ellipse_68-246" data-name="Ellipse 68" cx="2" cy="2" r="2" transform="translate(772 497)" fill="#f5efe5"/>
        <circle id="Ellipse_68-247" data-name="Ellipse 68" cx="2" cy="2" r="2" transform="translate(790 497)" fill="#f5efe5"/>
        <circle id="Ellipse_68-248" data-name="Ellipse 68" cx="2" cy="2" r="2" transform="translate(807 497)" fill="#f5efe5"/>
        <circle id="Ellipse_68-249" data-name="Ellipse 68" cx="2" cy="2" r="2" transform="translate(825 497)" fill="#f5efe5"/>
        <circle id="Ellipse_68-250" data-name="Ellipse 68" cx="2" cy="2" r="2" transform="translate(842 497)" fill="#f5efe5"/>
        <circle id="Ellipse_68-251" data-name="Ellipse 68" cx="2" cy="2" r="2" transform="translate(860 497)" fill="#f5efe5"/>
        <ellipse id="Ellipse_68-252" data-name="Ellipse 68" cx="2.5" cy="2" rx="2.5" ry="2" transform="translate(877 497)" fill="#f5efe5"/>
      </g>
    </g>
    <rect id="Rectangle_931" data-name="Rectangle 931" width="180" height="173" rx="19" transform="translate(1957 2881)" fill="#f0f4fa"/>
    <path id="Rectangle_932" data-name="Rectangle 932" d="M0,0H16a0,0,0,0,1,0,0V13a3,3,0,0,1-3,3H3a3,3,0,0,1-3-3V0A0,0,0,0,1,0,0Z" transform="translate(1987 2881)" fill="#67abf9"/>
    <path id="Rectangle_933" data-name="Rectangle 933" d="M0,0H16a0,0,0,0,1,0,0V13a3,3,0,0,1-3,3H3a3,3,0,0,1-3-3V0A0,0,0,0,1,0,0Z" transform="translate(2096 2881)" fill="#67abf9"/>
    <line id="Line_13" data-name="Line 13" x2="179.465" transform="translate(1957.535 2909.866)" fill="none" stroke="#9bcaff" stroke-width="2"/>
    <rect id="Rectangle_934" data-name="Rectangle 934" width="15" height="15" transform="translate(1987 2945)" fill="#9bcaff"/>
    <rect id="Rectangle_934-2" data-name="Rectangle 934" width="15" height="15" transform="translate(2022 2945)" fill="#9bcaff"/>
    <rect id="Rectangle_934-3" data-name="Rectangle 934" width="15" height="15" transform="translate(2056 2945)" fill="#9bcaff"/>
    <rect id="Rectangle_934-4" data-name="Rectangle 934" width="15" height="15" transform="translate(2091 2982)" fill="#9bcaff"/>
    <rect id="Rectangle_934-5" data-name="Rectangle 934" width="15" height="15" transform="translate(1987 3018)" fill="#9bcaff"/>
    <rect id="Rectangle_934-6" data-name="Rectangle 934" width="15" height="15" transform="translate(2022 3018)" fill="#9bcaff"/>
    <rect id="Rectangle_934-7" data-name="Rectangle 934" width="15" height="15" transform="translate(2056 3018)" fill="#9bcaff"/>
    <rect id="Rectangle_934-8" data-name="Rectangle 934" width="15" height="15" transform="translate(2091 3018)" fill="#9bcaff"/>
    <path id="Rectangle_935" data-name="Rectangle 935" d="M0,0H85a15,15,0,0,1,15,15v0A15,15,0,0,1,85,30H0a0,0,0,0,1,0,0V0A0,0,0,0,1,0,0Z" transform="translate(1980 2974)" fill="#67abf9"/>
    <rect id="Rectangle_934-9" data-name="Rectangle 934" width="15" height="15" rx="7.5" transform="translate(1987 2982)" fill="#f8f8f8"/>
    <rect id="Rectangle_934-10" data-name="Rectangle 934" width="15" height="15" rx="7.5" transform="translate(2022 2982)" fill="#f8f8f8"/>
    <rect id="Rectangle_934-11" data-name="Rectangle 934" width="15" height="15" rx="7.5" transform="translate(2056 2982)" fill="#f8f8f8"/>
    <path id="Rectangle_936" data-name="Rectangle 936" d="M15,0H27a0,0,0,0,1,0,0V30a0,0,0,0,1,0,0H15A15,15,0,0,1,0,15v0A15,15,0,0,1,15,0Z" transform="translate(2087 2937)" fill="#67abf9"/>
    <rect id="Rectangle_934-12" data-name="Rectangle 934" width="15" height="15" rx="7.5" transform="translate(2091 2945)" fill="#f8f8f8"/>
    <rect id="Rectangle_937" data-name="Rectangle 937" width="6" height="592" transform="translate(2615 2679)" fill="#fff" opacity="0"/>
    <path id="Path_1049" data-name="Path 1049" d="M44.03,0V-592h65.12V0ZM149.85,0V-58.46h16.28q26.64,0,37.555-9.62T215.34-99.9q1.48-72.89,2.035-134.68t0-123.395q-.555-61.605-2.035-134.865-.74-21.46-12.4-31.08T162.8-533.54H149.85V-592H162.8q61.79,0,89.17,24.42t28.49,80.66q1.11,68.08,1.48,129.5t0,122.655q-.37,61.235-1.48,129.315Q279.35-49.21,252.71-24.6T166.13,0Z" transform="translate(2130 3273)" fill="#fff" opacity="0.22"/>
  </g>
</svg>
