<svg id="Component_75_1" data-name="Component 75 – 1" xmlns="http://www.w3.org/2000/svg" xmlns:xlink="http://www.w3.org/1999/xlink" width="334" height="256" viewBox="0 0 334 256">
  <defs>
    <clipPath id="clip-path">
      <rect id="Rectangle_957" data-name="Rectangle 957" width="109" height="117" fill="none"/>
    </clipPath>
    <clipPath id="clip-path-2">
      <rect id="Rectangle_953" data-name="Rectangle 953" width="63.797" height="51" transform="translate(3)" fill="none"/>
    </clipPath>
    <clipPath id="clip-path-3">
      <rect id="Rectangle_961" data-name="Rectangle 961" width="3" height="3" transform="translate(-0.202)" fill="none"/>
    </clipPath>
    <clipPath id="clip-path-4">
      <rect id="Rectangle_962" data-name="Rectangle 962" width="3" height="3" transform="translate(0.283)" fill="none"/>
    </clipPath>
    <clipPath id="clip-path-5">
      <rect id="Rectangle_963" data-name="Rectangle 963" width="3" height="3" transform="translate(-0.3)" fill="none"/>
    </clipPath>
    <clipPath id="clip-path-6">
      <rect id="Rectangle_964" data-name="Rectangle 964" width="3" height="3" transform="translate(0.186)" fill="none"/>
    </clipPath>
  </defs>
  <rect id="Rectangle_954" data-name="Rectangle 954" width="2" height="256" transform="translate(332)" fill="#5597e5" opacity="0"/>
  <g id="Repeat_Grid_55" data-name="Repeat Grid 55" transform="translate(0 63)" clip-path="url(#clip-path)">
    <g id="Group_1144" data-name="Group 1144" transform="translate(-511 -845)">
      <g id="Group_1143" data-name="Group 1143" transform="translate(511 845)" opacity="0.219">
        <g id="Group_674" data-name="Group 674" transform="translate(35)">
          <circle id="Ellipse_68" data-name="Ellipse 68" cx="1.5" cy="1.5" r="1.5" fill="#fff"/>
        </g>
        <g id="Group_674-2" data-name="Group 674" transform="translate(42)">
          <circle id="Ellipse_68-2" data-name="Ellipse 68" cx="1.5" cy="1.5" r="1.5" fill="#fff"/>
        </g>
        <g id="Group_674-3" data-name="Group 674" transform="translate(49)">
          <circle id="Ellipse_68-3" data-name="Ellipse 68" cx="1.5" cy="1.5" r="1.5" fill="#fff"/>
        </g>
        <g id="Group_674-4" data-name="Group 674" transform="translate(56)">
          <circle id="Ellipse_68-4" data-name="Ellipse 68" cx="1.5" cy="1.5" r="1.5" fill="#fff"/>
        </g>
        <g id="Group_674-5" data-name="Group 674" transform="translate(63)">
          <circle id="Ellipse_68-5" data-name="Ellipse 68" cx="1.5" cy="1.5" r="1.5" fill="#fff"/>
        </g>
        <g id="Group_674-6" data-name="Group 674" transform="translate(70)">
          <circle id="Ellipse_68-6" data-name="Ellipse 68" cx="1.5" cy="1.5" r="1.5" fill="#fff"/>
        </g>
        <g id="Group_674-7" data-name="Group 674" transform="translate(77)">
          <circle id="Ellipse_68-7" data-name="Ellipse 68" cx="1.5" cy="1.5" r="1.5" fill="#fff"/>
        </g>
        <g id="Group_674-8" data-name="Group 674" transform="translate(35 7)">
          <circle id="Ellipse_68-8" data-name="Ellipse 68" cx="1.5" cy="1.5" r="1.5" fill="#fff"/>
        </g>
        <g id="Group_674-9" data-name="Group 674" transform="translate(42 7)">
          <circle id="Ellipse_68-9" data-name="Ellipse 68" cx="1.5" cy="1.5" r="1.5" fill="#fff"/>
        </g>
        <g id="Group_674-10" data-name="Group 674" transform="translate(49 7)">
          <circle id="Ellipse_68-10" data-name="Ellipse 68" cx="1.5" cy="1.5" r="1.5" fill="#fff"/>
        </g>
        <g id="Group_674-11" data-name="Group 674" transform="translate(56 7)">
          <circle id="Ellipse_68-11" data-name="Ellipse 68" cx="1.5" cy="1.5" r="1.5" fill="#fff"/>
        </g>
        <g id="Group_674-12" data-name="Group 674" transform="translate(63 7)">
          <circle id="Ellipse_68-12" data-name="Ellipse 68" cx="1.5" cy="1.5" r="1.5" fill="#fff"/>
        </g>
        <g id="Group_674-13" data-name="Group 674" transform="translate(70 7)">
          <circle id="Ellipse_68-13" data-name="Ellipse 68" cx="1.5" cy="1.5" r="1.5" fill="#fff"/>
        </g>
        <g id="Group_674-14" data-name="Group 674" transform="translate(77 7)">
          <circle id="Ellipse_68-14" data-name="Ellipse 68" cx="1.5" cy="1.5" r="1.5" fill="#fff"/>
        </g>
        <g id="Group_674-15" data-name="Group 674" transform="translate(35 14)">
          <circle id="Ellipse_68-15" data-name="Ellipse 68" cx="1.5" cy="1.5" r="1.5" fill="#fff"/>
        </g>
        <g id="Group_674-16" data-name="Group 674" transform="translate(42 14)">
          <circle id="Ellipse_68-16" data-name="Ellipse 68" cx="1.5" cy="1.5" r="1.5" fill="#fff"/>
        </g>
        <g id="Group_674-17" data-name="Group 674" transform="translate(49 14)">
          <circle id="Ellipse_68-17" data-name="Ellipse 68" cx="1.5" cy="1.5" r="1.5" fill="#fff"/>
        </g>
        <g id="Group_674-18" data-name="Group 674" transform="translate(56 14)">
          <circle id="Ellipse_68-18" data-name="Ellipse 68" cx="1.5" cy="1.5" r="1.5" fill="#fff"/>
        </g>
        <g id="Group_674-19" data-name="Group 674" transform="translate(63 14)">
          <circle id="Ellipse_68-19" data-name="Ellipse 68" cx="1.5" cy="1.5" r="1.5" fill="#fff"/>
        </g>
        <g id="Group_674-20" data-name="Group 674" transform="translate(70 14)">
          <circle id="Ellipse_68-20" data-name="Ellipse 68" cx="1.5" cy="1.5" r="1.5" fill="#fff"/>
        </g>
        <g id="Group_674-21" data-name="Group 674" transform="translate(77 14)">
          <circle id="Ellipse_68-21" data-name="Ellipse 68" cx="1.5" cy="1.5" r="1.5" fill="#fff"/>
        </g>
        <g id="Group_674-22" data-name="Group 674" transform="translate(35 21)">
          <circle id="Ellipse_68-22" data-name="Ellipse 68" cx="1.5" cy="1.5" r="1.5" fill="#fff"/>
        </g>
        <g id="Group_674-23" data-name="Group 674" transform="translate(42 21)">
          <circle id="Ellipse_68-23" data-name="Ellipse 68" cx="1.5" cy="1.5" r="1.5" fill="#fff"/>
        </g>
        <g id="Group_674-24" data-name="Group 674" transform="translate(35 28)">
          <circle id="Ellipse_68-24" data-name="Ellipse 68" cx="1.5" cy="1.5" r="1.5" fill="#fff"/>
        </g>
        <g id="Group_674-25" data-name="Group 674" transform="translate(42 28)">
          <circle id="Ellipse_68-25" data-name="Ellipse 68" cx="1.5" cy="1.5" r="1.5" fill="#fff"/>
        </g>
        <g id="Group_674-26" data-name="Group 674" transform="translate(35 35)">
          <circle id="Ellipse_68-26" data-name="Ellipse 68" cx="1.5" cy="1.5" r="1.5" fill="#fff"/>
        </g>
        <g id="Group_674-27" data-name="Group 674" transform="translate(42 35)">
          <circle id="Ellipse_68-27" data-name="Ellipse 68" cx="1.5" cy="1.5" r="1.5" fill="#fff"/>
        </g>
        <g id="Group_674-28" data-name="Group 674" transform="translate(35 42)">
          <circle id="Ellipse_68-28" data-name="Ellipse 68" cx="1.5" cy="1.5" r="1.5" fill="#fff"/>
        </g>
        <g id="Group_674-29" data-name="Group 674" transform="translate(42 42)">
          <circle id="Ellipse_68-29" data-name="Ellipse 68" cx="1.5" cy="1.5" r="1.5" fill="#fff"/>
        </g>
        <g id="Group_674-30" data-name="Group 674" transform="translate(35 49)">
          <circle id="Ellipse_68-30" data-name="Ellipse 68" cx="1.5" cy="1.5" r="1.5" fill="#fff"/>
        </g>
        <g id="Group_674-31" data-name="Group 674" transform="translate(42 49)">
          <circle id="Ellipse_68-31" data-name="Ellipse 68" cx="1.5" cy="1.5" r="1.5" fill="#fff"/>
        </g>
        <g id="Group_674-32" data-name="Group 674" transform="translate(35 56)">
          <circle id="Ellipse_68-32" data-name="Ellipse 68" cx="1.5" cy="1.5" r="1.5" fill="#fff"/>
        </g>
        <g id="Group_674-33" data-name="Group 674" transform="translate(42 56)">
          <circle id="Ellipse_68-33" data-name="Ellipse 68" cx="1.5" cy="1.5" r="1.5" fill="#fff"/>
        </g>
        <g id="Group_674-34" data-name="Group 674" transform="translate(35 63)">
          <circle id="Ellipse_68-34" data-name="Ellipse 68" cx="1.5" cy="1.5" r="1.5" fill="#fff"/>
        </g>
        <g id="Group_674-35" data-name="Group 674" transform="translate(42 63)">
          <circle id="Ellipse_68-35" data-name="Ellipse 68" cx="1.5" cy="1.5" r="1.5" fill="#fff"/>
        </g>
        <g id="Group_674-36" data-name="Group 674" transform="translate(35 70)">
          <circle id="Ellipse_68-36" data-name="Ellipse 68" cx="1.5" cy="1.5" r="1.5" fill="#fff"/>
        </g>
        <g id="Group_674-37" data-name="Group 674" transform="translate(42 70)">
          <circle id="Ellipse_68-37" data-name="Ellipse 68" cx="1.5" cy="1.5" r="1.5" fill="#fff"/>
        </g>
        <g id="Group_674-38" data-name="Group 674" transform="translate(35 77)">
          <circle id="Ellipse_68-38" data-name="Ellipse 68" cx="1.5" cy="1.5" r="1.5" fill="#fff"/>
        </g>
        <g id="Group_674-39" data-name="Group 674" transform="translate(42 77)">
          <circle id="Ellipse_68-39" data-name="Ellipse 68" cx="1.5" cy="1.5" r="1.5" fill="#fff"/>
        </g>
        <g id="Group_674-40" data-name="Group 674" transform="translate(35 84)">
          <circle id="Ellipse_68-40" data-name="Ellipse 68" cx="1.5" cy="1.5" r="1.5" fill="#fff"/>
        </g>
        <g id="Group_674-41" data-name="Group 674" transform="translate(42 84)">
          <circle id="Ellipse_68-41" data-name="Ellipse 68" cx="1.5" cy="1.5" r="1.5" fill="#fff"/>
        </g>
        <g id="Group_674-42" data-name="Group 674" transform="translate(35 91)">
          <circle id="Ellipse_68-42" data-name="Ellipse 68" cx="1.5" cy="1.5" r="1.5" fill="#fff"/>
        </g>
        <g id="Group_674-43" data-name="Group 674" transform="translate(42 91)">
          <circle id="Ellipse_68-43" data-name="Ellipse 68" cx="1.5" cy="1.5" r="1.5" fill="#fff"/>
        </g>
        <g id="Group_674-44" data-name="Group 674" transform="translate(35 98)">
          <circle id="Ellipse_68-44" data-name="Ellipse 68" cx="1.5" cy="1.5" r="1.5" fill="#fff"/>
        </g>
        <g id="Group_674-45" data-name="Group 674" transform="translate(42 98)">
          <circle id="Ellipse_68-45" data-name="Ellipse 68" cx="1.5" cy="1.5" r="1.5" fill="#fff"/>
        </g>
        <g id="Group_674-46" data-name="Group 674" transform="translate(49 98)">
          <circle id="Ellipse_68-46" data-name="Ellipse 68" cx="1.5" cy="1.5" r="1.5" fill="#fff"/>
        </g>
        <g id="Group_674-47" data-name="Group 674" transform="translate(56 98)">
          <circle id="Ellipse_68-47" data-name="Ellipse 68" cx="1.5" cy="1.5" r="1.5" fill="#fff"/>
        </g>
        <g id="Group_674-48" data-name="Group 674" transform="translate(63 98)">
          <circle id="Ellipse_68-48" data-name="Ellipse 68" cx="1.5" cy="1.5" r="1.5" fill="#fff"/>
        </g>
        <g id="Group_674-49" data-name="Group 674" transform="translate(70 98)">
          <circle id="Ellipse_68-49" data-name="Ellipse 68" cx="1.5" cy="1.5" r="1.5" fill="#fff"/>
        </g>
        <g id="Group_674-50" data-name="Group 674" transform="translate(77 98)">
          <circle id="Ellipse_68-50" data-name="Ellipse 68" cx="1.5" cy="1.5" r="1.5" fill="#fff"/>
        </g>
        <g id="Group_674-51" data-name="Group 674" transform="translate(35 105)">
          <circle id="Ellipse_68-51" data-name="Ellipse 68" cx="1.5" cy="1.5" r="1.5" fill="#fff"/>
        </g>
        <g id="Group_674-52" data-name="Group 674" transform="translate(42 105)">
          <circle id="Ellipse_68-52" data-name="Ellipse 68" cx="1.5" cy="1.5" r="1.5" fill="#fff"/>
        </g>
        <g id="Group_674-53" data-name="Group 674" transform="translate(49 105)">
          <circle id="Ellipse_68-53" data-name="Ellipse 68" cx="1.5" cy="1.5" r="1.5" fill="#fff"/>
        </g>
        <g id="Group_674-54" data-name="Group 674" transform="translate(56 105)">
          <circle id="Ellipse_68-54" data-name="Ellipse 68" cx="1.5" cy="1.5" r="1.5" fill="#fff"/>
        </g>
        <g id="Group_674-55" data-name="Group 674" transform="translate(63 105)">
          <circle id="Ellipse_68-55" data-name="Ellipse 68" cx="1.5" cy="1.5" r="1.5" fill="#fff"/>
        </g>
        <g id="Group_674-56" data-name="Group 674" transform="translate(70 105)">
          <circle id="Ellipse_68-56" data-name="Ellipse 68" cx="1.5" cy="1.5" r="1.5" fill="#fff"/>
        </g>
        <g id="Group_674-57" data-name="Group 674" transform="translate(77 105)">
          <circle id="Ellipse_68-57" data-name="Ellipse 68" cx="1.5" cy="1.5" r="1.5" fill="#fff"/>
        </g>
        <g id="Group_674-58" data-name="Group 674" transform="translate(35 112)">
          <circle id="Ellipse_68-58" data-name="Ellipse 68" cx="1.5" cy="1.5" r="1.5" fill="#fff"/>
        </g>
        <g id="Group_674-59" data-name="Group 674" transform="translate(42 112)">
          <circle id="Ellipse_68-59" data-name="Ellipse 68" cx="1.5" cy="1.5" r="1.5" fill="#fff"/>
        </g>
        <g id="Group_674-60" data-name="Group 674" transform="translate(49 112)">
          <circle id="Ellipse_68-60" data-name="Ellipse 68" cx="1.5" cy="1.5" r="1.5" fill="#fff"/>
        </g>
        <g id="Group_674-61" data-name="Group 674" transform="translate(56 112)">
          <circle id="Ellipse_68-61" data-name="Ellipse 68" cx="1.5" cy="1.5" r="1.5" fill="#fff"/>
        </g>
        <g id="Group_674-62" data-name="Group 674" transform="translate(63 112)">
          <circle id="Ellipse_68-62" data-name="Ellipse 68" cx="1.5" cy="1.5" r="1.5" fill="#fff"/>
        </g>
        <g id="Group_674-63" data-name="Group 674" transform="translate(70 112)">
          <circle id="Ellipse_68-63" data-name="Ellipse 68" cx="1.5" cy="1.5" r="1.5" fill="#fff"/>
        </g>
        <g id="Group_674-64" data-name="Group 674" transform="translate(77 112)">
          <circle id="Ellipse_68-64" data-name="Ellipse 68" cx="1.5" cy="1.5" r="1.5" fill="#fff"/>
        </g>
        <g id="Group_674-65" data-name="Group 674" transform="translate(35 119)">
          <circle id="Ellipse_68-65" data-name="Ellipse 68" cx="1.5" cy="1.5" r="1.5" fill="#fff"/>
        </g>
        <g id="Group_674-66" data-name="Group 674" transform="translate(42 119)">
          <circle id="Ellipse_68-66" data-name="Ellipse 68" cx="1.5" cy="1.5" r="1.5" fill="#fff"/>
        </g>
        <g id="Group_674-67" data-name="Group 674" transform="translate(49 119)">
          <circle id="Ellipse_68-67" data-name="Ellipse 68" cx="1.5" cy="1.5" r="1.5" fill="#fff"/>
        </g>
        <g id="Group_674-68" data-name="Group 674" transform="translate(56 119)">
          <circle id="Ellipse_68-68" data-name="Ellipse 68" cx="1.5" cy="1.5" r="1.5" fill="#fff"/>
        </g>
        <g id="Group_674-69" data-name="Group 674" transform="translate(63 119)">
          <circle id="Ellipse_68-69" data-name="Ellipse 68" cx="1.5" cy="1.5" r="1.5" fill="#fff"/>
        </g>
        <g id="Group_674-70" data-name="Group 674" transform="translate(70 119)">
          <circle id="Ellipse_68-70" data-name="Ellipse 68" cx="1.5" cy="1.5" r="1.5" fill="#fff"/>
        </g>
        <g id="Group_674-71" data-name="Group 674" transform="translate(77 119)">
          <circle id="Ellipse_68-71" data-name="Ellipse 68" cx="1.5" cy="1.5" r="1.5" fill="#fff"/>
        </g>
      </g>
    </g>
    <g id="Group_1145" data-name="Group 1145" transform="translate(-426 -845)">
      <g id="Group_1157" data-name="Group 1157" transform="translate(511 845)" opacity="0.219">
        <g id="Group_674-72" data-name="Group 674">
          <circle id="Ellipse_68-72" data-name="Ellipse 68" cx="1.5" cy="1.5" r="1.5" fill="#fff"/>
        </g>
        <g id="Group_674-73" data-name="Group 674" transform="translate(7)">
          <circle id="Ellipse_68-73" data-name="Ellipse 68" cx="1.5" cy="1.5" r="1.5" fill="#fff"/>
        </g>
        <g id="Group_674-74" data-name="Group 674" transform="translate(14)">
          <circle id="Ellipse_68-74" data-name="Ellipse 68" cx="1.5" cy="1.5" r="1.5" fill="#fff"/>
        </g>
        <g id="Group_674-75" data-name="Group 674" transform="translate(21)">
          <circle id="Ellipse_68-75" data-name="Ellipse 68" cx="1.5" cy="1.5" r="1.5" fill="#fff"/>
        </g>
        <g id="Group_674-76" data-name="Group 674" transform="translate(0 7)">
          <circle id="Ellipse_68-76" data-name="Ellipse 68" cx="1.5" cy="1.5" r="1.5" fill="#fff"/>
        </g>
        <g id="Group_674-77" data-name="Group 674" transform="translate(7 7)">
          <circle id="Ellipse_68-77" data-name="Ellipse 68" cx="1.5" cy="1.5" r="1.5" fill="#fff"/>
        </g>
        <g id="Group_674-78" data-name="Group 674" transform="translate(14 7)">
          <circle id="Ellipse_68-78" data-name="Ellipse 68" cx="1.5" cy="1.5" r="1.5" fill="#fff"/>
        </g>
        <g id="Group_674-79" data-name="Group 674" transform="translate(21 7)">
          <circle id="Ellipse_68-79" data-name="Ellipse 68" cx="1.5" cy="1.5" r="1.5" fill="#fff"/>
        </g>
        <g id="Group_674-80" data-name="Group 674" transform="translate(0 14)">
          <circle id="Ellipse_68-80" data-name="Ellipse 68" cx="1.5" cy="1.5" r="1.5" fill="#fff"/>
        </g>
        <g id="Group_674-81" data-name="Group 674" transform="translate(7 14)">
          <circle id="Ellipse_68-81" data-name="Ellipse 68" cx="1.5" cy="1.5" r="1.5" fill="#fff"/>
        </g>
        <g id="Group_674-82" data-name="Group 674" transform="translate(14 14)">
          <circle id="Ellipse_68-82" data-name="Ellipse 68" cx="1.5" cy="1.5" r="1.5" fill="#fff"/>
        </g>
        <g id="Group_674-83" data-name="Group 674" transform="translate(21 14)">
          <circle id="Ellipse_68-83" data-name="Ellipse 68" cx="1.5" cy="1.5" r="1.5" fill="#fff"/>
        </g>
        <g id="Group_674-84" data-name="Group 674" transform="translate(0 98)">
          <circle id="Ellipse_68-84" data-name="Ellipse 68" cx="1.5" cy="1.5" r="1.5" fill="#fff"/>
        </g>
        <g id="Group_674-85" data-name="Group 674" transform="translate(7 98)">
          <circle id="Ellipse_68-85" data-name="Ellipse 68" cx="1.5" cy="1.5" r="1.5" fill="#fff"/>
        </g>
        <g id="Group_674-86" data-name="Group 674" transform="translate(14 98)">
          <circle id="Ellipse_68-86" data-name="Ellipse 68" cx="1.5" cy="1.5" r="1.5" fill="#fff"/>
        </g>
        <g id="Group_674-87" data-name="Group 674" transform="translate(21 98)">
          <circle id="Ellipse_68-87" data-name="Ellipse 68" cx="1.5" cy="1.5" r="1.5" fill="#fff"/>
        </g>
        <g id="Group_674-88" data-name="Group 674" transform="translate(0 105)">
          <circle id="Ellipse_68-88" data-name="Ellipse 68" cx="1.5" cy="1.5" r="1.5" fill="#fff"/>
        </g>
        <g id="Group_674-89" data-name="Group 674" transform="translate(7 105)">
          <circle id="Ellipse_68-89" data-name="Ellipse 68" cx="1.5" cy="1.5" r="1.5" fill="#fff"/>
        </g>
        <g id="Group_674-90" data-name="Group 674" transform="translate(14 105)">
          <circle id="Ellipse_68-90" data-name="Ellipse 68" cx="1.5" cy="1.5" r="1.5" fill="#fff"/>
        </g>
        <g id="Group_674-91" data-name="Group 674" transform="translate(21 105)">
          <circle id="Ellipse_68-91" data-name="Ellipse 68" cx="1.5" cy="1.5" r="1.5" fill="#fff"/>
        </g>
        <g id="Group_674-92" data-name="Group 674" transform="translate(0 112)">
          <circle id="Ellipse_68-92" data-name="Ellipse 68" cx="1.5" cy="1.5" r="1.5" fill="#fff"/>
        </g>
        <g id="Group_674-93" data-name="Group 674" transform="translate(7 112)">
          <circle id="Ellipse_68-93" data-name="Ellipse 68" cx="1.5" cy="1.5" r="1.5" fill="#fff"/>
        </g>
        <g id="Group_674-94" data-name="Group 674" transform="translate(14 112)">
          <circle id="Ellipse_68-94" data-name="Ellipse 68" cx="1.5" cy="1.5" r="1.5" fill="#fff"/>
        </g>
        <g id="Group_674-95" data-name="Group 674" transform="translate(21 112)">
          <circle id="Ellipse_68-95" data-name="Ellipse 68" cx="1.5" cy="1.5" r="1.5" fill="#fff"/>
        </g>
        <g id="Group_674-96" data-name="Group 674" transform="translate(0 119)">
          <circle id="Ellipse_68-96" data-name="Ellipse 68" cx="1.5" cy="1.5" r="1.5" fill="#fff"/>
        </g>
        <g id="Group_674-97" data-name="Group 674" transform="translate(7 119)">
          <circle id="Ellipse_68-97" data-name="Ellipse 68" cx="1.5" cy="1.5" r="1.5" fill="#fff"/>
        </g>
        <g id="Group_674-98" data-name="Group 674" transform="translate(14 119)">
          <circle id="Ellipse_68-98" data-name="Ellipse 68" cx="1.5" cy="1.5" r="1.5" fill="#fff"/>
        </g>
        <g id="Group_674-99" data-name="Group 674" transform="translate(21 119)">
          <circle id="Ellipse_68-99" data-name="Ellipse 68" cx="1.5" cy="1.5" r="1.5" fill="#fff"/>
        </g>
      </g>
    </g>
  </g>
  <path id="Path_1055" data-name="Path 1055" d="M6.621,0H63.307a6.633,6.633,0,0,1,6.621,6.644V65.323a6.633,6.633,0,0,1-6.621,6.644H6.621A6.633,6.633,0,0,1,0,65.323V6.644A6.633,6.633,0,0,1,6.621,0Z" transform="translate(49.961 85.008)" fill="#f0f4fa"/>
  <g id="dncForm" transform="translate(44.391 15.5)">
    <g id="Repeat_Grid_52" data-name="Repeat Grid 52" transform="translate(4.5 81)" clip-path="url(#clip-path-2)">
      <g id="Group_671" data-name="Group 671" transform="translate(4.188)">
        <rect id="Rectangle_318" data-name="Rectangle 318" width="59" height="15" rx="4" transform="translate(2.421 19)" fill="#5597e5"/>
        <rect id="Rectangle_318-2" data-name="Rectangle 318" width="59" height="15" rx="4" transform="translate(2.421 1.5)" fill="#5597e5"/>
        <g id="Trailing_icon" data-name="Trailing icon" transform="translate(51.185 6)">
          <rect id="Boundary" width="8" height="6" transform="translate(0.128 0)" fill="none"/>
          <path id="_Color" data-name=" ↳Color" d="M3.333,4.208a3.754,3.754,0,0,1-2.038-.591A3.37,3.37,0,0,1,0,2.1,3.371,3.371,0,0,1,1.295.591a3.812,3.812,0,0,1,4.077,0A3.371,3.371,0,0,1,6.666,2.1,3.371,3.371,0,0,1,5.371,3.618,3.754,3.754,0,0,1,3.333,4.208ZM3.333.7A1.452,1.452,0,0,0,1.818,2.1a1.452,1.452,0,0,0,1.514,1.4A1.452,1.452,0,0,0,4.848,2.1,1.452,1.452,0,0,0,3.333.7Zm0,2.244A.873.873,0,0,1,2.424,2.1a.874.874,0,0,1,.909-.842.873.873,0,0,1,.909.842.873.873,0,0,1-.909.841Z" transform="translate(0.713 0.978)" fill="#f0f4fa"/>
        </g>
        <g id="Repeat_Grid_44" data-name="Repeat Grid 44" transform="translate(6.515 7)" clip-path="url(#clip-path-3)">
          <g id="Group_1158" data-name="Group 1158">
            <circle id="Ellipse_67" data-name="Ellipse 67" cx="1.5" cy="1.5" r="1.5" transform="translate(-0.202)" fill="#f0f4fa"/>
          </g>
        </g>
        <g id="Repeat_Grid_45" data-name="Repeat Grid 45" transform="translate(12.029 7)" clip-path="url(#clip-path-4)">
          <g id="Group_1159" data-name="Group 1159">
            <circle id="Ellipse_67-2" data-name="Ellipse 67" cx="1.5" cy="1.5" r="1.5" transform="translate(0.283)" fill="#f0f4fa"/>
          </g>
        </g>
        <g id="Repeat_Grid_46" data-name="Repeat Grid 46" transform="translate(18.613 7)" clip-path="url(#clip-path-5)">
          <g id="Group_1160" data-name="Group 1160">
            <circle id="Ellipse_67-3" data-name="Ellipse 67" cx="1.5" cy="1.5" r="1.5" transform="translate(-0.3)" fill="#f0f4fa"/>
          </g>
        </g>
        <g id="Repeat_Grid_47" data-name="Repeat Grid 47" transform="translate(24.127 7)" clip-path="url(#clip-path-6)">
          <g id="Group_1161" data-name="Group 1161">
            <circle id="Ellipse_67-4" data-name="Ellipse 67" cx="1.5" cy="1.5" r="1.5" transform="translate(0.186)" fill="#f0f4fa"/>
          </g>
        </g>
        <rect id="Rectangle_318-3" data-name="Rectangle 318" width="59" height="9" rx="4" transform="translate(2.421 39)" fill="#5597e5"/>
      </g>
    </g>
  </g>
  <rect id="Rectangle_959" data-name="Rectangle 959" width="22" height="4" rx="2" transform="translate(59 122)" fill="#f0f4fa"/>
</svg>
