<svg id="Component_49_1" data-name="Component 49 – 1" xmlns="http://www.w3.org/2000/svg" width="323.549" height="256.81" viewBox="0 0 323.549 256.81">
  <path id="Intersection_10" data-name="Intersection 10" d="M-5978.561-1475v-154.56q-.159-9.919-4.559-14.24t-12.88-4.32a21.889,21.889,0,0,0-8.32,1.44v-17.92a37.515,37.515,0,0,1,8.561-3.6,39.055,39.055,0,0,1,10.8-1.361q17.12,0,25.84,9.841t8.88,32.4V-1475Zm-71.519,0v-154.56q-.321-18.558-17.44-18.559a25.665,25.665,0,0,0-9.279,1.6v-17.441q7.358-5.6,20-5.6,17.12,0,26.08,9.841t9.119,32.4V-1475Zm-72.481,0v-192h28.48v192Zm-70.4,0v-255h28.159v255Z" transform="translate(6273.789 1730)" fill="#f4f4f4" opacity="0.144"/>
  <g id="Component_43_1" data-name="Component 43 – 1" transform="translate(0 59)">
    <g id="Group_629" data-name="Group 629" transform="translate(15.887 9.487)">
      <g id="Group_627" data-name="Group 627">
        <path id="Path_232" data-name="Path 232" d="M455.98,500.511s18.38.229,18.756,0c0,0,2.326-98.416,4.105-119.765,2.385-28.609,1.946-67.958-13.621-67.958s-17.405,21.373-13.134,78.731C455.368,435.586,455.98,500.511,455.98,500.511Z" transform="translate(-433.433 -312.787)" fill="#679e4a" stroke="#679e4a" stroke-width="1"/>
        <g id="Group_626" data-name="Group 626" transform="translate(0 17.17)">
          <path id="Path_233" data-name="Path 233" d="M481.145,445.667s20.067,4.386,22.828-15.463c2.81-29.787,8.458-82.093,8.458-82.093l1.817-20.516" transform="translate(-444.342 -327.594)" fill="none" stroke="#679e4a" stroke-linecap="round" stroke-miterlimit="10" stroke-width="15"/>
          <path id="Path_234" data-name="Path 234" d="M447.579,435.961s-15.351,3.052-18.744-4.912-5.586-45.952-5.586-45.952" transform="translate(-423.249 -344.669)" fill="none" stroke="#679e4a" stroke-linecap="round" stroke-miterlimit="10" stroke-width="15"/>
        </g>
      </g>
    </g>
    <g id="Group_645" data-name="Group 645" transform="translate(42.168)">
      <text id="V" transform="translate(-0.38 11)" fill="#679e4a" font-size="11" font-family="Chalkboard" letter-spacing="0.018em"><tspan x="0" y="0">V</tspan></text>
    </g>
    <g id="Group_646" data-name="Group 646" transform="matrix(0.616, -0.788, 0.788, 0.616, 23.996, 21.735)">
      <text id="V-2" data-name="V" transform="translate(0 10)" fill="#679e4a" font-size="10" font-family="Chalkboard" letter-spacing="0.018em"><tspan x="0" y="0">V</tspan></text>
    </g>
    <g id="Group_647" data-name="Group 647" transform="matrix(0.53, 0.848, -0.848, 0.53, 66.01, 14.534)">
      <text id="V-3" data-name="V" transform="translate(0 10)" fill="#679e4a" font-size="10" font-family="Chalkboard" letter-spacing="0.018em"><tspan x="0" y="0">V</tspan></text>
    </g>
    <g id="Group_648" data-name="Group 648" transform="matrix(0.848, 0.53, -0.53, 0.848, 24.594, 57.239)">
      <text id="V-4" data-name="V" transform="translate(0 10)" fill="#679e4a" font-size="10" font-family="Chalkboard" letter-spacing="0.018em"><tspan x="0" y="0">V</tspan></text>
    </g>
    <g id="Group_649" data-name="Group 649" transform="matrix(0.848, 0.53, -0.53, 0.848, 93.197, 15.819)">
      <text id="V-5" data-name="V" transform="translate(0 10)" fill="#679e4a" font-size="10" font-family="Chalkboard" letter-spacing="0.018em"><tspan x="0" y="0">V</tspan></text>
    </g>
    <g id="Group_650" data-name="Group 650" transform="translate(0 72.851) rotate(-69)">
      <text id="V-6" data-name="V" transform="translate(0 10)" fill="#679e4a" font-size="10" font-family="Chalkboard" letter-spacing="0.018em"><tspan x="0" y="0">V</tspan></text>
    </g>
    <g id="Group_651" data-name="Group 651" transform="matrix(0.017, -1, 1, 0.017, 0.919, 93.264)">
      <text id="V-7" data-name="V" transform="translate(0 10)" fill="#679e4a" font-size="10" font-family="Chalkboard" letter-spacing="0.018em"><tspan x="0" y="0">V</tspan></text>
    </g>
    <g id="Group_652" data-name="Group 652" transform="translate(4.533 111.094) rotate(-96)">
      <text id="V-8" data-name="V" transform="translate(0 10)" fill="#679e4a" font-size="10" font-family="Chalkboard" letter-spacing="0.018em"><tspan x="0" y="0">V</tspan></text>
    </g>
    <g id="Group_653" data-name="Group 653" transform="translate(31.316 73.747) rotate(68)">
      <text id="V-9" data-name="V" transform="translate(0 10)" fill="#679e4a" font-size="10" font-family="Chalkboard" letter-spacing="0.018em"><tspan x="0" y="0">V</tspan></text>
    </g>
    <g id="Group_654" data-name="Group 654" transform="translate(33.052 91.005) rotate(68)">
      <text id="V-10" data-name="V" transform="translate(0 10)" fill="#679e4a" font-size="10" font-family="Chalkboard" letter-spacing="0.018em"><tspan x="0" y="0">V</tspan></text>
    </g>
    <g id="Group_655" data-name="Group 655" transform="translate(21.428 48.499) rotate(-84)">
      <text id="V-11" data-name="V" transform="translate(0 10)" fill="#679e4a" font-size="10" font-family="Chalkboard" letter-spacing="0.018em"><tspan x="0" y="0">V</tspan></text>
    </g>
    <g id="Group_656" data-name="Group 656" transform="translate(72.56 31.998) rotate(89)">
      <text id="V-12" data-name="V" transform="translate(0 10)" fill="#679e4a" font-size="10" font-family="Chalkboard" letter-spacing="0.018em"><tspan x="0" y="0">V</tspan></text>
    </g>
    <g id="Group_657" data-name="Group 657" transform="translate(65.716 56.697) rotate(-84)">
      <text id="V-13" data-name="V" transform="translate(0 10)" fill="#679e4a" font-size="10" font-family="Chalkboard" letter-spacing="0.018em"><tspan x="0" y="0">V</tspan></text>
    </g>
    <g id="Group_658" data-name="Group 658" transform="translate(63.98 74.387) rotate(-84)">
      <text id="V-14" data-name="V" transform="translate(0 10)" fill="#679e4a" font-size="10" font-family="Chalkboard" letter-spacing="0.018em"><tspan x="0" y="0">V</tspan></text>
    </g>
    <g id="Group_659" data-name="Group 659" transform="translate(69.624 32.967) rotate(-84)">
      <text id="V-15" data-name="V" transform="translate(0 10)" fill="#679e4a" font-size="10" font-family="Chalkboard" letter-spacing="0.018em"><tspan x="0" y="0">V</tspan></text>
    </g>
    <g id="Group_660" data-name="Group 660" transform="translate(98.663 59.359) rotate(96)">
      <text id="V-16" data-name="V" transform="translate(0 10)" fill="#679e4a" font-size="10" font-family="Chalkboard" letter-spacing="0.018em"><tspan x="0" y="0">V</tspan></text>
    </g>
    <g id="Group_661" data-name="Group 661" transform="translate(100.4 41.669) rotate(96)">
      <text id="V-17" data-name="V" transform="translate(0 10)" fill="#679e4a" font-size="10" font-family="Chalkboard" letter-spacing="0.018em"><tspan x="0" y="0">V</tspan></text>
    </g>
    <g id="Group_662" data-name="Group 662" transform="translate(94.755 83.09) rotate(96)">
      <text id="V-18" data-name="V" transform="translate(0 10)" fill="#679e4a" font-size="10" font-family="Chalkboard" letter-spacing="0.018em"><tspan x="0" y="0">V</tspan></text>
    </g>
  </g>
</svg>
