<svg id="Component_59_1" data-name="Component 59 – 1" xmlns="http://www.w3.org/2000/svg" width="306.832" height="256" viewBox="0 0 306.832 256">
  <g id="Group_117" data-name="Group 117" transform="translate(-150.587 -2021.733)" opacity="0.85">
    <g id="Ellipse_139" data-name="Ellipse 139" transform="translate(153.419 2098.733)" fill="none" stroke="#eacdc9" stroke-width="0.5">
      <ellipse cx="47" cy="44" rx="47" ry="44" stroke="none"/>
      <ellipse cx="47" cy="44" rx="46.75" ry="43.75" fill="none"/>
    </g>
    <g id="Path_73" data-name="Path 73" transform="translate(152.119 2095.634) rotate(-2)" fill="none">
      <path d="M41.074,0C67.053-.021,90.881,13.243,90.86,39.778S72.981,93.376,47,93.4-.021,71.924,0,45.389,15.095.021,41.074,0Z" stroke="none"/>
      <path d="M 41.13504409790039 0.4999923706054688 L 41.07412719726562 0.5000228881835938 C 28.70346832275391 0.5099868774414062 18.36588287353516 4.860427856445312 11.17893981933594 13.0810546875 C 7.726318359375 17.03024291992188 5.057929992675781 21.80178070068359 3.247871398925781 27.26312255859375 C 1.429672241210938 32.74906539916992 0.5051498413085938 38.84775924682617 0.5 45.38978576660156 C 0.4949493408203125 51.80722045898438 1.719688415527344 58.03134918212891 4.140220642089844 63.88931274414062 C 6.477996826171875 69.54701995849609 9.827278137207031 74.62763214111328 14.09500885009766 78.99000549316406 C 18.36190032958984 83.35151672363281 23.33209228515625 86.77552795410156 28.86752700805664 89.16690063476562 C 34.59715270996094 91.64218139648438 40.68559646606445 92.89725494384766 46.96375274658203 92.89725494384766 L 47.001220703125 92.89723968505859 C 53.17230224609375 92.89228057861328 59.08296203613281 91.34709167480469 64.56900024414062 88.30461883544922 C 69.70900726318359 85.45405578613281 74.31800842285156 81.39041900634766 78.26795959472656 76.22658538818359 C 85.94220733642578 66.19396209716797 90.34954833984375 52.90883255004883 90.35987854003906 39.77765655517578 C 90.36484527587891 33.47380828857422 89.00141906738281 27.69793701171875 86.30750274658203 22.61048126220703 C 83.79254150390625 17.86098480224609 80.13841247558594 13.73635864257812 75.44659423828125 10.35118103027344 C 66.64192962646484 3.998550415039062 54.45651626586914 0.4999923706054688 41.13504409790039 0.4999923706054688 M 41.13504791259766 -7.62939453125e-06 C 67.09201049804688 -7.62939453125e-06 90.88074493408203 13.26253509521484 90.85987854003906 39.77804183959961 C 90.83899688720703 66.31290435791016 72.98077392578125 93.37632751464844 47.00162124633789 93.39723968505859 C 46.99052047729492 93.39725494384766 46.97484970092773 93.39725494384766 46.96375274658203 93.39725494384766 C 20.99990844726562 93.39725494384766 -0.0208740234375 71.9129638671875 0 45.38939666748047 C 0.02088165283203125 18.85447692871094 15.09456634521484 0.02093505859375 41.07372665405273 2.288818359375e-05 C 41.09275436401367 7.62939453125e-06 41.11602020263672 -7.62939453125e-06 41.13504791259766 -7.62939453125e-06 Z" stroke="none" fill="#eacdc9"/>
    </g>
    <g id="Path_76" data-name="Path 76" transform="translate(149.206 2094.749)" fill="none">
      <path d="M51.255,6.241c25.978,0,43.176,17.469,43.176,41.984s-17.2,42.481-43.176,42.481S6.763,72.739,6.763,48.224,25.276,6.241,51.255,6.241Z" stroke="none"/>
      <path d="M 51.25476455688477 6.740715026855469 C 44.93748474121094 6.740715026855469 38.97026443481445 7.777229309082031 33.51884460449219 9.821449279785156 C 28.21776580810547 11.80930328369141 23.5382080078125 14.69661712646484 19.61016082763672 18.40318298339844 C 15.68438720703125 22.10762786865234 12.62685394287109 26.51951599121094 10.52249908447266 31.51631927490234 C 8.359710693359375 36.65187072753906 7.263084411621094 42.27322769165039 7.263084411621094 48.22426223754883 C 7.263084411621094 54.17975997924805 8.359916687011719 59.82778167724609 10.52313232421875 65.01145172119141 C 12.63098907470703 70.06249237060547 15.68931579589844 74.53239440917969 19.61316680908203 78.29698181152344 C 23.54889678955078 82.07296752929688 28.22863006591797 85.01731872558594 33.52238464355469 87.04824829101562 C 38.98295211791992 89.14318084716797 44.9489860534668 90.20539093017578 51.25476455688477 90.20539093017578 C 57.54908752441406 90.20539093017578 63.44472885131836 89.14364624023438 68.77790832519531 87.04965972900391 C 73.92878723144531 85.02725219726562 78.45501708984375 82.08493804931641 82.23085021972656 78.30445098876953 C 85.97137451171875 74.559326171875 88.8787841796875 70.09013366699219 90.87234497070312 65.02101898193359 C 92.90171051025391 59.86085891723633 93.93067169189453 54.20961761474609 93.93067169189453 48.22426223754883 C 93.93067169189453 42.24359512329102 92.90189361572266 36.61899566650391 90.87291717529297 31.50669097900391 C 88.88274383544922 26.49217987060547 85.97611999511719 22.08102416992188 82.23379516601562 18.39579772949219 C 78.46535491943359 14.68482971191406 73.93933868408203 11.79953765869141 68.781494140625 9.820091247558594 C 63.45721817016602 7.776771545410156 57.56037521362305 6.740715026855469 51.25476455688477 6.740715026855469 M 51.25476455688477 6.240715026855469 C 77.23318481445312 6.240715026855469 94.43067169189453 23.70970153808594 94.43067169189453 48.22426223754883 C 94.43067169189453 72.73880767822266 77.23318481445312 90.70539093017578 51.25476455688477 90.70539093017578 C 25.27632904052734 90.70539093017578 6.763084411621094 72.73880767822266 6.763084411621094 48.22426223754883 C 6.763084411621094 23.70970153808594 25.27632904052734 6.240715026855469 51.25476455688477 6.240715026855469 Z" stroke="none" fill="#eacdc9"/>
    </g>
    <path id="Path_77" data-name="Path 77" d="M34.234-9.5c23.919.189,36.7,18.511,36.7,37.239S57.739,64.2,37.627,64.2-3.146,46.472-3.146,27.744,10.315-9.684,34.234-9.5Z" transform="translate(164.633 2116.458)" fill="#f5efe5"/>
    <g id="Path_75" data-name="Path 75" transform="translate(151.289 2097.794)" fill="none">
      <path d="M49.939-4.77C76.92-4.77,94,18.794,94,44.369S75.353,91.943,48.372,91.943,0,68.952,0,43.376,22.959-4.77,49.939-4.77Z" stroke="none"/>
      <path d="M 49.93938827514648 -4.270034790039062 C 43.43458938598633 -4.270034790039062 37.0451774597168 -2.962333679199219 30.94863891601562 -0.383270263671875 C 28.03651428222656 0.848663330078125 25.21366119384766 2.369300842285156 22.55847930908203 4.136405944824219 C 19.93614959716797 5.881629943847656 17.46041107177734 7.878341674804688 15.20004272460938 10.07109069824219 C 12.94416046142578 12.25946807861328 10.89019775390625 14.65526580810547 9.095199584960938 17.19193267822266 C 7.284652709960938 19.75059509277344 5.726722717285156 22.46810150146484 4.464714050292969 25.26900482177734 C 1.83392333984375 31.10773086547852 0.5 37.19985580444336 0.5 43.37614059448242 C 0.5 49.58467864990234 1.753150939941406 55.70265197753906 4.224662780761719 61.56011581420898 C 5.417854309082031 64.38797760009766 6.892440795898438 67.12844085693359 8.607452392578125 69.70539093017578 C 10.31566619873047 72.27212524414062 12.27341461181641 74.69328308105469 14.42633819580078 76.90160369873047 C 18.84040069580078 81.42924499511719 23.95671081542969 84.99298095703125 29.63314819335938 87.49378967285156 C 35.58190155029297 90.11457824707031 41.88665008544922 91.44342803955078 48.37227630615234 91.44342803955078 C 54.8541145324707 91.44342803955078 61.01433944702148 90.16700744628906 66.68185424804688 87.64962005615234 C 72.07722473144531 85.25310516357422 76.87397766113281 81.80731964111328 80.93886566162109 77.40798187255859 C 84.92338562011719 73.09561920166016 88.03982543945312 68.05076599121094 90.20162963867188 62.41358184814453 C 92.39312744140625 56.69894409179688 93.50430297851562 50.62801742553711 93.50430297851562 44.36946487426758 C 93.50430297851562 38.05679321289062 92.47372436523438 31.89870452880859 90.44119262695312 26.06626510620117 C 88.40740203857422 20.23023223876953 85.46880340576172 15.00331878662109 81.70700073242188 10.53071594238281 C 77.81586456298828 5.904319763183594 73.20059967041016 2.28106689453125 67.98942565917969 -0.2383956909179688 C 62.45616149902344 -2.913597106933594 56.38325119018555 -4.270034790039062 49.93938827514648 -4.270034790039062 M 49.93938827514648 -4.770034790039062 C 76.92021179199219 -4.770034790039062 94.00430297851562 18.79389190673828 94.00430297851562 44.36946487426758 C 94.00430297851562 69.945068359375 75.35310363769531 91.94342803955078 48.37227630615234 91.94342803955078 C 21.39144134521484 91.94342803955078 0 68.95174407958984 0 43.37614059448242 C 0 17.80055236816406 22.95858001708984 -4.770034790039062 49.93938827514648 -4.770034790039062 Z" stroke="none" fill="#eacdc9"/>
    </g>
    <g id="Path_74" data-name="Path 74" transform="translate(150.587 2094.528)" fill="none">
      <path d="M48.853,0c26.981,0,42.7,22.751,42.7,48.326s-15.715,44.291-42.7,44.291S0,71.884,0,46.309,21.872,0,48.853,0Z" stroke="none"/>
      <path d="M 48.85311508178711 0.5 C 42.322021484375 0.5 35.98677444458008 1.712310791015625 30.02334976196289 4.103263854980469 C 24.26476287841797 6.412086486816406 19.09333038330078 9.717063903808594 14.65272521972656 13.9263916015625 C 10.21399688720703 18.13393402099609 6.729408264160156 23.03282928466797 4.295730590820312 28.48701477050781 C 1.777069091796875 34.13164901733398 0.5 40.12773132324219 0.5 46.30870819091797 C 0.5 52.48968505859375 1.777069091796875 58.48576736450195 4.295730590820312 64.13041687011719 C 6.729408264160156 69.5845947265625 10.21399688720703 74.48349761962891 14.65272521972656 78.6910400390625 C 19.09333038330078 82.90035247802734 24.26476287841797 86.20532989501953 30.02334976196289 88.51415252685547 C 35.98677444458008 90.90510559082031 42.322021484375 92.11741638183594 48.85311508178711 92.11741638183594 C 61.68110656738281 92.11741638183594 72.43496704101562 87.83143615722656 79.95211791992188 79.72282409667969 C 83.541259765625 75.85128784179688 86.31640625 71.19041442871094 88.20049285888672 65.86967468261719 C 90.09051513671875 60.53214263916016 91.04884338378906 54.62973022460938 91.04884338378906 48.32640075683594 C 91.04884338378906 41.98226165771484 90.08938598632812 35.8643798828125 88.19710540771484 30.14269638061523 C 86.28889465332031 24.37281036376953 83.50827026367188 19.24100494384766 79.9324951171875 14.88980102539062 C 76.22013854980469 10.37241363525391 71.76480102539062 6.844841003417969 66.69020843505859 4.405059814453125 C 61.30066680908203 1.813850402832031 55.29939651489258 0.5 48.85311508178711 0.5 M 48.85311508178711 0 C 75.83393859863281 0 91.54884338378906 22.75080108642578 91.54884338378906 48.32640075683594 C 91.54884338378906 73.9019775390625 75.83393859863281 92.61741638183594 48.85311508178711 92.61741638183594 C 21.87229156494141 92.61741638183594 0 71.88430786132812 0 46.30870819091797 C 0 20.73311614990234 21.87229156494141 0 48.85311508178711 0 Z" stroke="none" fill="#eacdc9"/>
    </g>
  </g>
  <text id="_" data-name="&lt;/&gt;" transform="translate(25.832 131)" fill="#f87ba1" font-size="25" font-family="BodoniSvtyTwoITCTT-Book, 'Bodoni 72'" letter-spacing="0.018em" opacity="0.502"><tspan x="0" y="0">&lt;/&gt;</tspan></text>
  <rect id="Rectangle_882" data-name="Rectangle 882" width="2" height="256" transform="translate(304.832)" fill="#fff" opacity="0"/>
</svg>
