<svg id="Component_76_1" data-name="Component 76 – 1" xmlns="http://www.w3.org/2000/svg" xmlns:xlink="http://www.w3.org/1999/xlink" width="308" height="263" viewBox="0 0 308 263">
  <defs>
    <clipPath id="clip-path">
      <rect id="Rectangle_958" data-name="Rectangle 958" width="109" height="117" fill="none"/>
    </clipPath>
  </defs>
  <g id="shareData" transform="translate(-259 14)">
    <g id="Repeat_Grid_55" data-name="Repeat Grid 55" transform="translate(259 59)" clip-path="url(#clip-path)">
      <g id="Group_1146" data-name="Group 1146" transform="translate(-511 -845)">
        <g id="Group_1148" data-name="Group 1148" transform="translate(511 845)" opacity="0.219">
          <g id="Group_674" data-name="Group 674">
            <circle id="Ellipse_68" data-name="Ellipse 68" cx="1.5" cy="1.5" r="1.5" fill="#fff"/>
          </g>
          <g id="Group_674-2" data-name="Group 674" transform="translate(7)">
            <circle id="Ellipse_68-2" data-name="Ellipse 68" cx="1.5" cy="1.5" r="1.5" fill="#fff"/>
          </g>
          <g id="Group_674-3" data-name="Group 674" transform="translate(14)">
            <circle id="Ellipse_68-3" data-name="Ellipse 68" cx="1.5" cy="1.5" r="1.5" fill="#fff"/>
          </g>
          <g id="Group_674-4" data-name="Group 674" transform="translate(21)">
            <circle id="Ellipse_68-4" data-name="Ellipse 68" cx="1.5" cy="1.5" r="1.5" fill="#fff"/>
          </g>
          <g id="Group_674-5" data-name="Group 674" transform="translate(28)">
            <circle id="Ellipse_68-5" data-name="Ellipse 68" cx="1.5" cy="1.5" r="1.5" fill="#fff"/>
          </g>
          <g id="Group_674-6" data-name="Group 674" transform="translate(35)">
            <circle id="Ellipse_68-6" data-name="Ellipse 68" cx="1.5" cy="1.5" r="1.5" fill="#fff"/>
          </g>
          <g id="Group_674-7" data-name="Group 674" transform="translate(42)">
            <circle id="Ellipse_68-7" data-name="Ellipse 68" cx="1.5" cy="1.5" r="1.5" fill="#fff"/>
          </g>
          <g id="Group_674-8" data-name="Group 674" transform="translate(49)">
            <circle id="Ellipse_68-8" data-name="Ellipse 68" cx="1.5" cy="1.5" r="1.5" fill="#fff"/>
          </g>
          <g id="Group_674-9" data-name="Group 674" transform="translate(56)">
            <circle id="Ellipse_68-9" data-name="Ellipse 68" cx="1.5" cy="1.5" r="1.5" fill="#fff"/>
          </g>
          <g id="Group_674-10" data-name="Group 674" transform="translate(63)">
            <circle id="Ellipse_68-10" data-name="Ellipse 68" cx="1.5" cy="1.5" r="1.5" fill="#fff"/>
          </g>
          <g id="Group_674-11" data-name="Group 674" transform="translate(70)">
            <circle id="Ellipse_68-11" data-name="Ellipse 68" cx="1.5" cy="1.5" r="1.5" fill="#fff"/>
          </g>
          <g id="Group_674-12" data-name="Group 674" transform="translate(77)">
            <circle id="Ellipse_68-12" data-name="Ellipse 68" cx="1.5" cy="1.5" r="1.5" fill="#fff"/>
          </g>
          <g id="Group_674-13" data-name="Group 674" transform="translate(0 7)">
            <circle id="Ellipse_68-13" data-name="Ellipse 68" cx="1.5" cy="1.5" r="1.5" fill="#fff"/>
          </g>
          <g id="Group_674-14" data-name="Group 674" transform="translate(7 7)">
            <circle id="Ellipse_68-14" data-name="Ellipse 68" cx="1.5" cy="1.5" r="1.5" fill="#fff"/>
          </g>
          <g id="Group_674-15" data-name="Group 674" transform="translate(14 7)">
            <circle id="Ellipse_68-15" data-name="Ellipse 68" cx="1.5" cy="1.5" r="1.5" fill="#fff"/>
          </g>
          <g id="Group_674-16" data-name="Group 674" transform="translate(21 7)">
            <circle id="Ellipse_68-16" data-name="Ellipse 68" cx="1.5" cy="1.5" r="1.5" fill="#fff"/>
          </g>
          <g id="Group_674-17" data-name="Group 674" transform="translate(28 7)">
            <circle id="Ellipse_68-17" data-name="Ellipse 68" cx="1.5" cy="1.5" r="1.5" fill="#fff"/>
          </g>
          <g id="Group_674-18" data-name="Group 674" transform="translate(35 7)">
            <circle id="Ellipse_68-18" data-name="Ellipse 68" cx="1.5" cy="1.5" r="1.5" fill="#fff"/>
          </g>
          <g id="Group_674-19" data-name="Group 674" transform="translate(42 7)">
            <circle id="Ellipse_68-19" data-name="Ellipse 68" cx="1.5" cy="1.5" r="1.5" fill="#fff"/>
          </g>
          <g id="Group_674-20" data-name="Group 674" transform="translate(49 7)">
            <circle id="Ellipse_68-20" data-name="Ellipse 68" cx="1.5" cy="1.5" r="1.5" fill="#fff"/>
          </g>
          <g id="Group_674-21" data-name="Group 674" transform="translate(56 7)">
            <circle id="Ellipse_68-21" data-name="Ellipse 68" cx="1.5" cy="1.5" r="1.5" fill="#fff"/>
          </g>
          <g id="Group_674-22" data-name="Group 674" transform="translate(63 7)">
            <circle id="Ellipse_68-22" data-name="Ellipse 68" cx="1.5" cy="1.5" r="1.5" fill="#fff"/>
          </g>
          <g id="Group_674-23" data-name="Group 674" transform="translate(70 7)">
            <circle id="Ellipse_68-23" data-name="Ellipse 68" cx="1.5" cy="1.5" r="1.5" fill="#fff"/>
          </g>
          <g id="Group_674-24" data-name="Group 674" transform="translate(77 7)">
            <circle id="Ellipse_68-24" data-name="Ellipse 68" cx="1.5" cy="1.5" r="1.5" fill="#fff"/>
          </g>
          <g id="Group_674-25" data-name="Group 674" transform="translate(0 14)">
            <circle id="Ellipse_68-25" data-name="Ellipse 68" cx="1.5" cy="1.5" r="1.5" fill="#fff"/>
          </g>
          <g id="Group_674-26" data-name="Group 674" transform="translate(7 14)">
            <circle id="Ellipse_68-26" data-name="Ellipse 68" cx="1.5" cy="1.5" r="1.5" fill="#fff"/>
          </g>
          <g id="Group_674-27" data-name="Group 674" transform="translate(14 14)">
            <circle id="Ellipse_68-27" data-name="Ellipse 68" cx="1.5" cy="1.5" r="1.5" fill="#fff"/>
          </g>
          <g id="Group_674-28" data-name="Group 674" transform="translate(21 14)">
            <circle id="Ellipse_68-28" data-name="Ellipse 68" cx="1.5" cy="1.5" r="1.5" fill="#fff"/>
          </g>
          <g id="Group_674-29" data-name="Group 674" transform="translate(28 14)">
            <circle id="Ellipse_68-29" data-name="Ellipse 68" cx="1.5" cy="1.5" r="1.5" fill="#fff"/>
          </g>
          <g id="Group_674-30" data-name="Group 674" transform="translate(35 14)">
            <circle id="Ellipse_68-30" data-name="Ellipse 68" cx="1.5" cy="1.5" r="1.5" fill="#fff"/>
          </g>
          <g id="Group_674-31" data-name="Group 674" transform="translate(42 14)">
            <circle id="Ellipse_68-31" data-name="Ellipse 68" cx="1.5" cy="1.5" r="1.5" fill="#fff"/>
          </g>
          <g id="Group_674-32" data-name="Group 674" transform="translate(49 14)">
            <circle id="Ellipse_68-32" data-name="Ellipse 68" cx="1.5" cy="1.5" r="1.5" fill="#fff"/>
          </g>
          <g id="Group_674-33" data-name="Group 674" transform="translate(56 14)">
            <circle id="Ellipse_68-33" data-name="Ellipse 68" cx="1.5" cy="1.5" r="1.5" fill="#fff"/>
          </g>
          <g id="Group_674-34" data-name="Group 674" transform="translate(63 14)">
            <circle id="Ellipse_68-34" data-name="Ellipse 68" cx="1.5" cy="1.5" r="1.5" fill="#fff"/>
          </g>
          <g id="Group_674-35" data-name="Group 674" transform="translate(70 14)">
            <circle id="Ellipse_68-35" data-name="Ellipse 68" cx="1.5" cy="1.5" r="1.5" fill="#fff"/>
          </g>
          <g id="Group_674-36" data-name="Group 674" transform="translate(77 14)">
            <circle id="Ellipse_68-36" data-name="Ellipse 68" cx="1.5" cy="1.5" r="1.5" fill="#fff"/>
          </g>
          <g id="Group_674-37" data-name="Group 674" transform="translate(0 21)">
            <circle id="Ellipse_68-37" data-name="Ellipse 68" cx="1.5" cy="1.5" r="1.5" fill="#fff"/>
          </g>
          <g id="Group_674-38" data-name="Group 674" transform="translate(7 21)">
            <circle id="Ellipse_68-38" data-name="Ellipse 68" cx="1.5" cy="1.5" r="1.5" fill="#fff"/>
          </g>
          <g id="Group_674-39" data-name="Group 674" transform="translate(0 28)">
            <circle id="Ellipse_68-39" data-name="Ellipse 68" cx="1.5" cy="1.5" r="1.5" fill="#fff"/>
          </g>
          <g id="Group_674-40" data-name="Group 674" transform="translate(7 28)">
            <circle id="Ellipse_68-40" data-name="Ellipse 68" cx="1.5" cy="1.5" r="1.5" fill="#fff"/>
          </g>
          <g id="Group_674-41" data-name="Group 674" transform="translate(0 35)">
            <circle id="Ellipse_68-41" data-name="Ellipse 68" cx="1.5" cy="1.5" r="1.5" fill="#fff"/>
          </g>
          <g id="Group_674-42" data-name="Group 674" transform="translate(7 35)">
            <circle id="Ellipse_68-42" data-name="Ellipse 68" cx="1.5" cy="1.5" r="1.5" fill="#fff"/>
          </g>
          <g id="Group_674-43" data-name="Group 674" transform="translate(0 42)">
            <circle id="Ellipse_68-43" data-name="Ellipse 68" cx="1.5" cy="1.5" r="1.5" fill="#fff"/>
          </g>
          <g id="Group_674-44" data-name="Group 674" transform="translate(7 42)">
            <circle id="Ellipse_68-44" data-name="Ellipse 68" cx="1.5" cy="1.5" r="1.5" fill="#fff"/>
          </g>
          <g id="Group_674-45" data-name="Group 674" transform="translate(0 49)">
            <circle id="Ellipse_68-45" data-name="Ellipse 68" cx="1.5" cy="1.5" r="1.5" fill="#fff"/>
          </g>
          <g id="Group_674-46" data-name="Group 674" transform="translate(7 49)">
            <circle id="Ellipse_68-46" data-name="Ellipse 68" cx="1.5" cy="1.5" r="1.5" fill="#fff"/>
          </g>
          <g id="Group_674-47" data-name="Group 674" transform="translate(0 56)">
            <circle id="Ellipse_68-47" data-name="Ellipse 68" cx="1.5" cy="1.5" r="1.5" fill="#fff"/>
          </g>
          <g id="Group_674-48" data-name="Group 674" transform="translate(7 56)">
            <circle id="Ellipse_68-48" data-name="Ellipse 68" cx="1.5" cy="1.5" r="1.5" fill="#fff"/>
          </g>
          <g id="Group_674-49" data-name="Group 674" transform="translate(0 63)">
            <circle id="Ellipse_68-49" data-name="Ellipse 68" cx="1.5" cy="1.5" r="1.5" fill="#fff"/>
          </g>
          <g id="Group_674-50" data-name="Group 674" transform="translate(7 63)">
            <circle id="Ellipse_68-50" data-name="Ellipse 68" cx="1.5" cy="1.5" r="1.5" fill="#fff"/>
          </g>
          <g id="Group_674-51" data-name="Group 674" transform="translate(0 70)">
            <circle id="Ellipse_68-51" data-name="Ellipse 68" cx="1.5" cy="1.5" r="1.5" fill="#fff"/>
          </g>
          <g id="Group_674-52" data-name="Group 674" transform="translate(7 70)">
            <circle id="Ellipse_68-52" data-name="Ellipse 68" cx="1.5" cy="1.5" r="1.5" fill="#fff"/>
          </g>
          <g id="Group_674-53" data-name="Group 674" transform="translate(0 77)">
            <circle id="Ellipse_68-53" data-name="Ellipse 68" cx="1.5" cy="1.5" r="1.5" fill="#fff"/>
          </g>
          <g id="Group_674-54" data-name="Group 674" transform="translate(7 77)">
            <circle id="Ellipse_68-54" data-name="Ellipse 68" cx="1.5" cy="1.5" r="1.5" fill="#fff"/>
          </g>
          <g id="Group_674-55" data-name="Group 674" transform="translate(0 84)">
            <circle id="Ellipse_68-55" data-name="Ellipse 68" cx="1.5" cy="1.5" r="1.5" fill="#fff"/>
          </g>
          <g id="Group_674-56" data-name="Group 674" transform="translate(7 84)">
            <circle id="Ellipse_68-56" data-name="Ellipse 68" cx="1.5" cy="1.5" r="1.5" fill="#fff"/>
          </g>
          <g id="Group_674-57" data-name="Group 674" transform="translate(0 91)">
            <circle id="Ellipse_68-57" data-name="Ellipse 68" cx="1.5" cy="1.5" r="1.5" fill="#fff"/>
          </g>
          <g id="Group_674-58" data-name="Group 674" transform="translate(7 91)">
            <circle id="Ellipse_68-58" data-name="Ellipse 68" cx="1.5" cy="1.5" r="1.5" fill="#fff"/>
          </g>
          <g id="Group_674-59" data-name="Group 674" transform="translate(0 98)">
            <circle id="Ellipse_68-59" data-name="Ellipse 68" cx="1.5" cy="1.5" r="1.5" fill="#fff"/>
          </g>
          <g id="Group_674-60" data-name="Group 674" transform="translate(7 98)">
            <circle id="Ellipse_68-60" data-name="Ellipse 68" cx="1.5" cy="1.5" r="1.5" fill="#fff"/>
          </g>
          <g id="Group_674-61" data-name="Group 674" transform="translate(14 98)">
            <circle id="Ellipse_68-61" data-name="Ellipse 68" cx="1.5" cy="1.5" r="1.5" fill="#fff"/>
          </g>
          <g id="Group_674-62" data-name="Group 674" transform="translate(21 98)">
            <circle id="Ellipse_68-62" data-name="Ellipse 68" cx="1.5" cy="1.5" r="1.5" fill="#fff"/>
          </g>
          <g id="Group_674-63" data-name="Group 674" transform="translate(28 98)">
            <circle id="Ellipse_68-63" data-name="Ellipse 68" cx="1.5" cy="1.5" r="1.5" fill="#fff"/>
          </g>
          <g id="Group_674-64" data-name="Group 674" transform="translate(35 98)">
            <circle id="Ellipse_68-64" data-name="Ellipse 68" cx="1.5" cy="1.5" r="1.5" fill="#fff"/>
          </g>
          <g id="Group_674-65" data-name="Group 674" transform="translate(42 98)">
            <circle id="Ellipse_68-65" data-name="Ellipse 68" cx="1.5" cy="1.5" r="1.5" fill="#fff"/>
          </g>
          <g id="Group_674-66" data-name="Group 674" transform="translate(49 98)">
            <circle id="Ellipse_68-66" data-name="Ellipse 68" cx="1.5" cy="1.5" r="1.5" fill="#fff"/>
          </g>
          <g id="Group_674-67" data-name="Group 674" transform="translate(56 98)">
            <circle id="Ellipse_68-67" data-name="Ellipse 68" cx="1.5" cy="1.5" r="1.5" fill="#fff"/>
          </g>
          <g id="Group_674-68" data-name="Group 674" transform="translate(63 98)">
            <circle id="Ellipse_68-68" data-name="Ellipse 68" cx="1.5" cy="1.5" r="1.5" fill="#fff"/>
          </g>
          <g id="Group_674-69" data-name="Group 674" transform="translate(70 98)">
            <circle id="Ellipse_68-69" data-name="Ellipse 68" cx="1.5" cy="1.5" r="1.5" fill="#fff"/>
          </g>
          <g id="Group_674-70" data-name="Group 674" transform="translate(77 98)">
            <circle id="Ellipse_68-70" data-name="Ellipse 68" cx="1.5" cy="1.5" r="1.5" fill="#fff"/>
          </g>
          <g id="Group_674-71" data-name="Group 674" transform="translate(0 105)">
            <circle id="Ellipse_68-71" data-name="Ellipse 68" cx="1.5" cy="1.5" r="1.5" fill="#fff"/>
          </g>
          <g id="Group_674-72" data-name="Group 674" transform="translate(7 105)">
            <circle id="Ellipse_68-72" data-name="Ellipse 68" cx="1.5" cy="1.5" r="1.5" fill="#fff"/>
          </g>
          <g id="Group_674-73" data-name="Group 674" transform="translate(14 105)">
            <circle id="Ellipse_68-73" data-name="Ellipse 68" cx="1.5" cy="1.5" r="1.5" fill="#fff"/>
          </g>
          <g id="Group_674-74" data-name="Group 674" transform="translate(21 105)">
            <circle id="Ellipse_68-74" data-name="Ellipse 68" cx="1.5" cy="1.5" r="1.5" fill="#fff"/>
          </g>
          <g id="Group_674-75" data-name="Group 674" transform="translate(28 105)">
            <circle id="Ellipse_68-75" data-name="Ellipse 68" cx="1.5" cy="1.5" r="1.5" fill="#fff"/>
          </g>
          <g id="Group_674-76" data-name="Group 674" transform="translate(35 105)">
            <circle id="Ellipse_68-76" data-name="Ellipse 68" cx="1.5" cy="1.5" r="1.5" fill="#fff"/>
          </g>
          <g id="Group_674-77" data-name="Group 674" transform="translate(42 105)">
            <circle id="Ellipse_68-77" data-name="Ellipse 68" cx="1.5" cy="1.5" r="1.5" fill="#fff"/>
          </g>
          <g id="Group_674-78" data-name="Group 674" transform="translate(49 105)">
            <circle id="Ellipse_68-78" data-name="Ellipse 68" cx="1.5" cy="1.5" r="1.5" fill="#fff"/>
          </g>
          <g id="Group_674-79" data-name="Group 674" transform="translate(56 105)">
            <circle id="Ellipse_68-79" data-name="Ellipse 68" cx="1.5" cy="1.5" r="1.5" fill="#fff"/>
          </g>
          <g id="Group_674-80" data-name="Group 674" transform="translate(63 105)">
            <circle id="Ellipse_68-80" data-name="Ellipse 68" cx="1.5" cy="1.5" r="1.5" fill="#fff"/>
          </g>
          <g id="Group_674-81" data-name="Group 674" transform="translate(70 105)">
            <circle id="Ellipse_68-81" data-name="Ellipse 68" cx="1.5" cy="1.5" r="1.5" fill="#fff"/>
          </g>
          <g id="Group_674-82" data-name="Group 674" transform="translate(77 105)">
            <circle id="Ellipse_68-82" data-name="Ellipse 68" cx="1.5" cy="1.5" r="1.5" fill="#fff"/>
          </g>
          <g id="Group_674-83" data-name="Group 674" transform="translate(0 112)">
            <circle id="Ellipse_68-83" data-name="Ellipse 68" cx="1.5" cy="1.5" r="1.5" fill="#fff"/>
          </g>
          <g id="Group_674-84" data-name="Group 674" transform="translate(7 112)">
            <circle id="Ellipse_68-84" data-name="Ellipse 68" cx="1.5" cy="1.5" r="1.5" fill="#fff"/>
          </g>
          <g id="Group_674-85" data-name="Group 674" transform="translate(14 112)">
            <circle id="Ellipse_68-85" data-name="Ellipse 68" cx="1.5" cy="1.5" r="1.5" fill="#fff"/>
          </g>
          <g id="Group_674-86" data-name="Group 674" transform="translate(21 112)">
            <circle id="Ellipse_68-86" data-name="Ellipse 68" cx="1.5" cy="1.5" r="1.5" fill="#fff"/>
          </g>
          <g id="Group_674-87" data-name="Group 674" transform="translate(28 112)">
            <circle id="Ellipse_68-87" data-name="Ellipse 68" cx="1.5" cy="1.5" r="1.5" fill="#fff"/>
          </g>
          <g id="Group_674-88" data-name="Group 674" transform="translate(35 112)">
            <circle id="Ellipse_68-88" data-name="Ellipse 68" cx="1.5" cy="1.5" r="1.5" fill="#fff"/>
          </g>
          <g id="Group_674-89" data-name="Group 674" transform="translate(42 112)">
            <circle id="Ellipse_68-89" data-name="Ellipse 68" cx="1.5" cy="1.5" r="1.5" fill="#fff"/>
          </g>
          <g id="Group_674-90" data-name="Group 674" transform="translate(49 112)">
            <circle id="Ellipse_68-90" data-name="Ellipse 68" cx="1.5" cy="1.5" r="1.5" fill="#fff"/>
          </g>
          <g id="Group_674-91" data-name="Group 674" transform="translate(56 112)">
            <circle id="Ellipse_68-91" data-name="Ellipse 68" cx="1.5" cy="1.5" r="1.5" fill="#fff"/>
          </g>
          <g id="Group_674-92" data-name="Group 674" transform="translate(63 112)">
            <circle id="Ellipse_68-92" data-name="Ellipse 68" cx="1.5" cy="1.5" r="1.5" fill="#fff"/>
          </g>
          <g id="Group_674-93" data-name="Group 674" transform="translate(70 112)">
            <circle id="Ellipse_68-93" data-name="Ellipse 68" cx="1.5" cy="1.5" r="1.5" fill="#fff"/>
          </g>
          <g id="Group_674-94" data-name="Group 674" transform="translate(77 112)">
            <circle id="Ellipse_68-94" data-name="Ellipse 68" cx="1.5" cy="1.5" r="1.5" fill="#fff"/>
          </g>
        </g>
      </g>
    </g>
  </g>
  <path id="Subtraction_1" data-name="Subtraction 1" d="M-9568.107-4745.687h-59.176a6.835,6.835,0,0,1-6.913-6.738v-37.049c.437-.011.867-.016,1.28-.016a51.072,51.072,0,0,1,13.924,1.933l.321.121c3.044,1.144,5.34,3.092,7.771,5.154,3.275,2.779,6.662,5.652,12.35,7.1-.791,4.149-1.506,7.284-2.137,10.05a79.572,79.572,0,0,0-2.138,12.256,64.189,64.189,0,0,0-.123,7.133l9.319.007c-1.229-6.958-.777-10.8.209-19.212v-.006l.008-.069c.173-1.471.368-3.138.572-4.97a37.74,37.74,0,0,0,12.314-7.9l.009-.008a39.349,39.349,0,0,1,4.871-3.86c.006-.007.148-.1.232-.147.149-.091.225-.139.227-.144a27.673,27.673,0,0,1,3.373-1.666,23.862,23.862,0,0,0,8.134-5.409c.412-.386.791-.75,1.209-1.153l.063-.06c.423-.407.822-.792,1.213-1.15v39.066A6.835,6.835,0,0,1-9568.107-4745.687Zm-11.383-29.768a2.867,2.867,0,0,0-.925,3.409l0,0a5.712,5.712,0,0,0,2.8,2.691c.873.5,1.628.934,1.908,1.718,1.616-2.091.75-5.059.09-6.642a2.576,2.576,0,0,0-2.412-1.64,2.579,2.579,0,0,0-.856.146,6.836,6.836,0,0,1,2.776,3.424,6.35,6.35,0,0,0-3.385-3.111Zm-38.662-9.6a2.706,2.706,0,0,0-2.344,2.833l0,.007a10.045,10.045,0,0,0,.661,3.5,4.491,4.491,0,0,0,2.123,2.439,3.965,3.965,0,0,1,1.023-2.427,6.061,6.061,0,0,0,1.425-3.694,2.736,2.736,0,0,0-2.218-2.651,6.724,6.724,0,0,0-1.787,4.339,7.269,7.269,0,0,1,1.111-4.351Zm-14.252-2.349h0a2.861,2.861,0,0,0-1.11,1.66,2.854,2.854,0,0,0,.249,1.979l0,.007c.771,1.473,2.432,3.944,4.9,3.944h.159a4,4,0,0,1-.14-2.64v-.008a6.135,6.135,0,0,0-.331-3.97,2.562,2.562,0,0,0-2.286-1.418,2.557,2.557,0,0,0-.842.143,6.882,6.882,0,0,0,.3,4.714,7.161,7.161,0,0,1-.9-4.412Zm40.035,12.628h0c.336-3.833.39-6.51.39-6.531a27.335,27.335,0,0,0,5.966-9.279c2.479-2.5,4.337-4.077,6.3-5.745l.012-.01.1-.082c.439-.373.895-.759,1.353-1.153a26.8,26.8,0,0,0,4.848-4.894s.047-.069.106-.16l.105-.16.134-.2c.118-.178.22-.331.224-.335a6.122,6.122,0,0,1,2-1.978c2.856-1.958,7.689-3.041,9.635-3.416v7c-.51.43-1.042.859-1.606,1.313l-.018.015a37.4,37.4,0,0,0-5.648,5.262,17.207,17.207,0,0,0-3.769,8.03c-.252.1-.639.243-.98.367l-.012,0c-.37.135-.687.25-.8.3a25.908,25.908,0,0,0-3.312,1.627,40.841,40.841,0,0,0-5.327,3.871l-.006,0a36.366,36.366,0,0,1-9.69,6.151Zm-5.441-4.651h0c-4.408-.745-7.538-2.915-11.161-5.428l-.237-.165c-.3-.608-.6-1.248-.9-1.866l-.048-.1a42.59,42.59,0,0,0-3.691-6.723,8.78,8.78,0,0,0-5.3-3.845l-.034.121c3.965,1.389,5.545,6.18,6.939,10.407l0,.007a20.933,20.933,0,0,0-7.178-2.954,48.664,48.664,0,0,0-8.418-.567,46.349,46.349,0,0,0-6.366.483v-1.116a2.579,2.579,0,0,0,1.167.287,2.519,2.519,0,0,0,1.6-.579,5.951,5.951,0,0,0,1.81-3.5,3.925,3.925,0,0,1,1.13-2.37,3.847,3.847,0,0,0-1.733-.405,6.951,6.951,0,0,0-3.974,1.569v-3.477a28.336,28.336,0,0,0,3.82.256c4.847,0,9.114-1.187,11.415-3.175a9.85,9.85,0,0,1,2.811-2.11,10.917,10.917,0,0,1,4.44-.688c.607,0,1.242.015,1.915.03l.435.01a23.1,23.1,0,0,0,5.162.584,23.183,23.183,0,0,0,2.894-.182,18.927,18.927,0,0,1,2.481-.164,18.715,18.715,0,0,1,2.142.123l-.1.6c-.247,1.5-.441,2.677-.618,3.887a26.625,26.625,0,0,0-.064,8.547c.348,2.646.707,5.381-.348,12.506Zm-8.434-11.57a5.9,5.9,0,0,0-2.784.7,2.754,2.754,0,0,0,1.69,3.037l0,.009a3.734,3.734,0,0,0,1.3.235h.039a7.066,7.066,0,0,0,2.269-.484,3.769,3.769,0,0,1,1.772-.445,3.758,3.758,0,0,1,.9.108c-.326-2.679-2.968-4.05-4.513-4.629a2.563,2.563,0,0,0-.874-.154,2.587,2.587,0,0,0-2.4,1.636,6.252,6.252,0,0,1,1.823-.271,6.188,6.188,0,0,1,2.45.5A5.861,5.861,0,0,0-9606.244-4790.994Zm13.991,2.163v0a32.239,32.239,0,0,0-.756-4.133l-.108-.482,0,0a26.839,26.839,0,0,1-.16-9.451,12.04,12.04,0,0,1,.8,1.058c1.727,2.485,2.537,4.6,2.551,6.652a11.075,11.075,0,0,1-2.331,6.351Zm23.7-.162v0c1.436-4.046,4.391-6.63,7.249-9.129l.113-.1v3.245a30.019,30.019,0,0,0-3.274,2.685,34.359,34.359,0,0,1-4.086,3.3Zm-65.637-4.772h0v-.526a6.924,6.924,0,0,1,1.468-1.508A6.635,6.635,0,0,0-9634.194-4793.765Zm48.883-1.775v0A16.813,16.813,0,0,0-9587.8-4803a14.781,14.781,0,0,0-5.042-5.314,39.506,39.506,0,0,0-.341-7.558l0-.022c-.114-.916-.223-1.781-.284-2.79h8.935a3.523,3.523,0,0,1,.76.368c.021-.132.038-.253.047-.368h5.205a4.3,4.3,0,0,0-.075.876,3.613,3.613,0,0,1,1.414-.287,3.639,3.639,0,0,1,1.2.2l0,.01a9.585,9.585,0,0,0,1.7.2h.07a3.953,3.953,0,0,0,1.9-.489,2.835,2.835,0,0,0,.646-.511h1.068a6.913,6.913,0,0,1-1.772,2.836,8.268,8.268,0,0,1-.629.537c-.072.053-.189.139-.558.438a14.656,14.656,0,0,0-4.589,6.678,49.625,49.625,0,0,0-2.009,8.7c-1.9,1.39-3.48,2.563-5.151,3.956Zm-47.986-4.991c-.3,0-.6,0-.9-.015v-1.179a2.632,2.632,0,0,0,1.136-1.544,6.142,6.142,0,0,0-.445-3.958,4,4,0,0,1-.378-2.624c-.1.019-.2.042-.312.072v-2.168c0-.189.008-.383.024-.574a2.924,2.924,0,0,0,.208.356l0,.007c1.892,2.746,3.679,3.322,4.846,3.322h.015a3.634,3.634,0,0,0,.607-.051,3.994,3.994,0,0,1-.439-2.607,6.109,6.109,0,0,0-.78-3.9,2.544,2.544,0,0,0-2.133-1.149,2.558,2.558,0,0,0-.551.061,6.887,6.887,0,0,1,2.307-1.626,13.006,13.006,0,0,1,1.369.242l.5.133a16.1,16.1,0,0,1,5.162,2.574,63.008,63.008,0,0,0,8.073,7.184l.116.075a8.814,8.814,0,0,0-3.523,1.625,22.061,22.061,0,0,0-2.058,2C-9622.656-4802.069-9627.941-4800.531-9633.3-4800.531Zm55.619-.833v0a34.891,34.891,0,0,1,1.438-7.167,12.763,12.763,0,0,1,3.446-5.354l.787-.72a7.751,7.751,0,0,0,2.314-4.08h1.586a7.009,7.009,0,0,1,2.852.6l-.023.024a2.448,2.448,0,0,1,.722,1.711l.157,0a2.657,2.657,0,0,0-.358-1.5,6.724,6.724,0,0,1,3.564,5.9v3.087c-.192,0-.4-.007-.606-.007-2.012,0-8.84.277-12.241,3.84-.072.082-.405.49-.937,1.148l-.024.031a19.463,19.463,0,0,1-2.674,2.482Zm-27.563-7.628a13.482,13.482,0,0,1-6.73-1.711,35.846,35.846,0,0,1-6.584-5.072,26.694,26.694,0,0,1-1.182-2.911h13.5c.021.341.041.69.06,1.028l.012.215c.157,2.918.319,5.937,1.779,8.43C-9604.69-4809-9604.977-4808.993-9605.242-4808.993Zm5.013-.4h0c-2.35-1.647-2.643-4.889-2.953-8.322l-.008-.084q-.04-.44-.082-.885h5.222a16.3,16.3,0,0,0,1.733,2.542,37.128,37.128,0,0,1,.162,6.736,17.716,17.716,0,0,0-1.981-.111,17.839,17.839,0,0,0-2.092.124Zm-31.919-2.253a7.141,7.141,0,0,1-1.325-3.3,6.809,6.809,0,0,1,.428-.721,6.775,6.775,0,0,0,.9,4.022Z" transform="translate(9648.398 4913)" fill="#f5efe5"/>
  <g id="nestedRows" transform="translate(-4)">
    <path id="Intersection_15" data-name="Intersection 15" d="M-7808.669-4034l-24.421-99.5h-7.425v-26.07h5.611q11.713,0,16.582-4.206t5.2-13.942q.826-21.122.908-38.032t-.908-38.032q-.494-9.736-5.28-13.944t-16.334-4.206h-6.6V-4297h21.458q15.171,2.249,23.34,9.561,11.795,10.56,12.457,34.815.824,22.276.826,38.775t-.826,34.979q-.99,31.185-21.616,40.261l27.39,104.609Zm-79.7,0v-263h29.039v263Z" transform="translate(7995 4297)" fill="#fff" opacity="0.15"/>
    <rect id="Rectangle_865" data-name="Rectangle 865" width="2" height="262" transform="translate(310)" fill="#fff" opacity="0.004"/>
  </g>
</svg>
