<svg id="nestedRows" xmlns="http://www.w3.org/2000/svg" xmlns:xlink="http://www.w3.org/1999/xlink" width="312" height="263" viewBox="0 0 312 263">
  <defs>
    <clipPath id="clip-path">
      <rect id="Rectangle_877" data-name="Rectangle 877" width="77" height="126" fill="none"/>
    </clipPath>
  </defs>
  <path id="Intersection_15" data-name="Intersection 15" d="M-7808.669-4034l-24.421-99.5h-7.425v-26.07h5.611q11.713,0,16.582-4.206t5.2-13.942q.826-21.122.908-38.032t-.908-38.032q-.494-9.736-5.28-13.944t-16.334-4.206h-6.6V-4297h21.458q15.171,2.249,23.34,9.561,11.795,10.56,12.457,34.815.824,22.276.826,38.775t-.826,34.979q-.99,31.185-21.616,40.261l27.39,104.609Zm-79.7,0v-263h29.039v263Z" transform="translate(7995 4297)" fill="#fff" opacity="0.15"/>
  <g id="Repeat_Grid_53" data-name="Repeat Grid 53" transform="translate(0 64)" opacity="0.505" clip-path="url(#clip-path)">
    <g id="Group_674" data-name="Group 674">
      <circle id="Ellipse_68" data-name="Ellipse 68" cx="1.5" cy="1.5" r="1.5" fill="#fff"/>
    </g>
    <g id="Group_674-2" data-name="Group 674" transform="translate(10)">
      <circle id="Ellipse_68-2" data-name="Ellipse 68" cx="1.5" cy="1.5" r="1.5" fill="#fff"/>
    </g>
    <g id="Group_674-3" data-name="Group 674" transform="translate(20)">
      <circle id="Ellipse_68-3" data-name="Ellipse 68" cx="1.5" cy="1.5" r="1.5" fill="#fff"/>
    </g>
    <g id="Group_674-4" data-name="Group 674" transform="translate(30)">
      <circle id="Ellipse_68-4" data-name="Ellipse 68" cx="1.5" cy="1.5" r="1.5" fill="#fff"/>
    </g>
    <g id="Group_674-5" data-name="Group 674" transform="translate(40)">
      <circle id="Ellipse_68-5" data-name="Ellipse 68" cx="1.5" cy="1.5" r="1.5" fill="#fff"/>
    </g>
    <g id="Group_674-6" data-name="Group 674" transform="translate(50)">
      <circle id="Ellipse_68-6" data-name="Ellipse 68" cx="1.5" cy="1.5" r="1.5" fill="#fff"/>
    </g>
    <g id="Group_674-7" data-name="Group 674" transform="translate(60)">
      <circle id="Ellipse_68-7" data-name="Ellipse 68" cx="1.5" cy="1.5" r="1.5" fill="#fff"/>
    </g>
    <g id="Group_674-8" data-name="Group 674" transform="translate(70)">
      <circle id="Ellipse_68-8" data-name="Ellipse 68" cx="1.5" cy="1.5" r="1.5" fill="#fff"/>
    </g>
    <g id="Group_674-9" data-name="Group 674" transform="translate(0 10)">
      <circle id="Ellipse_68-9" data-name="Ellipse 68" cx="1.5" cy="1.5" r="1.5" fill="#fff"/>
    </g>
    <g id="Group_674-10" data-name="Group 674" transform="translate(10 10)">
      <circle id="Ellipse_68-10" data-name="Ellipse 68" cx="1.5" cy="1.5" r="1.5" fill="#fff"/>
    </g>
    <g id="Group_674-11" data-name="Group 674" transform="translate(20 10)">
      <circle id="Ellipse_68-11" data-name="Ellipse 68" cx="1.5" cy="1.5" r="1.5" fill="#fff"/>
    </g>
    <g id="Group_674-12" data-name="Group 674" transform="translate(30 10)">
      <circle id="Ellipse_68-12" data-name="Ellipse 68" cx="1.5" cy="1.5" r="1.5" fill="#fff"/>
    </g>
    <g id="Group_674-13" data-name="Group 674" transform="translate(40 10)">
      <circle id="Ellipse_68-13" data-name="Ellipse 68" cx="1.5" cy="1.5" r="1.5" fill="#fff"/>
    </g>
    <g id="Group_674-14" data-name="Group 674" transform="translate(50 10)">
      <circle id="Ellipse_68-14" data-name="Ellipse 68" cx="1.5" cy="1.5" r="1.5" fill="#fff"/>
    </g>
    <g id="Group_674-15" data-name="Group 674" transform="translate(60 10)">
      <circle id="Ellipse_68-15" data-name="Ellipse 68" cx="1.5" cy="1.5" r="1.5" fill="#fff"/>
    </g>
    <g id="Group_674-16" data-name="Group 674" transform="translate(70 10)">
      <circle id="Ellipse_68-16" data-name="Ellipse 68" cx="1.5" cy="1.5" r="1.5" fill="#fff"/>
    </g>
    <g id="Group_674-17" data-name="Group 674" transform="translate(0 20)">
      <circle id="Ellipse_68-17" data-name="Ellipse 68" cx="1.5" cy="1.5" r="1.5" fill="#fff"/>
    </g>
    <g id="Group_674-18" data-name="Group 674" transform="translate(10 20)">
      <circle id="Ellipse_68-18" data-name="Ellipse 68" cx="1.5" cy="1.5" r="1.5" fill="#fff"/>
    </g>
    <g id="Group_674-19" data-name="Group 674" transform="translate(20 20)">
      <circle id="Ellipse_68-19" data-name="Ellipse 68" cx="1.5" cy="1.5" r="1.5" fill="#fff"/>
    </g>
    <g id="Group_674-20" data-name="Group 674" transform="translate(30 20)">
      <circle id="Ellipse_68-20" data-name="Ellipse 68" cx="1.5" cy="1.5" r="1.5" fill="#fff"/>
    </g>
    <g id="Group_674-21" data-name="Group 674" transform="translate(40 20)">
      <circle id="Ellipse_68-21" data-name="Ellipse 68" cx="1.5" cy="1.5" r="1.5" fill="#fff"/>
    </g>
    <g id="Group_674-22" data-name="Group 674" transform="translate(50 20)">
      <circle id="Ellipse_68-22" data-name="Ellipse 68" cx="1.5" cy="1.5" r="1.5" fill="#fff"/>
    </g>
    <g id="Group_674-23" data-name="Group 674" transform="translate(60 20)">
      <circle id="Ellipse_68-23" data-name="Ellipse 68" cx="1.5" cy="1.5" r="1.5" fill="#fff"/>
    </g>
    <g id="Group_674-24" data-name="Group 674" transform="translate(70 20)">
      <circle id="Ellipse_68-24" data-name="Ellipse 68" cx="1.5" cy="1.5" r="1.5" fill="#fff"/>
    </g>
    <g id="Group_674-25" data-name="Group 674" transform="translate(0 30)">
      <circle id="Ellipse_68-25" data-name="Ellipse 68" cx="1.5" cy="1.5" r="1.5" fill="#fff"/>
    </g>
    <g id="Group_674-26" data-name="Group 674" transform="translate(10 30)">
      <circle id="Ellipse_68-26" data-name="Ellipse 68" cx="1.5" cy="1.5" r="1.5" fill="#fff"/>
    </g>
    <g id="Group_674-27" data-name="Group 674" transform="translate(20 30)">
      <circle id="Ellipse_68-27" data-name="Ellipse 68" cx="1.5" cy="1.5" r="1.5" fill="#fff"/>
    </g>
    <g id="Group_674-28" data-name="Group 674" transform="translate(30 30)">
      <circle id="Ellipse_68-28" data-name="Ellipse 68" cx="1.5" cy="1.5" r="1.5" fill="#fff"/>
    </g>
    <g id="Group_674-29" data-name="Group 674" transform="translate(40 30)">
      <circle id="Ellipse_68-29" data-name="Ellipse 68" cx="1.5" cy="1.5" r="1.5" fill="#fff"/>
    </g>
    <g id="Group_674-30" data-name="Group 674" transform="translate(50 30)">
      <circle id="Ellipse_68-30" data-name="Ellipse 68" cx="1.5" cy="1.5" r="1.5" fill="#fff"/>
    </g>
    <g id="Group_674-31" data-name="Group 674" transform="translate(60 30)">
      <circle id="Ellipse_68-31" data-name="Ellipse 68" cx="1.5" cy="1.5" r="1.5" fill="#fff"/>
    </g>
    <g id="Group_674-32" data-name="Group 674" transform="translate(70 30)">
      <circle id="Ellipse_68-32" data-name="Ellipse 68" cx="1.5" cy="1.5" r="1.5" fill="#fff"/>
    </g>
    <g id="Group_674-33" data-name="Group 674" transform="translate(0 40)">
      <circle id="Ellipse_68-33" data-name="Ellipse 68" cx="1.5" cy="1.5" r="1.5" fill="#fff"/>
    </g>
    <g id="Group_674-34" data-name="Group 674" transform="translate(10 40)">
      <circle id="Ellipse_68-34" data-name="Ellipse 68" cx="1.5" cy="1.5" r="1.5" fill="#fff"/>
    </g>
    <g id="Group_674-35" data-name="Group 674" transform="translate(20 40)">
      <circle id="Ellipse_68-35" data-name="Ellipse 68" cx="1.5" cy="1.5" r="1.5" fill="#fff"/>
    </g>
    <g id="Group_674-36" data-name="Group 674" transform="translate(30 40)">
      <circle id="Ellipse_68-36" data-name="Ellipse 68" cx="1.5" cy="1.5" r="1.5" fill="#fff"/>
    </g>
    <g id="Group_674-37" data-name="Group 674" transform="translate(40 40)">
      <circle id="Ellipse_68-37" data-name="Ellipse 68" cx="1.5" cy="1.5" r="1.5" fill="#fff"/>
    </g>
    <g id="Group_674-38" data-name="Group 674" transform="translate(50 40)">
      <circle id="Ellipse_68-38" data-name="Ellipse 68" cx="1.5" cy="1.5" r="1.5" fill="#fff"/>
    </g>
    <g id="Group_674-39" data-name="Group 674" transform="translate(60 40)">
      <circle id="Ellipse_68-39" data-name="Ellipse 68" cx="1.5" cy="1.5" r="1.5" fill="#fff"/>
    </g>
    <g id="Group_674-40" data-name="Group 674" transform="translate(70 40)">
      <circle id="Ellipse_68-40" data-name="Ellipse 68" cx="1.5" cy="1.5" r="1.5" fill="#fff"/>
    </g>
    <g id="Group_674-41" data-name="Group 674" transform="translate(0 50)">
      <circle id="Ellipse_68-41" data-name="Ellipse 68" cx="1.5" cy="1.5" r="1.5" fill="#fff"/>
    </g>
    <g id="Group_674-42" data-name="Group 674" transform="translate(10 50)">
      <circle id="Ellipse_68-42" data-name="Ellipse 68" cx="1.5" cy="1.5" r="1.5" fill="#fff"/>
    </g>
    <g id="Group_674-43" data-name="Group 674" transform="translate(20 50)">
      <circle id="Ellipse_68-43" data-name="Ellipse 68" cx="1.5" cy="1.5" r="1.5" fill="#fff"/>
    </g>
    <g id="Group_674-44" data-name="Group 674" transform="translate(30 50)">
      <circle id="Ellipse_68-44" data-name="Ellipse 68" cx="1.5" cy="1.5" r="1.5" fill="#fff"/>
    </g>
    <g id="Group_674-45" data-name="Group 674" transform="translate(40 50)">
      <circle id="Ellipse_68-45" data-name="Ellipse 68" cx="1.5" cy="1.5" r="1.5" fill="#fff"/>
    </g>
    <g id="Group_674-46" data-name="Group 674" transform="translate(50 50)">
      <circle id="Ellipse_68-46" data-name="Ellipse 68" cx="1.5" cy="1.5" r="1.5" fill="#fff"/>
    </g>
    <g id="Group_674-47" data-name="Group 674" transform="translate(60 50)">
      <circle id="Ellipse_68-47" data-name="Ellipse 68" cx="1.5" cy="1.5" r="1.5" fill="#fff"/>
    </g>
    <g id="Group_674-48" data-name="Group 674" transform="translate(70 50)">
      <circle id="Ellipse_68-48" data-name="Ellipse 68" cx="1.5" cy="1.5" r="1.5" fill="#fff"/>
    </g>
    <g id="Group_674-49" data-name="Group 674" transform="translate(0 60)">
      <circle id="Ellipse_68-49" data-name="Ellipse 68" cx="1.5" cy="1.5" r="1.5" fill="#fff"/>
    </g>
    <g id="Group_674-50" data-name="Group 674" transform="translate(10 60)">
      <circle id="Ellipse_68-50" data-name="Ellipse 68" cx="1.5" cy="1.5" r="1.5" fill="#fff"/>
    </g>
    <g id="Group_674-51" data-name="Group 674" transform="translate(20 60)">
      <circle id="Ellipse_68-51" data-name="Ellipse 68" cx="1.5" cy="1.5" r="1.5" fill="#fff"/>
    </g>
    <g id="Group_674-52" data-name="Group 674" transform="translate(30 60)">
      <circle id="Ellipse_68-52" data-name="Ellipse 68" cx="1.5" cy="1.5" r="1.5" fill="#fff"/>
    </g>
    <g id="Group_674-53" data-name="Group 674" transform="translate(40 60)">
      <circle id="Ellipse_68-53" data-name="Ellipse 68" cx="1.5" cy="1.5" r="1.5" fill="#fff"/>
    </g>
    <g id="Group_674-54" data-name="Group 674" transform="translate(50 60)">
      <circle id="Ellipse_68-54" data-name="Ellipse 68" cx="1.5" cy="1.5" r="1.5" fill="#fff"/>
    </g>
    <g id="Group_674-55" data-name="Group 674" transform="translate(60 60)">
      <circle id="Ellipse_68-55" data-name="Ellipse 68" cx="1.5" cy="1.5" r="1.5" fill="#fff"/>
    </g>
    <g id="Group_674-56" data-name="Group 674" transform="translate(70 60)">
      <circle id="Ellipse_68-56" data-name="Ellipse 68" cx="1.5" cy="1.5" r="1.5" fill="#fff"/>
    </g>
    <g id="Group_674-57" data-name="Group 674" transform="translate(0 70)">
      <circle id="Ellipse_68-57" data-name="Ellipse 68" cx="1.5" cy="1.5" r="1.5" fill="#fff"/>
    </g>
    <g id="Group_674-58" data-name="Group 674" transform="translate(10 70)">
      <circle id="Ellipse_68-58" data-name="Ellipse 68" cx="1.5" cy="1.5" r="1.5" fill="#fff"/>
    </g>
    <g id="Group_674-59" data-name="Group 674" transform="translate(20 70)">
      <circle id="Ellipse_68-59" data-name="Ellipse 68" cx="1.5" cy="1.5" r="1.5" fill="#fff"/>
    </g>
    <g id="Group_674-60" data-name="Group 674" transform="translate(30 70)">
      <circle id="Ellipse_68-60" data-name="Ellipse 68" cx="1.5" cy="1.5" r="1.5" fill="#fff"/>
    </g>
    <g id="Group_674-61" data-name="Group 674" transform="translate(40 70)">
      <circle id="Ellipse_68-61" data-name="Ellipse 68" cx="1.5" cy="1.5" r="1.5" fill="#fff"/>
    </g>
    <g id="Group_674-62" data-name="Group 674" transform="translate(50 70)">
      <circle id="Ellipse_68-62" data-name="Ellipse 68" cx="1.5" cy="1.5" r="1.5" fill="#fff"/>
    </g>
    <g id="Group_674-63" data-name="Group 674" transform="translate(60 70)">
      <circle id="Ellipse_68-63" data-name="Ellipse 68" cx="1.5" cy="1.5" r="1.5" fill="#fff"/>
    </g>
    <g id="Group_674-64" data-name="Group 674" transform="translate(70 70)">
      <circle id="Ellipse_68-64" data-name="Ellipse 68" cx="1.5" cy="1.5" r="1.5" fill="#fff"/>
    </g>
    <g id="Group_674-65" data-name="Group 674" transform="translate(0 80)">
      <circle id="Ellipse_68-65" data-name="Ellipse 68" cx="1.5" cy="1.5" r="1.5" fill="#fff"/>
    </g>
    <g id="Group_674-66" data-name="Group 674" transform="translate(10 80)">
      <circle id="Ellipse_68-66" data-name="Ellipse 68" cx="1.5" cy="1.5" r="1.5" fill="#fff"/>
    </g>
    <g id="Group_674-67" data-name="Group 674" transform="translate(20 80)">
      <circle id="Ellipse_68-67" data-name="Ellipse 68" cx="1.5" cy="1.5" r="1.5" fill="#fff"/>
    </g>
    <g id="Group_674-68" data-name="Group 674" transform="translate(30 80)">
      <circle id="Ellipse_68-68" data-name="Ellipse 68" cx="1.5" cy="1.5" r="1.5" fill="#fff"/>
    </g>
    <g id="Group_674-69" data-name="Group 674" transform="translate(40 80)">
      <circle id="Ellipse_68-69" data-name="Ellipse 68" cx="1.5" cy="1.5" r="1.5" fill="#fff"/>
    </g>
    <g id="Group_674-70" data-name="Group 674" transform="translate(50 80)">
      <circle id="Ellipse_68-70" data-name="Ellipse 68" cx="1.5" cy="1.5" r="1.5" fill="#fff"/>
    </g>
    <g id="Group_674-71" data-name="Group 674" transform="translate(60 80)">
      <circle id="Ellipse_68-71" data-name="Ellipse 68" cx="1.5" cy="1.5" r="1.5" fill="#fff"/>
    </g>
    <g id="Group_674-72" data-name="Group 674" transform="translate(70 80)">
      <circle id="Ellipse_68-72" data-name="Ellipse 68" cx="1.5" cy="1.5" r="1.5" fill="#fff"/>
    </g>
    <g id="Group_674-73" data-name="Group 674" transform="translate(0 90)">
      <circle id="Ellipse_68-73" data-name="Ellipse 68" cx="1.5" cy="1.5" r="1.5" fill="#fff"/>
    </g>
    <g id="Group_674-74" data-name="Group 674" transform="translate(10 90)">
      <circle id="Ellipse_68-74" data-name="Ellipse 68" cx="1.5" cy="1.5" r="1.5" fill="#fff"/>
    </g>
    <g id="Group_674-75" data-name="Group 674" transform="translate(20 90)">
      <circle id="Ellipse_68-75" data-name="Ellipse 68" cx="1.5" cy="1.5" r="1.5" fill="#fff"/>
    </g>
    <g id="Group_674-76" data-name="Group 674" transform="translate(30 90)">
      <circle id="Ellipse_68-76" data-name="Ellipse 68" cx="1.5" cy="1.5" r="1.5" fill="#fff"/>
    </g>
    <g id="Group_674-77" data-name="Group 674" transform="translate(40 90)">
      <circle id="Ellipse_68-77" data-name="Ellipse 68" cx="1.5" cy="1.5" r="1.5" fill="#fff"/>
    </g>
    <g id="Group_674-78" data-name="Group 674" transform="translate(50 90)">
      <circle id="Ellipse_68-78" data-name="Ellipse 68" cx="1.5" cy="1.5" r="1.5" fill="#fff"/>
    </g>
    <g id="Group_674-79" data-name="Group 674" transform="translate(60 90)">
      <circle id="Ellipse_68-79" data-name="Ellipse 68" cx="1.5" cy="1.5" r="1.5" fill="#fff"/>
    </g>
    <g id="Group_674-80" data-name="Group 674" transform="translate(70 90)">
      <circle id="Ellipse_68-80" data-name="Ellipse 68" cx="1.5" cy="1.5" r="1.5" fill="#fff"/>
    </g>
    <g id="Group_674-81" data-name="Group 674" transform="translate(0 100)">
      <circle id="Ellipse_68-81" data-name="Ellipse 68" cx="1.5" cy="1.5" r="1.5" fill="#fff"/>
    </g>
    <g id="Group_674-82" data-name="Group 674" transform="translate(10 100)">
      <circle id="Ellipse_68-82" data-name="Ellipse 68" cx="1.5" cy="1.5" r="1.5" fill="#fff"/>
    </g>
    <g id="Group_674-83" data-name="Group 674" transform="translate(20 100)">
      <circle id="Ellipse_68-83" data-name="Ellipse 68" cx="1.5" cy="1.5" r="1.5" fill="#fff"/>
    </g>
    <g id="Group_674-84" data-name="Group 674" transform="translate(30 100)">
      <circle id="Ellipse_68-84" data-name="Ellipse 68" cx="1.5" cy="1.5" r="1.5" fill="#fff"/>
    </g>
    <g id="Group_674-85" data-name="Group 674" transform="translate(40 100)">
      <circle id="Ellipse_68-85" data-name="Ellipse 68" cx="1.5" cy="1.5" r="1.5" fill="#fff"/>
    </g>
    <g id="Group_674-86" data-name="Group 674" transform="translate(50 100)">
      <circle id="Ellipse_68-86" data-name="Ellipse 68" cx="1.5" cy="1.5" r="1.5" fill="#fff"/>
    </g>
    <g id="Group_674-87" data-name="Group 674" transform="translate(60 100)">
      <circle id="Ellipse_68-87" data-name="Ellipse 68" cx="1.5" cy="1.5" r="1.5" fill="#fff"/>
    </g>
    <g id="Group_674-88" data-name="Group 674" transform="translate(70 100)">
      <circle id="Ellipse_68-88" data-name="Ellipse 68" cx="1.5" cy="1.5" r="1.5" fill="#fff"/>
    </g>
    <g id="Group_674-89" data-name="Group 674" transform="translate(0 110)">
      <circle id="Ellipse_68-89" data-name="Ellipse 68" cx="1.5" cy="1.5" r="1.5" fill="#fff"/>
    </g>
    <g id="Group_674-90" data-name="Group 674" transform="translate(10 110)">
      <circle id="Ellipse_68-90" data-name="Ellipse 68" cx="1.5" cy="1.5" r="1.5" fill="#fff"/>
    </g>
    <g id="Group_674-91" data-name="Group 674" transform="translate(20 110)">
      <circle id="Ellipse_68-91" data-name="Ellipse 68" cx="1.5" cy="1.5" r="1.5" fill="#fff"/>
    </g>
    <g id="Group_674-92" data-name="Group 674" transform="translate(30 110)">
      <circle id="Ellipse_68-92" data-name="Ellipse 68" cx="1.5" cy="1.5" r="1.5" fill="#fff"/>
    </g>
    <g id="Group_674-93" data-name="Group 674" transform="translate(40 110)">
      <circle id="Ellipse_68-93" data-name="Ellipse 68" cx="1.5" cy="1.5" r="1.5" fill="#fff"/>
    </g>
    <g id="Group_674-94" data-name="Group 674" transform="translate(50 110)">
      <circle id="Ellipse_68-94" data-name="Ellipse 68" cx="1.5" cy="1.5" r="1.5" fill="#fff"/>
    </g>
    <g id="Group_674-95" data-name="Group 674" transform="translate(60 110)">
      <circle id="Ellipse_68-95" data-name="Ellipse 68" cx="1.5" cy="1.5" r="1.5" fill="#fff"/>
    </g>
    <g id="Group_674-96" data-name="Group 674" transform="translate(70 110)">
      <circle id="Ellipse_68-96" data-name="Ellipse 68" cx="1.5" cy="1.5" r="1.5" fill="#fff"/>
    </g>
    <g id="Group_674-97" data-name="Group 674" transform="translate(0 120)">
      <circle id="Ellipse_68-97" data-name="Ellipse 68" cx="1.5" cy="1.5" r="1.5" fill="#fff"/>
    </g>
    <g id="Group_674-98" data-name="Group 674" transform="translate(10 120)">
      <circle id="Ellipse_68-98" data-name="Ellipse 68" cx="1.5" cy="1.5" r="1.5" fill="#fff"/>
    </g>
    <g id="Group_674-99" data-name="Group 674" transform="translate(20 120)">
      <circle id="Ellipse_68-99" data-name="Ellipse 68" cx="1.5" cy="1.5" r="1.5" fill="#fff"/>
    </g>
    <g id="Group_674-100" data-name="Group 674" transform="translate(30 120)">
      <circle id="Ellipse_68-100" data-name="Ellipse 68" cx="1.5" cy="1.5" r="1.5" fill="#fff"/>
    </g>
    <g id="Group_674-101" data-name="Group 674" transform="translate(40 120)">
      <circle id="Ellipse_68-101" data-name="Ellipse 68" cx="1.5" cy="1.5" r="1.5" fill="#fff"/>
    </g>
    <g id="Group_674-102" data-name="Group 674" transform="translate(50 120)">
      <circle id="Ellipse_68-102" data-name="Ellipse 68" cx="1.5" cy="1.5" r="1.5" fill="#fff"/>
    </g>
    <g id="Group_674-103" data-name="Group 674" transform="translate(60 120)">
      <circle id="Ellipse_68-103" data-name="Ellipse 68" cx="1.5" cy="1.5" r="1.5" fill="#fff"/>
    </g>
    <g id="Group_674-104" data-name="Group 674" transform="translate(70 120)">
      <circle id="Ellipse_68-104" data-name="Ellipse 68" cx="1.5" cy="1.5" r="1.5" fill="#fff"/>
    </g>
  </g>
  <rect id="Rectangle_865" data-name="Rectangle 865" width="2" height="262" transform="translate(310)" fill="#fff" opacity="0.004"/>
  <g id="Group_1112" data-name="Group 1112" transform="translate(-879 -426)">
    <g id="Group_1112-2" data-name="Group 1112" transform="translate(-39)">
      <path id="Path_1018" data-name="Path 1018" d="M17.947,0h51.9A17.947,17.947,0,0,1,87.8,17.947v51.9A17.947,17.947,0,0,1,69.849,87.8h-51.9A17.947,17.947,0,0,1,0,69.849v-51.9A17.947,17.947,0,0,1,17.947,0Z" transform="translate(929.203 508.208)" fill="#f5efe5"/>
      <path id="Intersection_15-2" data-name="Intersection 15" d="M-7983.1-4247.4a58.736,58.736,0,0,1,.113-6.645c.551-6.767,2.047-10.674,3.964-20.778-9.244-2.368-12.083-8.935-18.655-11.416l-.3-.113a47.145,47.145,0,0,0-17.426-1.583l-.022-.113a42.648,42.648,0,0,1,9.254-1.078c6.539.1,9.456.214,14.459,3.278-1.294-3.95-2.757-8.406-6.435-9.7l.03-.113c4.634.92,6.848,6.86,9.211,11.676,3.5,2.436,6.394,4.5,10.57,5.209,1.8-12.225-.87-10.766.381-19.612.18-1.235.37-2.381.666-4.176a17.384,17.384,0,0,0-4.287.039,21.323,21.323,0,0,1-7.468-.375c-2.607-.057-4.632-.147-6.295.605.01,0-.638.145-2.607,1.966-4.2,3.647-14.736,3.917-20.288.83l.042-.1c6.158,2.414,15.761.787,18.867-2.323a20.523,20.523,0,0,1,1.908-1.865,8.123,8.123,0,0,1,3.265-1.514l-.107-.069a58.38,58.38,0,0,1-7.483-6.69,14.925,14.925,0,0,0-4.79-2.4l-.466-.123c-3.849-.9-7.463.258-9.2,1.942.01-.01-.2.189-.212.2.01-.012-.551.573-1.1,1.122-2.342,2.309-4.854,3.986-7.548,4.169v-.7c2.7-.557,4.953-2.7,7.135-5.424-.012.022.244-.3.254-.315a9.6,9.6,0,0,1,3.859-2.817c-4.549-2.166-5.385-2.042-5.841-2.155.033.01-.488-.035-.5-.035a5.209,5.209,0,0,0-3.063,1.045c-.618.352-1.233.683-1.845.974v-.677q0-.322.011-.641c.692-.447,1.361-.915,2.013-1.329a5.508,5.508,0,0,1,2.64-.955l.222-.022h.648c.486.135,1.144-.45,8.893,2.918a12.038,12.038,0,0,1,2.957-.079c-6.968-4.591-12.167-7.065-12.517-12.181q.535-.569,1.118-1.091c0,.027,0,.057.005.1.381,6.408,11.754,8.147,17.9,14.289-.985-5.836,1.823-6.87,2.618-12.549a7.35,7.35,0,0,0-1.282-5.8l.075-.079a6.223,6.223,0,0,1,1.7,2.694c1.122,3.469-.169,7.52-.955,10.047-1.04,2.963.127,6.487,1.441,9.294,4.813,4.4,7.92,6.545,13.133,6.3-2.246-3.851-1.174-8.935-2.289-13.2a14.635,14.635,0,0,1,.837-10.788c.042-.077.075-.167.117-.246-3.266-1.365-5.8-2.569-7.283-4.616h1.249c1.643,1.468,4.014,2.237,6.807,3.156a20.762,20.762,0,0,1,2.229-3.156h2.274a18.3,18.3,0,0,0-2.691,3.853l.222.111.276.169c4.071,2.515,3.328,8.093,5.617,13.066.479-7.936,3.966-14.38,7.229-16.883q.2-.16.423-.316h3.23a19.865,19.865,0,0,0-2.19,1.449l-.339.317a13.814,13.814,0,0,0-2.565,3.389,26.725,26.725,0,0,0-3.031,11.3c-.3,5.524.859,6.489.583,13.044,3.391,1.885,6.741,7.353,6.985,11.9,1.546-1.292,3.031-2.4,4.779-3.684,1.007-5.928,1.919-10.911,6.117-14.324.8-.652.317-.212,1.1-.908,3.169-3.009,2.131-8.824,2.279-13.774h.107c.157,5.086,1.738,11.494-2.046,14.931l-.731.672c-3.1,2.886-3.911,6.523-4.527,11.664a18.07,18.07,0,0,0,2.48-2.313s.774-.966.89-1.1c2.757-2.9,8.227-3.669,12-3.568l.012.111c-2.767.529-6.668,1.572-9.032,3.2a5.686,5.686,0,0,0-1.855,1.843c.01-.022-.519.785-.531.8a24.864,24.864,0,0,1-4.493,4.557c-2.3,1.988-4.325,3.6-7.2,6.511a25.61,25.61,0,0,1-5.532,8.644c0,.012-.052,2.537-.361,6.085,6.562-2.716,9.234-6.6,13.93-9.34a24.311,24.311,0,0,1,3.072-1.516c.222-.1,1.189-.436,1.666-.628,1.717-9.486,10.44-12.315,13.038-16.625a14.735,14.735,0,0,1,2.2-2.864c-.72-3.613,2.142-6.477,1.855-10.54-.021-.271-.095-.864-.095-1.078a10.357,10.357,0,0,1,.234-2.337,18.136,18.136,0,0,1,.125,2.129v8.008a9.587,9.587,0,0,0-.539,2.382q.27-.227.539-.448v2.58a13.118,13.118,0,0,0-2.468,3.312c-2.448,4.591-9.169,7.173-11.48,13.718,4.039-2.672,6.2-6.378,10.493-7.094a12.832,12.832,0,0,1,3.455-.009v2.217c-.385-.005-1.35-.02-1.683-.02-3.351.113-4.878,2.089-7.74,4.781-5.011,4.761-7.11,4.457-10.672,6.59.032-.01-.414.258-.424.271-4.739,3.029-7.516,7.7-15.942,10.967-1.267,11.466-2.075,14.958-.732,22.595Zm9.113-44.44.1.45a29.58,29.58,0,0,1,.7,3.851c2.872-4.21,2.967-7.534-.2-12.114a11.154,11.154,0,0,0-.743-.987A25.232,25.232,0,0,0-7973.982-4291.835Zm-11-31.5c.264,2.67.93,2.616,1.431,6.588.506,4.042.284,8.162,2.977,10.059a16.258,16.258,0,0,1,3.774-.012,34.681,34.681,0,0,0-.149-6.275c-5.415-6.555-2.585-14.087-6.963-16.748A13.624,13.624,0,0,0-7984.984-4323.333Zm22.778,51.436a2.68,2.68,0,0,1,.86-3.177,5.927,5.927,0,0,1,3.136,2.9,6.324,6.324,0,0,0-2.575-3.189,2.4,2.4,0,0,1,3.031,1.393c.858,2.064,1.229,4.479-.084,6.184C-7958.411-4269.4-7961.188-4269.461-7962.206-4271.9Zm-37.163-9.474a2.535,2.535,0,0,1,2.174-2.64,6.731,6.731,0,0,0-1.029,4.053,6.271,6.271,0,0,1,1.655-4.041,2.538,2.538,0,0,1,2.057,2.47c.073,2.66-2.406,3.974-2.269,5.7C-7998.658-4276.769-7999.3-4279.114-7999.368-4281.371Zm-11.839-1.437a2.666,2.666,0,0,1,.8-3.391,6.73,6.73,0,0,0,.835,4.109,6.426,6.426,0,0,1-.274-4.39,2.36,2.36,0,0,1,2.9,1.188c1.219,2.337-.434,4.7.436,6.164-.044,0-.089,0-.133,0C-8008.656-4279.125-8010.2-4280.875-8011.208-4282.808Zm73.211-6.511a2.554,2.554,0,0,1,.741-.989v7.066a3.494,3.494,0,0,1-.7.109C-7937.2-4284.673-7939.024-4286.9-7938-4289.319Zm-86.154,2.267c1.633.022,2.672-2.7,5.183-2.84a2.46,2.46,0,0,1,2.493,1.964,5.651,5.651,0,0,1-3.669,2.067,5.826,5.826,0,0,0,3.732-1.4,2.507,2.507,0,0,1-2.311,2.5c-.186.01-.373.014-.563.014C-8021.24-4284.748-8023.212-4285.311-8024.15-4287.052Zm36.983.987a2.557,2.557,0,0,1-1.568-2.828,5.427,5.427,0,0,1,4.133-.426,5.757,5.757,0,0,0-3.964-.214,2.38,2.38,0,0,1,3.032-1.38c2,.752,3.921,2.133,4.186,4.311a3.47,3.47,0,0,0-2.474.313,6.458,6.458,0,0,1-2.105.45A3.417,3.417,0,0,1-7987.167-4286.065Zm-25.451-4.041a6.245,6.245,0,0,1,1.909-3.917,6.441,6.441,0,0,0-2.313,3.413,2.67,2.67,0,0,1,.553-3.445c1.7-1.38,3.814-2.335,5.691-1.393-1.346.977-.73,3.849-2.725,5.467a2.322,2.322,0,0,1-1.483.539A2.365,2.365,0,0,1-8012.618-4290.106Zm-8.987-6.981c-1.6-.172-2.546-1.374-3.447-2.238v-2.349a7.2,7.2,0,0,1,3.944-.532,2.528,2.528,0,0,1,2.186,2.626,5.865,5.865,0,0,0-3.659-1.617,5.727,5.727,0,0,1,3.563,2.269,2.473,2.473,0,0,1-2.343,1.853C-8021.444-4297.075-8021.525-4297.079-8021.605-4297.087Zm7.98-2.089a6.43,6.43,0,0,1-.583-4.355,6.834,6.834,0,0,0-.02,4.2,2.636,2.636,0,0,1-1.431-3.154c.625-2.168,1.833-4.245,3.879-4.626-.571,1.617,1.506,3.58.763,6.129a2.453,2.453,0,0,1-2.335,1.823A2.041,2.041,0,0,1-8013.625-4299.176Zm1.77-10.091a2.669,2.669,0,0,1,.4-3.467,6.665,6.665,0,0,0,1.294,3.962,6.372,6.372,0,0,1-.765-4.333,2.36,2.36,0,0,1,3.011.831c1.474,2.156.107,4.727,1.134,6.061a3.351,3.351,0,0,1-.563.046C-8009.157-4306.167-8010.719-4307.606-8011.855-4309.268Zm64.353-3.9a2.269,2.269,0,0,0-.668-1.595l.189-.2a2.5,2.5,0,0,1,.626,1.8Zm-10.6-1.435a3.348,3.348,0,0,0-2.422.077c-.032-2.2,1.675-3.849,3.563-4.9a2.352,2.352,0,0,1,3.189.908,5.763,5.763,0,0,0-3.89.809,5.468,5.468,0,0,1,4.156-.2,2.623,2.623,0,0,1-1.187,3.042,3.651,3.651,0,0,1-1.831.456A8.7,8.7,0,0,1-7958.1-4314.6Zm-9.526-.89a4.923,4.923,0,0,1-3.4-.852,2.67,2.67,0,0,1-.71-3.2,5.539,5.539,0,0,1,4.069.92,5.794,5.794,0,0,0-3.709-1.469,2.333,2.333,0,0,1,3.286-.349c1.708,1.358,3.138,3.278,2.767,5.445A3.279,3.279,0,0,0-7967.625-4315.488Zm26.11-1.649c-2.5-.224-3.445-3-5.088-3.042,1.1-1.863,3.371-2.279,5.5-2.077a2.512,2.512,0,0,1,2.214,2.593,5.823,5.823,0,0,0-3.689-1.55,5.69,5.69,0,0,1,3.594,2.212,2.431,2.431,0,0,1-2.333,1.871C-7941.381-4317.128-7941.448-4317.131-7941.514-4317.137Zm-78.652-3.054Zm26.373-3.689c-.84-.64-1.562-1.277-2.384-1.2.89-1.986,3.106-2.67,5.235-2.727a2.475,2.475,0,0,1,2.48,2.3,5.763,5.763,0,0,0-3.827-1.09,5.612,5.612,0,0,1,3.816,1.764,2.478,2.478,0,0,1-2.333,2.166c-.034,0-.071,0-.107,0A4.717,4.717,0,0,1-7993.793-4323.88Zm41.913-3.134a6.355,6.355,0,0,1,1.016-4.267,6.608,6.608,0,0,0-1.524,3.873,2.677,2.677,0,0,1-.2-3.492c1.2-1.549,2.8-2.851,4.55-2.8q.286.125.567.259c-.886,1.333.156,3.845-1.365,5.813a2.381,2.381,0,0,1-1.875.94A2.279,2.279,0,0,1-7951.88-4327.014Zm-65.136-1.639a5.738,5.738,0,0,1,3.349-2.606,5.885,5.885,0,0,0-3.508,1.954,2.572,2.572,0,0,1,1.952-2.83c2.1-.426,4.4-.281,5.681,1.449-1.623.236-2.28,3.1-4.751,3.6a2.213,2.213,0,0,1-.47.05A2.446,2.446,0,0,1-8017.016-4328.653Zm12.844-.368c-.839-.64-1.562-1.279-2.381-1.2.89-1.986,3.1-2.672,5.235-2.727a2.474,2.474,0,0,1,2.48,2.3,5.738,5.738,0,0,0-3.827-1.09,5.61,5.61,0,0,1,3.814,1.762,2.49,2.49,0,0,1-2.331,2.167l-.109,0A4.72,4.72,0,0,1-8004.172-4329.021Zm44.785-6.169h3.5a4.382,4.382,0,0,1,.229,1.441,4.582,4.582,0,0,0-.065-1.441h.516q.338,0,.672.012c-.032,2.255-.648,4.607-2.511,5.57C-7956.927-4331.316-7959.374-4332.587-7959.387-4335.19Zm-5.616,5a2.263,2.263,0,0,0-.668-1.594l.189-.2a2.5,2.5,0,0,1,.626,1.8Zm-10.5-5h4.168c-.658,1.7-1.73,3.15-3.379,3.505C-7974.379-4332.715-7975.094-4333.852-7975.5-4335.19Zm-27.85.5a3.662,3.662,0,0,1-.6-.5h3.665l.009.048a2.374,2.374,0,0,1-1.8.835A2.306,2.306,0,0,1-8003.352-4334.694Z" transform="translate(8954.256 4843.398)" fill="#eacdc9"/>
    </g>
  </g>
</svg>
