<svg xmlns="http://www.w3.org/2000/svg" width="696" height="596.665" viewBox="0 0 696 596.665">
  <g id="Group_4" data-name="Group 4" transform="translate(-394 -161.335)">
    <g id="Group_15" data-name="Group 15" transform="translate(-717 -95)">
      <g id="Rectangle_2" data-name="Rectangle 2" transform="translate(1111 258)" fill="none" stroke="rgba(112,112,112,0)" stroke-width="1">
        <rect width="696" height="594" stroke="none"/>
        <rect x="0.5" y="0.5" width="695" height="593" fill="none"/>
      </g>
      <g id="Group_13" data-name="Group 13" transform="translate(1135 429)" opacity="0.809">
        <path id="Exclusion_2" data-name="Exclusion 2" d="M68.906,70H1.094A1.1,1.1,0,0,1,0,68.9V1.1A1.1,1.1,0,0,1,1.094,0H68.906A1.1,1.1,0,0,1,70,1.1V68.9A1.1,1.1,0,0,1,68.906,70ZM22.494,15.156a19.43,19.43,0,0,0-10.741,3.2,19.1,19.1,0,0,0-5.191,5.065,18.686,18.686,0,0,0-1.771,3.185A18.384,18.384,0,0,0,6.2,43.842a19.107,19.107,0,0,0,7.594,6.785l-3.04,5.154h51.59l-25.8-43.749-3.615,6.131a19.486,19.486,0,0,0-10.435-3.007Zm0,37.5a19.748,19.748,0,0,1-4.546-.529,19.384,19.384,0,0,1-4.156-1.5L32.933,18.162a19.089,19.089,0,0,1,6.367,6.65A18.39,18.39,0,0,1,40.2,41.2a18.7,18.7,0,0,1-1.772,3.185,19.024,19.024,0,0,1-2.346,2.775A19.4,19.4,0,0,1,22.5,52.652Z" fill="#fff"/>
        <g id="Rectangle_7" data-name="Rectangle 7" transform="translate(81 52)" fill="none" stroke="rgba(112,112,112,0)" stroke-width="1">
          <rect width="48" height="18" rx="9" stroke="none"/>
          <rect x="0.5" y="0.5" width="47" height="17" rx="8.5" fill="none"/>
        </g>
        <rect id="Rectangle_8" data-name="Rectangle 8" width="57" height="8" rx="1" transform="translate(81 5)" fill="#fff"/>
        <rect id="Rectangle_8-2" data-name="Rectangle 8" width="51" height="8" rx="1" transform="translate(81 24)" fill="#fff"/>
        <rect id="Rectangle_8-3" data-name="Rectangle 8" width="64" height="8" rx="1" transform="translate(81 35)" fill="#fff"/>
      </g>
      <g id="Group_13-2" data-name="Group 13" transform="translate(1135 521.159)" opacity="0.809">
        <path id="Exclusion_2-2" data-name="Exclusion 2" d="M68.906,70H1.094A1.1,1.1,0,0,1,0,68.9V1.1A1.1,1.1,0,0,1,1.094,0H68.906A1.1,1.1,0,0,1,70,1.1V68.9A1.1,1.1,0,0,1,68.906,70ZM22.494,15.156a19.43,19.43,0,0,0-10.741,3.2,19.1,19.1,0,0,0-5.191,5.065,18.686,18.686,0,0,0-1.771,3.185A18.384,18.384,0,0,0,6.2,43.842a19.107,19.107,0,0,0,7.594,6.785l-3.04,5.154h51.59l-25.8-43.749-3.615,6.131a19.486,19.486,0,0,0-10.435-3.007Zm0,37.5a19.748,19.748,0,0,1-4.546-.529,19.384,19.384,0,0,1-4.156-1.5L32.933,18.162a19.089,19.089,0,0,1,6.367,6.65A18.39,18.39,0,0,1,40.2,41.2a18.7,18.7,0,0,1-1.772,3.185,19.024,19.024,0,0,1-2.346,2.775A19.4,19.4,0,0,1,22.5,52.652Z" transform="translate(0 -0.159)" fill="#fff"/>
        <g id="Rectangle_7-2" data-name="Rectangle 7" transform="translate(81 51.841)" fill="none" stroke="rgba(112,112,112,0)" stroke-width="1">
          <rect width="48" height="18" rx="9" stroke="none"/>
          <rect x="0.5" y="0.5" width="47" height="17" rx="8.5" fill="none"/>
        </g>
        <rect id="Rectangle_8-4" data-name="Rectangle 8" width="57" height="8" rx="1" transform="translate(81 4.841)" fill="#fff"/>
        <rect id="Rectangle_8-5" data-name="Rectangle 8" width="51" height="8" rx="1" transform="translate(81 23.841)" fill="#fff"/>
        <rect id="Rectangle_8-6" data-name="Rectangle 8" width="64" height="8" rx="1" transform="translate(81 34.841)" fill="#fff"/>
      </g>
      <g id="Group_13-3" data-name="Group 13" transform="translate(1135 613.318)" opacity="0.809">
        <path id="Exclusion_2-3" data-name="Exclusion 2" d="M68.906,70H1.094A1.1,1.1,0,0,1,0,68.9V1.1A1.1,1.1,0,0,1,1.094,0H68.906A1.1,1.1,0,0,1,70,1.1V68.9A1.1,1.1,0,0,1,68.906,70ZM22.494,15.156a19.43,19.43,0,0,0-10.741,3.2,19.1,19.1,0,0,0-5.191,5.065,18.686,18.686,0,0,0-1.771,3.185A18.384,18.384,0,0,0,6.2,43.842a19.107,19.107,0,0,0,7.594,6.785l-3.04,5.154h51.59l-25.8-43.749-3.615,6.131a19.486,19.486,0,0,0-10.435-3.007Zm0,37.5a19.748,19.748,0,0,1-4.546-.529,19.384,19.384,0,0,1-4.156-1.5L32.933,18.162a19.089,19.089,0,0,1,6.367,6.65A18.39,18.39,0,0,1,40.2,41.2a18.7,18.7,0,0,1-1.772,3.185,19.024,19.024,0,0,1-2.346,2.775A19.4,19.4,0,0,1,22.5,52.652Z" transform="translate(0 -0.318)" fill="#fff"/>
        <g id="Rectangle_7-3" data-name="Rectangle 7" transform="translate(81 52.682)" fill="none" stroke="rgba(112,112,112,0)" stroke-width="1">
          <rect width="48" height="17" rx="8.5" stroke="none"/>
          <rect x="0.5" y="0.5" width="47" height="16" rx="8" fill="none"/>
        </g>
        <rect id="Rectangle_8-7" data-name="Rectangle 8" width="57" height="9" rx="1" transform="translate(81 4.682)" fill="#fff"/>
        <rect id="Rectangle_8-8" data-name="Rectangle 8" width="51" height="8" rx="1" transform="translate(81 23.682)" fill="#fff"/>
        <rect id="Rectangle_8-9" data-name="Rectangle 8" width="64" height="8" rx="1" transform="translate(81 34.682)" fill="#fff"/>
      </g>
    </g>
    <path id="Path_1" data-name="Path 1" d="M229.111,90.967,189.994-155.769,142.636-504.642l59.588-1.056,20.869,136.291L279.834,29.068h92.849v61.9ZM310.353-3.6l-2.579-349.042L304.335-503.8h68.347V-3.6ZM45.133,90.967V-503.092H106.6l2.579,332.278L113.05,90.967Z" transform="translate(362 667.033)" fill="#fff" opacity="0.15"/>
  </g>
</svg>
