<svg id="Component_24_1" data-name="Component 24 – 1" xmlns="http://www.w3.org/2000/svg" xmlns:xlink="http://www.w3.org/1999/xlink" width="1339.5" height="966" viewBox="0 0 1339.5 966">
  <defs>
    <linearGradient id="linear-gradient" x1="0.847" y1="0.5" x2="0.02" y2="0.5" gradientUnits="objectBoundingBox">
      <stop offset="0" stop-color="#9c81bc"/>
      <stop offset="1" stop-color="#6b9670"/>
    </linearGradient>
    <linearGradient id="linear-gradient-2" y1="0.5" x2="1.143" y2="0.5" gradientUnits="objectBoundingBox">
      <stop offset="0" stop-color="#9c81bc"/>
      <stop offset="1" stop-color="#f7b4c6"/>
    </linearGradient>
    <linearGradient id="linear-gradient-3" x1="0.408" y1="0.5" x2="-0.026" y2="0.5" gradientUnits="objectBoundingBox">
      <stop offset="0" stop-color="#d978bb"/>
      <stop offset="1" stop-color="#f7b4c6"/>
    </linearGradient>
    <linearGradient id="linear-gradient-4" x1="0.302" y1="0.5" x2="0.974" y2="0.5" gradientUnits="objectBoundingBox">
      <stop offset="0" stop-color="#f7b4c6"/>
      <stop offset="1" stop-color="#d978bb"/>
    </linearGradient>
  </defs>
  <rect id="Rectangle_85" data-name="Rectangle 85" width="95.195" height="95.195" rx="7" transform="translate(1024.125 522.775) rotate(135)" fill="#9c81bc"/>
  <text id="_" data-name="
" transform="translate(770 257)" fill="#707070" font-size="28" font-family="HelveticaNeue, Helvetica Neue"><tspan x="0" y="0"></tspan><tspan x="0" y="34"></tspan></text>
  <line id="Line_11" data-name="Line 11" x2="175.186" transform="translate(491.5 361.919)" fill="none" stroke="#6b9670" stroke-width="2"/>
  <path id="Polygon_9" data-name="Polygon 9" d="M10.873,0,21.745,19.456H0Z" transform="matrix(-0.017, 1, -1, -0.017, 674.125, 351.318)" fill="#6b9670"/>
  <rect id="Rectangle_89" data-name="Rectangle 89" width="558" height="111" rx="55.5" transform="translate(684 316)" fill="url(#linear-gradient)"/>
  <text id="New_instance_ApolloClient_Run_Query" data-name="New instance  
ApolloClient Run Query" transform="translate(960 365)" fill="#f7f7f7" font-size="25" font-family="HelveticaNeue, Helvetica Neue"><tspan x="-82.637" y="0" xml:space="preserve">New instance  </tspan><tspan x="-130.575" y="30">ApolloClient Run Query</tspan></text>
  <text id="_2" data-name="
" transform="translate(876 604)" fill="#707070" font-size="28" font-family="HelveticaNeue, Helvetica Neue"><tspan x="0" y="0"></tspan><tspan x="0" y="34"></tspan></text>
  <rect id="Rectangle_90" data-name="Rectangle 90" width="557" height="106" rx="53" transform="translate(686 616)" fill="url(#linear-gradient-2)"/>
  <text id="ApolloClient_extract_data_from_cache" data-name="ApolloClient extract data 
from cache" transform="translate(954 667)" fill="#f7f7f7" font-size="25" font-family="HelveticaNeue, Helvetica Neue"><tspan x="-141.438" y="0">ApolloClient extract data </tspan><tspan x="-62.75" y="30">from cache</tspan></text>
  <line id="Line_12" data-name="Line 12" x2="94" transform="translate(1244 893)" fill="none" stroke="#f7b4c6" stroke-width="2"/>
  <path id="Polygon_10" data-name="Polygon 10" d="M11,0,22,20H0Z" transform="translate(1268 133) rotate(-90)" fill="#f7b4c6"/>
  <text id="Cache" transform="translate(916 532)" fill="#fff" font-size="25" font-family="HelveticaNeue, Helvetica Neue"><tspan x="0" y="0">Cache</tspan></text>
  <rect id="Rectangle_94" data-name="Rectangle 94" width="568" height="106" rx="53" transform="translate(674 75)" fill="url(#linear-gradient-3)"/>
  <text id="Fetch_data" data-name="Fetch data" transform="translate(803 112)" fill="#fff" font-size="25" font-family="HelveticaNeue, Helvetica Neue"><tspan x="0" y="24">Fetch data</tspan></text>
  <rect id="Rectangle_106" data-name="Rectangle 106" width="557" height="106" rx="53" transform="translate(686 836)" fill="url(#linear-gradient-4)"/>
  <text id="ApolloClient_pass_the_cache_to_the_page_" data-name="ApolloClient pass the cache 
to the page " transform="translate(993 887)" fill="#f7f7f7" font-size="25" font-family="HelveticaNeue, Helvetica Neue"><tspan x="-159.513" y="0">ApolloClient pass the cache </tspan><tspan x="-67.15" y="30">to the page </tspan></text>
  <rect id="Rectangle_110" data-name="Rectangle 110" width="80" height="80" rx="40" transform="translate(682 87)" fill="#fff"/>
  <text id="_3" data-name="3" transform="translate(714 137)" fill="#4b4b4b" font-size="28" font-family="HelveticaNeue, Helvetica Neue"><tspan x="0" y="0">3</tspan></text>
  <rect id="Rectangle_113" data-name="Rectangle 113" width="527" height="106" rx="53" transform="translate(42 836)" fill="#f7b4c6"/>
  <text id="UseApollo_function" data-name="UseApollo function" transform="translate(306 899)" fill="#f7f7f7" font-size="25" font-family="HelveticaNeue, Helvetica Neue"><tspan x="-106.025" y="0">UseApollo function</tspan></text>
  <line id="Line_15" data-name="Line 15" x2="94" transform="translate(556 893)" fill="none" stroke="#f7b4c6" stroke-width="2"/>
  <path id="Polygon_13" data-name="Polygon 13" d="M11,0,22,20H0Z" transform="translate(664 883) rotate(90)" fill="#f7b4c6"/>
  <text id="client.ts" transform="translate(91 27)" fill="#4b4b4b" font-size="28" font-family="HelveticaNeue, Helvetica Neue"><tspan x="-48.748" y="0">client.ts</tspan></text>
  <text id="component.tsx" transform="translate(778 27)" fill="#4b4b4b" font-size="28" font-family="HelveticaNeue, Helvetica Neue"><tspan x="-93.884" y="0">component.tsx</tspan></text>
  <rect id="Rectangle_114" data-name="Rectangle 114" width="527" height="111" rx="55.5" transform="translate(42 315)" fill="#6b9670"/>
  <text id="Initialize_ApolloClient" data-name="Initialize 
ApolloClient" transform="translate(298 364)" fill="#f7f7f7" font-size="25" font-family="HelveticaNeue, Helvetica Neue"><tspan x="-48.125" y="0">Initialize </tspan><tspan x="-67.588" y="30">ApolloClient</tspan></text>
  <rect id="Rectangle_115" data-name="Rectangle 115" width="80" height="80" rx="40" transform="translate(57 849)" fill="#fff"/>
  <text id="_2-2" data-name="2" transform="translate(89 899)" fill="#4b4b4b" font-size="28" font-family="HelveticaNeue, Helvetica Neue"><tspan x="0" y="0">2</tspan></text>
  <line id="Line_19" data-name="Line 19" y1="773" transform="translate(1338.5 120.5)" fill="none" stroke="#f7b4c6" stroke-width="2"/>
  <line id="Line_20" data-name="Line 20" x2="51" transform="translate(1288 122)" fill="none" stroke="#f7b4c6" stroke-width="2"/>
  <rect id="Rectangle_127" data-name="Rectangle 127" width="527" height="111" rx="55.5" transform="translate(42 65)" fill="#6b9670"/>
  <text id="New_instance_ApolloClient" data-name="New instance  
ApolloClient" transform="translate(298 114)" fill="#f7f7f7" font-size="25" font-family="HelveticaNeue, Helvetica Neue"><tspan x="-82.637" y="0" xml:space="preserve">New instance  </tspan><tspan x="-67.588" y="30">ApolloClient</tspan></text>
  <rect id="Rectangle_128" data-name="Rectangle 128" width="80" height="80" rx="40" transform="translate(56 80)" fill="#fff"/>
  <text id="_1" data-name="1" transform="translate(88 130)" fill="#4b4b4b" font-size="28" font-family="HelveticaNeue, Helvetica Neue"><tspan x="0" y="0">1</tspan></text>
  <line id="Line_21" data-name="Line 21" y2="105" transform="translate(298.5 192.5)" fill="none" stroke="#6b9670" stroke-width="2"/>
  <path id="Polygon_17" data-name="Polygon 17" d="M10.873,0,21.745,19.456H0Z" transform="translate(309.373 302.228) rotate(180)" fill="#6b9670"/>
  <text id="_app.tsx" transform="translate(761 798)" fill="#4b4b4b" font-size="28" font-family="HelveticaNeue, Helvetica Neue"><tspan x="-53.676" y="0">_app.tsx</tspan></text>
  <g id="Rectangle_129" data-name="Rectangle 129" transform="translate(0 43)" fill="none" stroke="#707070" stroke-width="1" stroke-dasharray="3">
    <rect width="606" height="923" rx="43" stroke="none"/>
    <rect x="0.5" y="0.5" width="605" height="922" rx="42.5" fill="none"/>
  </g>
  <g id="Rectangle_130" data-name="Rectangle 130" transform="translate(664 43)" fill="none" stroke="#707070" stroke-width="1" stroke-dasharray="3">
    <rect width="606" height="711" rx="43" stroke="none"/>
    <rect x="0.5" y="0.5" width="605" height="710" rx="42.5" fill="none"/>
  </g>
  <g id="Rectangle_131" data-name="Rectangle 131" transform="translate(674 815)" fill="none" stroke="#707070" stroke-width="1" stroke-dasharray="3">
    <rect width="606" height="151" rx="43" stroke="none"/>
    <rect x="0.5" y="0.5" width="605" height="150" rx="42.5" fill="none"/>
  </g>
  <line id="Line_22" data-name="Line 22" y2="105" transform="translate(298 563.772)" fill="none" stroke="#6b9670" stroke-width="2"/>
  <path id="Polygon_18" data-name="Polygon 18" d="M10.873,0,21.745,19.456H0Z" transform="translate(308.873 673.5) rotate(180)" fill="#6b9670"/>
  <line id="Line_23" data-name="Line 23" y2="105" transform="translate(328 673.5) rotate(180)" fill="none" stroke="#f7b4c6" stroke-width="2"/>
  <path id="Polygon_19" data-name="Polygon 19" d="M10.873,0,21.745,19.456H0Z" transform="translate(317.127 563.772)" fill="#f7b4c6"/>
</svg>
