<svg xmlns="http://www.w3.org/2000/svg" width="300.928" height="260" viewBox="0 0 300.928 260">
  <g id="userManual" transform="translate(-8.072)">
    <path id="Intersection_12" data-name="Intersection 12" d="M-7947.721-4066.881q8.162-1.281,11.442-5.679t3.28-12.719q.157-53.44.4-107.36T-7933-4300h28.159q.642,53.44.721,106.081t-.721,106.079q-.321,22.721-10.319,33.52t-32.561,12.4Zm-50.16,12.56q-10-10.8-10.319-33.52-.8-53.44-.721-106.079t.721-106.08h28.161q-.642,53.44-.561,107.36t.4,107.36q0,8.48,3.36,12.8t11.68,5.6v24.96q-22.72-1.6-32.721-12.4Z" transform="translate(8017 4301)" fill="#f4f4f4" opacity="0.143"/>
    <g id="Group_681" data-name="Group 681" transform="translate(-1117.429 -2710)">
      <path id="U" d="M4.41-11.508Q4.2-25.536,4.221-39.354T4.41-67.2H11.8q-.168,14.028-.147,28.182t.105,28.182a5.407,5.407,0,0,0,.882,3.36,4.605,4.605,0,0,0,3.066,1.47V.546Q9.744.126,7.119-2.709T4.41-11.508ZM20.286.546V-6.006a4.421,4.421,0,0,0,3-1.491,5.521,5.521,0,0,0,.861-3.339q.042-14.028.1-28.182T24.15-67.2h7.392q.168,14.028.189,27.846t-.189,27.846q-.084,5.964-2.709,8.8T20.286.546Z" transform="translate(1135.429 2769.626) rotate(90)" fill="#e3e363"/>
      <path id="U-2" data-name="U" d="M4.41-11.508Q4.2-25.536,4.221-39.354T4.41-67.2H11.8q-.168,14.028-.147,28.182t.105,28.182a5.407,5.407,0,0,0,.882,3.36,4.605,4.605,0,0,0,3.066,1.47V.546Q9.744.126,7.119-2.709T4.41-11.508ZM20.286.546V-6.006a4.421,4.421,0,0,0,3-1.491,5.521,5.521,0,0,0,.861-3.339q.042-14.028.1-28.182T24.15-67.2h7.392q.168,14.028.189,27.846t-.189,27.846q-.084,5.964-2.709,8.8T20.286.546Z" transform="translate(1135.429 2803.685) rotate(90)" fill="#e3e363"/>
      <path id="U-3" data-name="U" d="M4.41-11.508Q4.2-25.536,4.221-39.354T4.41-67.2H11.8q-.168,14.028-.147,28.182t.105,28.182a5.407,5.407,0,0,0,.882,3.36,4.605,4.605,0,0,0,3.066,1.47V.546Q9.744.126,7.119-2.709T4.41-11.508ZM20.286.546V-6.006a4.421,4.421,0,0,0,3-1.491,5.521,5.521,0,0,0,.861-3.339q.042-14.028.1-28.182T24.15-67.2h7.392q.168,14.028.189,27.846t-.189,27.846q-.084,5.964-2.709,8.8T20.286.546Z" transform="translate(1135.429 2838) rotate(90)" fill="#e3e363"/>
      <path id="Rectangle_328" data-name="Rectangle 328" d="M4.5,0H73V9H4.5A4.5,4.5,0,0,1,0,4.5H0A4.5,4.5,0,0,1,4.5,0Z" transform="translate(1129.429 2878)" fill="#e3e363"/>
    </g>
    <rect id="Rectangle_346" data-name="Rectangle 346" width="2" height="260" transform="translate(307)" fill="#fff" opacity="0"/>
  </g>
</svg>
