<svg xmlns="http://www.w3.org/2000/svg" width="306.181" height="264" viewBox="0 0 306.181 264">
  <g id="Component_57_1" data-name="Component 57 – 1" transform="translate(0)">
    <path id="Intersection_16" data-name="Intersection 16" d="M-7880.235-4034l-3.629-26.234h38.938L-7837-4152.8l14.12-141.2h29.97l-29.9,260Zm-4.949-38.939L-7910.791-4294h29.989l14.922,141.2,6.929,79.861Z" transform="translate(7982.181 4294)" fill="#fff" opacity="0.15"/>
    <g id="Component_51_1" data-name="Component 51 – 1">
      <g id="Group_126" data-name="Group 126" transform="translate(-1052.414 -2765)">
        <path id="Polygon_12" data-name="Polygon 12" d="M33.481,4.382a3,3,0,0,1,5.168,0L69.463,56.63a3,3,0,0,1-2.584,4.524H5.252A3,3,0,0,1,2.668,56.63Z" transform="translate(1113.568 2861.69) rotate(90)" fill="#fcfce7"/>
      </g>
      <rect id="Rectangle_347" data-name="Rectangle 347" width="2" height="264" transform="translate(304.181)" fill="#fff" opacity="0"/>
    </g>
    <rect id="Rectangle_874" data-name="Rectangle 874" width="3" height="264" transform="translate(296.181)" fill="#fff" opacity="0"/>
  </g>
</svg>
